<svg width="900" height="600" viewBox="0 0 900 600" fill="none" xmlns="http://www.w3.org/2000/svg">
<rect width="900" height="600" fill="white" fill-opacity="0.95"/>
<path d="M280.69 291H277.963C277.679 289.523 277.146 288.095 276.365 286.717C275.583 285.325 274.575 284.075 273.339 282.967C272.118 281.845 270.697 280.957 269.078 280.304C267.458 279.651 265.669 279.324 263.708 279.324C260.839 279.324 258.197 280.091 255.782 281.625C253.382 283.145 251.457 285.382 250.008 288.337C248.574 291.291 247.856 294.906 247.856 299.182C247.856 303.486 248.574 307.115 250.008 310.07C251.457 313.024 253.382 315.261 255.782 316.781C258.197 318.287 260.839 319.04 263.708 319.04C265.669 319.04 267.458 318.72 269.078 318.081C270.697 317.428 272.118 316.547 273.339 315.439C274.575 314.317 275.583 313.06 276.365 311.668C277.146 310.276 277.679 308.841 277.963 307.364H280.69C280.377 309.125 279.774 310.851 278.879 312.541C277.998 314.232 276.833 315.766 275.385 317.143C273.95 318.507 272.252 319.594 270.292 320.403C268.346 321.199 266.152 321.597 263.708 321.597C260.072 321.597 256.869 320.673 254.099 318.827C251.329 316.966 249.156 314.352 247.579 310.986C246.017 307.619 245.235 303.685 245.235 299.182C245.235 294.679 246.017 290.744 247.579 287.378C249.156 284.011 251.329 281.405 254.099 279.558C256.869 277.697 260.072 276.767 263.708 276.767C266.152 276.767 268.346 277.172 270.292 277.982C272.252 278.777 273.95 279.857 275.385 281.22C276.833 282.57 277.998 284.089 278.879 285.78C279.774 287.47 280.377 289.21 280.69 291ZM302.178 321.682C299.479 321.682 297.078 320.957 294.976 319.509C292.874 318.045 291.219 316.036 290.012 313.479C288.804 310.922 288.201 308.01 288.201 304.743C288.201 301.462 288.804 298.55 290.012 296.007C291.219 293.45 292.874 291.44 294.976 289.977C297.078 288.514 299.479 287.783 302.178 287.783C304.877 287.783 307.277 288.514 309.38 289.977C311.482 291.44 313.137 293.45 314.344 296.007C315.551 298.564 316.155 301.476 316.155 304.743C316.155 308.01 315.551 310.922 314.344 313.479C313.137 316.036 311.482 318.045 309.38 319.509C307.277 320.957 304.877 321.682 302.178 321.682ZM302.178 319.274C304.465 319.274 306.461 318.628 308.165 317.335C309.884 316.043 311.212 314.295 312.15 312.094C313.101 309.892 313.577 307.442 313.577 304.743C313.577 302.044 313.101 299.601 312.15 297.413C311.198 295.212 309.87 293.464 308.165 292.172C306.461 290.865 304.465 290.212 302.178 290.212C299.891 290.212 297.895 290.865 296.191 292.172C294.486 293.464 293.158 295.212 292.206 297.413C291.255 299.601 290.779 302.044 290.779 304.743C290.779 307.442 291.248 309.892 292.185 312.094C293.137 314.295 294.465 316.043 296.169 317.335C297.888 318.628 299.891 319.274 302.178 319.274ZM325.109 321V288.273H327.645V293.216H327.901C328.526 291.568 329.605 290.261 331.139 289.295C332.673 288.33 334.52 287.847 336.679 287.847C339.051 287.847 340.962 288.415 342.411 289.551C343.874 290.687 344.925 292.229 345.564 294.175H345.798C346.438 292.257 347.581 290.723 349.229 289.572C350.891 288.422 352.936 287.847 355.365 287.847C358.533 287.847 360.947 288.848 362.609 290.851C364.286 292.839 365.124 295.567 365.124 299.033V321H362.524V299.033C362.524 296.305 361.871 294.161 360.564 292.598C359.257 291.036 357.339 290.254 354.811 290.254C352.112 290.254 350.038 291.099 348.589 292.79C347.141 294.48 346.416 296.632 346.416 299.246V321H343.817V298.862C343.817 296.32 343.178 294.253 341.899 292.662C340.621 291.057 338.703 290.254 336.146 290.254C334.413 290.254 332.915 290.652 331.651 291.447C330.401 292.243 329.428 293.337 328.732 294.729C328.05 296.121 327.709 297.719 327.709 299.523V321H325.109ZM376.038 321V288.273H378.616V321H376.038ZM377.338 282.477C376.77 282.477 376.272 282.278 375.846 281.881C375.434 281.483 375.228 281 375.228 280.432C375.228 279.864 375.434 279.381 375.846 278.983C376.258 278.585 376.755 278.386 377.338 278.386C377.906 278.386 378.396 278.585 378.808 278.983C379.234 279.381 379.447 279.864 379.447 280.432C379.447 281 379.241 281.483 378.829 281.881C378.417 282.278 377.92 282.477 377.338 282.477ZM392.103 299.778V321H389.504V288.273H392.039V293.45H392.295C393.062 291.76 394.291 290.403 395.981 289.381C397.672 288.358 399.681 287.847 402.011 287.847C404.213 287.847 406.145 288.315 407.806 289.253C409.483 290.19 410.789 291.526 411.727 293.259C412.679 294.977 413.154 297.03 413.154 299.416V321H410.555V299.523C410.555 296.739 409.724 294.501 408.062 292.811C406.414 291.107 404.234 290.254 401.521 290.254C399.703 290.254 398.083 290.652 396.663 291.447C395.243 292.243 394.127 293.358 393.318 294.793C392.508 296.213 392.103 297.875 392.103 299.778ZM435.761 333.955C433.73 333.955 431.904 333.685 430.285 333.145C428.666 332.619 427.288 331.866 426.152 330.886C425.029 329.906 424.17 328.741 423.574 327.392L425.747 326.114C426.23 327.165 426.919 328.102 427.814 328.926C428.708 329.75 429.816 330.396 431.137 330.865C432.473 331.334 434.014 331.568 435.761 331.568C438.914 331.568 441.407 330.751 443.24 329.118C445.086 327.499 446.01 325.013 446.01 321.661V313.521H445.754C445.257 314.942 444.518 316.206 443.538 317.314C442.572 318.408 441.386 319.267 439.98 319.892C438.574 320.517 436.975 320.83 435.186 320.83C432.6 320.83 430.328 320.162 428.368 318.827C426.407 317.491 424.88 315.616 423.787 313.202C422.693 310.773 422.146 307.918 422.146 304.636C422.146 301.355 422.679 298.45 423.744 295.922C424.824 293.379 426.343 291.391 428.304 289.956C430.264 288.507 432.565 287.783 435.207 287.783C437.096 287.783 438.73 288.145 440.108 288.869C441.5 289.58 442.664 290.524 443.602 291.703C444.539 292.882 445.264 294.175 445.775 295.581H446.074V288.273H448.588V321.767C448.588 324.494 448.048 326.76 446.968 328.564C445.903 330.368 444.404 331.717 442.473 332.612C440.555 333.507 438.318 333.955 435.761 333.955ZM435.42 318.422C437.608 318.422 439.49 317.868 441.066 316.76C442.657 315.638 443.879 314.047 444.731 311.987C445.598 309.913 446.031 307.456 446.031 304.615C446.031 301.859 445.612 299.395 444.774 297.222C443.936 295.048 442.721 293.337 441.13 292.087C439.539 290.837 437.636 290.212 435.42 290.212C433.162 290.212 431.237 290.851 429.646 292.129C428.055 293.393 426.833 295.112 425.981 297.286C425.143 299.459 424.724 301.902 424.724 304.615C424.724 307.342 425.15 309.743 426.002 311.817C426.855 313.876 428.076 315.496 429.667 316.675C431.258 317.839 433.176 318.422 435.42 318.422ZM500.837 288.273C500.61 285.56 499.502 283.365 497.513 281.689C495.539 280.013 492.982 279.175 489.843 279.175C487.727 279.175 485.844 279.565 484.197 280.347C482.549 281.128 481.256 282.193 480.319 283.543C479.381 284.892 478.913 286.44 478.913 288.188C478.913 289.31 479.126 290.325 479.552 291.234C479.992 292.129 480.61 292.932 481.406 293.642C482.201 294.338 483.146 294.949 484.239 295.474C485.333 296 486.54 296.462 487.862 296.859L492.634 298.266C494.268 298.763 495.773 299.338 497.151 299.991C498.543 300.645 499.751 301.426 500.773 302.335C501.81 303.23 502.613 304.281 503.181 305.489C503.763 306.696 504.055 308.088 504.055 309.665C504.055 311.966 503.458 314.026 502.265 315.844C501.086 317.662 499.403 319.097 497.215 320.148C495.042 321.185 492.478 321.703 489.523 321.703C486.711 321.703 484.261 321.227 482.173 320.276C480.099 319.324 478.458 318.003 477.251 316.312C476.043 314.608 475.362 312.648 475.205 310.432H477.933C478.075 312.236 478.65 313.798 479.658 315.119C480.681 316.426 482.038 317.435 483.728 318.145C485.418 318.855 487.35 319.21 489.523 319.21C491.867 319.21 493.934 318.812 495.724 318.017C497.513 317.207 498.913 316.085 499.921 314.651C500.93 313.216 501.434 311.547 501.434 309.643C501.434 308.109 501.072 306.795 500.347 305.702C499.623 304.608 498.55 303.663 497.13 302.868C495.724 302.072 493.977 301.362 491.888 300.737L486.796 299.203C483.387 298.166 480.781 296.753 478.977 294.963C477.187 293.173 476.292 290.943 476.292 288.273C476.292 286.028 476.888 284.04 478.082 282.307C479.275 280.56 480.894 279.189 482.94 278.195C484.999 277.2 487.322 276.703 489.907 276.703C492.506 276.703 494.8 277.207 496.789 278.216C498.778 279.21 500.354 280.581 501.519 282.328C502.684 284.061 503.33 286.043 503.458 288.273H500.837ZM525.83 321.682C523.131 321.682 520.731 320.957 518.629 319.509C516.526 318.045 514.871 316.036 513.664 313.479C512.457 310.922 511.853 308.01 511.853 304.743C511.853 301.462 512.457 298.55 513.664 296.007C514.871 293.45 516.526 291.44 518.629 289.977C520.731 288.514 523.131 287.783 525.83 287.783C528.529 287.783 530.93 288.514 533.032 289.977C535.134 291.44 536.789 293.45 537.996 296.007C539.204 298.564 539.808 301.476 539.808 304.743C539.808 308.01 539.204 310.922 537.996 313.479C536.789 316.036 535.134 318.045 533.032 319.509C530.93 320.957 528.529 321.682 525.83 321.682ZM525.83 319.274C528.117 319.274 530.113 318.628 531.817 317.335C533.536 316.043 534.864 314.295 535.802 312.094C536.754 309.892 537.229 307.442 537.229 304.743C537.229 302.044 536.754 299.601 535.802 297.413C534.85 295.212 533.522 293.464 531.817 292.172C530.113 290.865 528.117 290.212 525.83 290.212C523.543 290.212 521.548 290.865 519.843 292.172C518.138 293.464 516.81 295.212 515.859 297.413C514.907 299.601 514.431 302.044 514.431 304.743C514.431 307.442 514.9 309.892 515.837 312.094C516.789 314.295 518.117 316.043 519.822 317.335C521.54 318.628 523.543 319.274 525.83 319.274ZM560.928 321.682C558.229 321.682 555.828 320.957 553.726 319.509C551.624 318.045 549.969 316.036 548.762 313.479C547.554 310.922 546.951 308.01 546.951 304.743C546.951 301.462 547.554 298.55 548.762 296.007C549.969 293.45 551.624 291.44 553.726 289.977C555.828 288.514 558.229 287.783 560.928 287.783C563.627 287.783 566.027 288.514 568.13 289.977C570.232 291.44 571.887 293.45 573.094 296.007C574.301 298.564 574.905 301.476 574.905 304.743C574.905 308.01 574.301 310.922 573.094 313.479C571.887 316.036 570.232 318.045 568.13 319.509C566.027 320.957 563.627 321.682 560.928 321.682ZM560.928 319.274C563.215 319.274 565.211 318.628 566.915 317.335C568.634 316.043 569.962 314.295 570.9 312.094C571.851 309.892 572.327 307.442 572.327 304.743C572.327 302.044 571.851 299.601 570.9 297.413C569.948 295.212 568.62 293.464 566.915 292.172C565.211 290.865 563.215 290.212 560.928 290.212C558.641 290.212 556.645 290.865 554.941 292.172C553.236 293.464 551.908 295.212 550.956 297.413C550.005 299.601 549.529 302.044 549.529 304.743C549.529 307.442 549.998 309.892 550.935 312.094C551.887 314.295 553.215 316.043 554.919 317.335C556.638 318.628 558.641 319.274 560.928 319.274ZM586.459 299.778V321H583.859V288.273H586.395V293.45H586.651C587.418 291.76 588.646 290.403 590.337 289.381C592.027 288.358 594.037 287.847 596.366 287.847C598.568 287.847 600.5 288.315 602.162 289.253C603.838 290.19 605.145 291.526 606.082 293.259C607.034 294.977 607.51 297.03 607.51 299.416V321H604.911V299.523C604.911 296.739 604.08 294.501 602.418 292.811C600.77 291.107 598.589 290.254 595.876 290.254C594.058 290.254 592.439 290.652 591.018 291.447C589.598 292.243 588.483 293.358 587.673 294.793C586.864 296.213 586.459 297.875 586.459 299.778ZM620.741 321.277C620.102 321.277 619.555 321.057 619.101 320.616C618.661 320.162 618.44 319.615 618.44 318.976C618.44 318.351 618.661 317.811 619.101 317.357C619.555 316.902 620.102 316.675 620.741 316.675C621.366 316.675 621.906 316.902 622.361 317.357C622.815 317.811 623.043 318.351 623.043 318.976C623.043 319.402 622.936 319.793 622.723 320.148C622.524 320.489 622.247 320.766 621.892 320.979C621.551 321.178 621.168 321.277 620.741 321.277ZM636.386 321.277C635.747 321.277 635.2 321.057 634.745 320.616C634.305 320.162 634.085 319.615 634.085 318.976C634.085 318.351 634.305 317.811 634.745 317.357C635.2 316.902 635.747 316.675 636.386 316.675C637.011 316.675 637.551 316.902 638.005 317.357C638.46 317.811 638.687 318.351 638.687 318.976C638.687 319.402 638.581 319.793 638.368 320.148C638.169 320.489 637.892 320.766 637.537 320.979C637.196 321.178 636.812 321.277 636.386 321.277ZM652.031 321.277C651.391 321.277 650.844 321.057 650.39 320.616C649.95 320.162 649.729 319.615 649.729 318.976C649.729 318.351 649.95 317.811 650.39 317.357C650.844 316.902 651.391 316.675 652.031 316.675C652.656 316.675 653.195 316.902 653.65 317.357C654.104 317.811 654.332 318.351 654.332 318.976C654.332 319.402 654.225 319.793 654.012 320.148C653.813 320.489 653.536 320.766 653.181 320.979C652.84 321.178 652.457 321.277 652.031 321.277Z" fill="black"/>
</svg>
