<svg width="900" height="600" viewBox="0 0 900 600" fill="none" xmlns="http://www.w3.org/2000/svg">
<rect width="900" height="600" fill="white" fill-opacity="0.95"/>
<path d="M224.28 179.38H240V182.14H224.28V179.38ZM251.16 169.96H254.04V224.32H251.16V169.96ZM217.8 192.88L219.42 190.84C221.22 191.8 223.06 192.92 224.94 194.2C226.82 195.44 228.58 196.7 230.22 197.98C231.9 199.22 233.24 200.38 234.24 201.46L232.5 203.74C231.5 202.7 230.18 201.52 228.54 200.2C226.94 198.88 225.2 197.58 223.32 196.3C221.44 195.02 219.6 193.88 217.8 192.88ZM226.62 169.9L229.56 170.5C228.52 174.34 227.24 178 225.72 181.48C224.2 184.92 222.5 188.1 220.62 191.02C218.78 193.94 216.74 196.52 214.5 198.76C214.34 198.56 214.1 198.36 213.78 198.16C213.46 197.92 213.14 197.68 212.82 197.44C212.5 197.2 212.22 197.02 211.98 196.9C214.22 194.78 216.26 192.32 218.1 189.52C219.98 186.72 221.62 183.66 223.02 180.34C224.46 176.98 225.66 173.5 226.62 169.9ZM243.48 183.94C244.84 186.42 246.46 188.84 248.34 191.2C250.26 193.56 252.34 195.8 254.58 197.92C256.86 200.04 259.2 201.96 261.6 203.68C264.04 205.36 266.48 206.74 268.92 207.82C268.68 208.02 268.42 208.26 268.14 208.54C267.9 208.78 267.66 209.06 267.42 209.38C267.22 209.66 267.04 209.92 266.88 210.16C264.44 208.96 262 207.46 259.56 205.66C257.12 203.82 254.76 201.8 252.48 199.6C250.2 197.36 248.08 195 246.12 192.52C244.2 190.04 242.54 187.52 241.14 184.96L243.48 183.94ZM239.1 179.38H239.64L240.24 179.26L242.1 179.92C240.9 187.72 239.02 194.5 236.46 200.26C233.9 206.02 230.82 210.86 227.22 214.78C223.66 218.7 219.74 221.86 215.46 224.26C215.3 224.02 215.08 223.76 214.8 223.48C214.52 223.2 214.24 222.92 213.96 222.64C213.68 222.4 213.42 222.22 213.18 222.1C217.46 219.82 221.34 216.8 224.82 213.04C228.34 209.28 231.32 204.68 233.76 199.24C236.24 193.8 238.02 187.42 239.1 180.1V179.38ZM306.66 173.56H324.96V176.32H309.48V224.5H306.66V173.56ZM274.44 177.1H302.94V179.8H274.44V177.1ZM272.76 193.6H303.78V196.36H272.76V193.6ZM287.1 170.02H289.98V178.66H287.1V170.02ZM278.34 182.14L280.86 181.6C281.54 183.16 282.16 184.9 282.72 186.82C283.32 188.74 283.7 190.38 283.86 191.74L281.16 192.4C281.04 191 280.7 189.34 280.14 187.42C279.62 185.5 279.02 183.74 278.34 182.14ZM296.22 181.06L299.1 181.84C298.46 183.64 297.76 185.54 297 187.54C296.24 189.54 295.5 191.26 294.78 192.7L292.38 191.92C292.82 190.96 293.28 189.84 293.76 188.56C294.24 187.28 294.7 185.98 295.14 184.66C295.58 183.3 295.94 182.1 296.22 181.06ZM278.22 217.96H298.68V220.72H278.22V217.96ZM277.14 202.36H300.06V224.14H297.24V205H279.9V224.5H277.14V202.36ZM324.18 173.56H324.78L325.26 173.44L327.36 174.82C326.08 177.62 324.64 180.66 323.04 183.94C321.44 187.18 319.86 190.22 318.3 193.06C320.58 194.98 322.32 196.82 323.52 198.58C324.76 200.3 325.62 201.94 326.1 203.5C326.58 205.06 326.82 206.58 326.82 208.06C326.82 209.66 326.6 211.12 326.16 212.44C325.76 213.72 325.06 214.7 324.06 215.38C323.06 215.94 321.8 216.32 320.28 216.52C319.48 216.6 318.58 216.64 317.58 216.64C316.62 216.64 315.68 216.62 314.76 216.58C314.72 216.14 314.62 215.66 314.46 215.14C314.3 214.58 314.08 214.08 313.8 213.64C314.84 213.76 315.84 213.84 316.8 213.88C317.76 213.88 318.58 213.86 319.26 213.82C319.82 213.74 320.32 213.64 320.76 213.52C321.24 213.4 321.68 213.24 322.08 213.04C322.8 212.56 323.3 211.86 323.58 210.94C323.86 210.02 324 208.98 324 207.82C323.96 205.82 323.32 203.64 322.08 201.28C320.84 198.92 318.52 196.34 315.12 193.54C316 191.94 316.86 190.28 317.7 188.56C318.54 186.84 319.36 185.14 320.16 183.46C320.96 181.78 321.7 180.16 322.38 178.6C323.06 177.04 323.66 175.64 324.18 174.4V173.56ZM372.24 191.8C372.24 195.96 371.98 199.62 371.46 202.78C370.98 205.9 370.12 208.64 368.88 211C367.68 213.32 366 215.38 363.84 217.18C361.68 218.98 358.94 220.64 355.62 222.16L353.04 219.7C355.64 218.62 357.94 217.42 359.94 216.1C361.98 214.78 363.68 213.12 365.04 211.12C366.4 209.12 367.42 206.6 368.1 203.56C368.82 200.52 369.18 196.76 369.18 192.28V178.48C369.18 177.32 369.14 176.32 369.06 175.48C368.98 174.6 368.94 174.1 368.94 173.98H372.48C372.48 174.1 372.44 174.6 372.36 175.48C372.28 176.32 372.24 177.32 372.24 178.48V191.8ZM350.64 174.28C350.64 174.36 350.6 174.76 350.52 175.48C350.44 176.2 350.4 177.02 350.4 177.94V200.26C350.4 200.9 350.42 201.6 350.46 202.36C350.5 203.08 350.54 203.72 350.58 204.28C350.62 204.8 350.64 205.1 350.64 205.18H347.16C347.16 205.1 347.18 204.8 347.22 204.28C347.26 203.76 347.3 203.14 347.34 202.42C347.38 201.66 347.4 200.94 347.4 200.26V178C347.4 177.48 347.38 176.86 347.34 176.14C347.3 175.42 347.24 174.8 347.16 174.28H350.64ZM334.38 186.4C334.46 186.4 334.8 186.44 335.4 186.52C336.04 186.56 336.8 186.6 337.68 186.64C338.56 186.68 339.36 186.7 340.08 186.7H380.1C381.26 186.7 382.3 186.66 383.22 186.58C384.18 186.5 384.74 186.44 384.9 186.4V189.82C384.78 189.82 384.24 189.8 383.28 189.76C382.32 189.68 381.26 189.64 380.1 189.64H340.08C339.32 189.64 338.5 189.66 337.62 189.7C336.78 189.74 336.04 189.78 335.4 189.82C334.8 189.82 334.46 189.82 334.38 189.82V186.4ZM396 199.3C401.08 197.9 405.88 196.16 410.4 194.08C414.96 192 418.88 189.94 422.16 187.9C424.32 186.54 426.34 185.12 428.22 183.64C430.14 182.16 431.94 180.62 433.62 179.02C435.34 177.38 436.92 175.7 438.36 173.98L440.88 176.32C439.24 178.08 437.5 179.78 435.66 181.42C433.86 183.06 431.92 184.66 429.84 186.22C427.76 187.74 425.56 189.24 423.24 190.72C421.08 192.08 418.62 193.46 415.86 194.86C413.14 196.22 410.22 197.54 407.1 198.82C404.02 200.06 400.86 201.2 397.62 202.24L396 199.3ZM421.38 189.52L424.56 188.26V215.86C424.56 216.5 424.58 217.2 424.62 217.96C424.66 218.68 424.7 219.34 424.74 219.94C424.78 220.54 424.82 221.02 424.86 221.38H421.14C421.18 221.02 421.22 220.54 421.26 219.94C421.3 219.34 421.32 218.68 421.32 217.96C421.36 217.2 421.38 216.5 421.38 215.86V189.52ZM471.06 214.96C471.06 214.52 471.06 213.48 471.06 211.84C471.06 210.2 471.06 208.2 471.06 205.84C471.06 203.44 471.06 200.92 471.06 198.28C471.06 195.64 471.06 193.08 471.06 190.6C471.06 188.08 471.06 185.88 471.06 184C471.06 182.08 471.06 180.7 471.06 179.86C471.06 179.1 471.02 178.18 470.94 177.1C470.9 175.98 470.8 175 470.64 174.16H474.48C474.4 174.96 474.32 175.94 474.24 177.1C474.16 178.22 474.12 179.14 474.12 179.86C474.12 181.66 474.12 183.74 474.12 186.1C474.12 188.42 474.12 190.84 474.12 193.36C474.12 195.88 474.12 198.36 474.12 200.8C474.16 203.2 474.18 205.42 474.18 207.46C474.18 209.46 474.18 211.14 474.18 212.5C474.18 213.82 474.18 214.64 474.18 214.96C474.18 215.64 474.18 216.36 474.18 217.12C474.22 217.88 474.26 218.64 474.3 219.4C474.34 220.12 474.4 220.76 474.48 221.32H470.76C470.88 220.48 470.96 219.48 471 218.32C471.04 217.16 471.06 216.04 471.06 214.96ZM473.52 190.06C475.48 190.62 477.62 191.32 479.94 192.16C482.3 192.96 484.68 193.84 487.08 194.8C489.52 195.72 491.86 196.66 494.1 197.62C496.34 198.58 498.34 199.5 500.1 200.38L498.78 203.56C497.06 202.64 495.08 201.68 492.84 200.68C490.64 199.68 488.36 198.72 486 197.8C483.64 196.84 481.38 196 479.22 195.28C477.06 194.52 475.16 193.88 473.52 193.36V190.06ZM537.66 180.34C539.18 180.62 541 180.84 543.12 181C545.24 181.12 547.44 181.18 549.72 181.18C552.04 181.14 554.24 181.06 556.32 180.94C558.44 180.78 560.2 180.58 561.6 180.34V183.52C560.16 183.68 558.38 183.82 556.26 183.94C554.18 184.02 551.98 184.06 549.66 184.06C547.38 184.06 545.18 184.02 543.06 183.94C540.94 183.82 539.14 183.68 537.66 183.52V180.34ZM538.5 204.1C538.22 205.22 538 206.26 537.84 207.22C537.68 208.14 537.6 209.02 537.6 209.86C537.6 210.58 537.74 211.3 538.02 212.02C538.3 212.7 538.82 213.34 539.58 213.94C540.38 214.54 541.5 215.02 542.94 215.38C544.42 215.74 546.34 215.92 548.7 215.92C551.42 215.92 553.98 215.8 556.38 215.56C558.82 215.28 561.18 214.88 563.46 214.36L563.52 217.6C561.72 218 559.56 218.32 557.04 218.56C554.56 218.8 551.84 218.92 548.88 218.92C543.92 218.92 540.32 218.16 538.08 216.64C535.88 215.12 534.78 213.04 534.78 210.4C534.78 209.52 534.86 208.56 535.02 207.52C535.18 206.44 535.4 205.2 535.68 203.8L538.5 204.1ZM524.94 175.36C524.82 175.64 524.7 175.98 524.58 176.38C524.5 176.74 524.4 177.12 524.28 177.52C524.2 177.88 524.12 178.24 524.04 178.6C523.8 179.88 523.52 181.3 523.2 182.86C522.92 184.38 522.64 185.98 522.36 187.66C522.12 189.3 521.9 190.96 521.7 192.64C521.5 194.32 521.34 195.98 521.22 197.62C521.1 199.22 521.04 200.74 521.04 202.18C521.04 204.18 521.08 206.02 521.16 207.7C521.28 209.38 521.48 211.22 521.76 213.22C522.12 212.18 522.52 211.04 522.96 209.8C523.44 208.56 523.9 207.32 524.34 206.08C524.82 204.84 525.24 203.78 525.6 202.9L527.4 204.28C526.92 205.52 526.38 206.96 525.78 208.6C525.18 210.24 524.64 211.82 524.16 213.34C523.68 214.86 523.36 216.06 523.2 216.94C523.12 217.38 523.04 217.84 522.96 218.32C522.88 218.8 522.86 219.22 522.9 219.58C522.94 219.86 522.98 220.18 523.02 220.54C523.06 220.9 523.1 221.2 523.14 221.44L520.38 221.68C519.78 219.48 519.26 216.76 518.82 213.52C518.42 210.24 518.22 206.58 518.22 202.54C518.22 200.34 518.32 198.1 518.52 195.82C518.76 193.54 519.04 191.32 519.36 189.16C519.68 186.96 520 184.94 520.32 183.1C520.64 181.22 520.88 179.64 521.04 178.36C521.16 177.72 521.24 177.14 521.28 176.62C521.36 176.06 521.4 175.54 521.4 175.06L524.94 175.36ZM609.3 169.9L612.3 170.5C610.66 173.18 608.48 175.9 605.76 178.66C603.04 181.38 599.72 183.82 595.8 185.98C595.68 185.74 595.5 185.5 595.26 185.26C595.02 185.02 594.76 184.8 594.48 184.6C594.24 184.36 594 184.16 593.76 184C597.52 182.08 600.7 179.84 603.3 177.28C605.94 174.68 607.94 172.22 609.3 169.9ZM607.02 175.12H622.02V177.7H605.16L607.02 175.12ZM621.12 175.12H621.66L622.26 175L624.06 175.96C622.86 179.08 621.28 181.9 619.32 184.42C617.4 186.9 615.18 189.08 612.66 190.96C610.14 192.84 607.46 194.44 604.62 195.76C601.82 197.08 598.96 198.18 596.04 199.06C595.92 198.7 595.7 198.28 595.38 197.8C595.06 197.28 594.76 196.9 594.48 196.66C597.24 195.94 599.98 194.96 602.7 193.72C605.42 192.48 607.98 191 610.38 189.28C612.78 187.56 614.9 185.58 616.74 183.34C618.62 181.06 620.08 178.52 621.12 175.72V175.12ZM601.08 181.96L603 180.34C604.24 181.06 605.5 181.88 606.78 182.8C608.1 183.72 609.3 184.66 610.38 185.62C611.5 186.54 612.4 187.4 613.08 188.2L611.16 190C610.48 189.2 609.58 188.32 608.46 187.36C607.34 186.4 606.12 185.44 604.8 184.48C603.52 183.52 602.28 182.68 601.08 181.96ZM612.66 192.04L615.72 192.58C613.84 195.7 611.24 198.8 607.92 201.88C604.64 204.96 600.6 207.7 595.8 210.1C595.68 209.86 595.5 209.62 595.26 209.38C595.02 209.1 594.78 208.84 594.54 208.6C594.3 208.36 594.06 208.18 593.82 208.06C596.9 206.62 599.66 205 602.1 203.2C604.54 201.4 606.64 199.54 608.4 197.62C610.2 195.7 611.62 193.84 612.66 192.04ZM609.84 198.04H625.08V200.62H607.98L609.84 198.04ZM624.36 198.04H624.96L625.56 197.86L627.42 198.76C626.1 202.52 624.32 205.82 622.08 208.66C619.84 211.5 617.26 213.94 614.34 215.98C611.42 218.02 608.28 219.72 604.92 221.08C601.6 222.48 598.18 223.58 594.66 224.38C594.54 224.02 594.32 223.58 594 223.06C593.72 222.58 593.42 222.18 593.1 221.86C596.5 221.22 599.8 220.28 603 219.04C606.24 217.76 609.26 216.16 612.06 214.24C614.86 212.32 617.32 210.06 619.44 207.46C621.56 204.86 623.2 201.9 624.36 198.58V198.04ZM602.22 205.84L604.26 204.1C605.7 204.86 607.16 205.76 608.64 206.8C610.12 207.84 611.5 208.9 612.78 209.98C614.06 211.02 615.1 212 615.9 212.92L613.8 214.78C613 213.9 611.98 212.92 610.74 211.84C609.5 210.76 608.14 209.7 606.66 208.66C605.18 207.58 603.7 206.64 602.22 205.84ZM583.74 174.52H586.56V224.26H583.74V174.52ZM573.24 186.88H594.84V189.64H573.24V186.88ZM583.86 187.84L585.84 188.68C585.24 190.76 584.48 192.94 583.56 195.22C582.64 197.46 581.64 199.68 580.56 201.88C579.48 204.04 578.36 206.06 577.2 207.94C576.04 209.82 574.88 211.42 573.72 212.74C573.56 212.38 573.3 211.96 572.94 211.48C572.58 210.96 572.26 210.56 571.98 210.28C573.1 209.08 574.22 207.62 575.34 205.9C576.5 204.14 577.62 202.26 578.7 200.26C579.78 198.22 580.76 196.14 581.64 194.02C582.52 191.86 583.26 189.8 583.86 187.84ZM592.38 170.92L594.54 173.2C592.82 173.88 590.8 174.54 588.48 175.18C586.16 175.78 583.74 176.32 581.22 176.8C578.74 177.28 576.34 177.7 574.02 178.06C573.94 177.74 573.8 177.36 573.6 176.92C573.44 176.48 573.26 176.1 573.06 175.78C575.34 175.38 577.68 174.94 580.08 174.46C582.52 173.98 584.82 173.44 586.98 172.84C589.14 172.24 590.94 171.6 592.38 170.92ZM586.38 194.2C586.78 194.56 587.38 195.14 588.18 195.94C588.98 196.74 589.84 197.62 590.76 198.58C591.72 199.5 592.58 200.38 593.34 201.22C594.14 202.02 594.7 202.62 595.02 203.02L593.16 205.3C592.8 204.78 592.26 204.06 591.54 203.14C590.82 202.22 590.02 201.26 589.14 200.26C588.3 199.26 587.5 198.32 586.74 197.44C585.98 196.56 585.36 195.9 584.88 195.46L586.38 194.2ZM634.56 209.32H661.5V211.84H634.56V209.32ZM632.76 180.22H662.7V182.74H632.76V180.22ZM646.44 174.1H649.2V218.86H646.44V174.1ZM632.88 219.46C635.32 219.22 638.1 218.94 641.22 218.62C644.38 218.3 647.72 217.94 651.24 217.54C654.8 217.1 658.36 216.68 661.92 216.28L661.98 218.68C658.58 219.08 655.16 219.5 651.72 219.94C648.28 220.38 644.98 220.78 641.82 221.14C638.7 221.54 635.9 221.88 633.42 222.16L632.88 219.46ZM637.2 197.2V202.6H658.86V197.2H637.2ZM637.2 189.64V194.92H658.86V189.64H637.2ZM634.68 187.36H661.44V204.94H634.68V187.36ZM659.76 170.68L661.44 173.02C659.2 173.5 656.54 173.96 653.46 174.4C650.42 174.8 647.24 175.14 643.92 175.42C640.6 175.66 637.44 175.86 634.44 176.02C634.4 175.66 634.3 175.26 634.14 174.82C633.98 174.38 633.82 174 633.66 173.68C635.9 173.56 638.22 173.4 640.62 173.2C643.02 173 645.4 172.78 647.76 172.54C650.16 172.3 652.38 172.02 654.42 171.7C656.5 171.38 658.28 171.04 659.76 170.68ZM661.98 184.24H684.18V187H661.98V184.24ZM683.16 184.24H685.92C685.92 184.24 685.92 184.36 685.92 184.6C685.92 184.8 685.92 185.04 685.92 185.32C685.92 185.56 685.92 185.76 685.92 185.92C685.72 192.36 685.52 197.78 685.32 202.18C685.16 206.54 684.94 210.1 684.66 212.86C684.42 215.58 684.12 217.68 683.76 219.16C683.44 220.64 683.02 221.7 682.5 222.34C682.02 222.98 681.48 223.42 680.88 223.66C680.32 223.94 679.62 224.1 678.78 224.14C678.02 224.18 676.98 224.18 675.66 224.14C674.34 224.14 672.96 224.1 671.52 224.02C671.48 223.62 671.38 223.14 671.22 222.58C671.1 222.06 670.92 221.6 670.68 221.2C672.24 221.32 673.68 221.4 675 221.44C676.36 221.48 677.32 221.5 677.88 221.5C678.4 221.5 678.82 221.44 679.14 221.32C679.46 221.2 679.76 220.96 680.04 220.6C680.44 220.12 680.78 219.16 681.06 217.72C681.38 216.28 681.66 214.2 681.9 211.48C682.14 208.72 682.36 205.18 682.56 200.86C682.76 196.5 682.96 191.2 683.16 184.96V184.24ZM670.14 170.56H673.02C672.98 175.08 672.9 179.52 672.78 183.88C672.7 188.24 672.42 192.42 671.94 196.42C671.5 200.38 670.76 204.12 669.72 207.64C668.68 211.12 667.22 214.3 665.34 217.18C663.5 220.06 661.12 222.56 658.2 224.68C658.04 224.48 657.82 224.24 657.54 223.96C657.26 223.72 656.98 223.48 656.7 223.24C656.42 223.04 656.14 222.86 655.86 222.7C658.74 220.74 661.08 218.38 662.88 215.62C664.68 212.86 666.08 209.8 667.08 206.44C668.08 203.04 668.78 199.42 669.18 195.58C669.62 191.7 669.88 187.66 669.96 183.46C670.08 179.22 670.14 174.92 670.14 170.56Z" fill="black"/>
<path d="M317.988 479.182C317.988 474.324 318.578 469.608 319.757 465.034C320.95 460.446 322.662 456.071 324.892 451.909H327.321C326.27 453.841 325.332 455.908 324.508 458.109C323.684 460.297 322.981 462.562 322.399 464.906C321.831 467.25 321.39 469.622 321.078 472.023C320.779 474.423 320.63 476.81 320.63 479.182C320.63 482.349 320.9 485.538 321.44 488.749C321.98 491.959 322.747 495.07 323.741 498.081C324.75 501.092 325.943 503.884 327.321 506.455H324.892C322.662 502.264 320.95 497.882 319.757 493.308C318.578 488.72 317.988 484.011 317.988 479.182ZM332.93 457.364H336.083L349.826 478.415H350.124L363.867 457.364H367.021L351.317 481.206V501H348.633V481.206L332.93 457.364ZM381.834 501.682C379.135 501.682 376.735 500.957 374.632 499.509C372.53 498.045 370.875 496.036 369.668 493.479C368.461 490.922 367.857 488.01 367.857 484.743C367.857 481.462 368.461 478.55 369.668 476.007C370.875 473.45 372.53 471.44 374.632 469.977C376.735 468.514 379.135 467.783 381.834 467.783C384.533 467.783 386.934 468.514 389.036 469.977C391.138 471.44 392.793 473.45 394 476.007C395.208 478.564 395.811 481.476 395.811 484.743C395.811 488.01 395.208 490.922 394 493.479C392.793 496.036 391.138 498.045 389.036 499.509C386.934 500.957 384.533 501.682 381.834 501.682ZM381.834 499.274C384.121 499.274 386.117 498.628 387.821 497.335C389.54 496.043 390.868 494.295 391.806 492.094C392.757 489.892 393.233 487.442 393.233 484.743C393.233 482.044 392.757 479.601 391.806 477.413C390.854 475.212 389.526 473.464 387.821 472.172C386.117 470.865 384.121 470.212 381.834 470.212C379.547 470.212 377.551 470.865 375.847 472.172C374.142 473.464 372.814 475.212 371.863 477.413C370.911 479.601 370.435 482.044 370.435 484.743C370.435 487.442 370.904 489.892 371.841 492.094C372.793 494.295 374.121 496.043 375.826 497.335C377.544 498.628 379.547 499.274 381.834 499.274ZM425.732 489.388V468.273H428.331V501H425.732V495.695H425.518C424.751 497.385 423.509 498.763 421.79 499.828C420.085 500.893 418.068 501.426 415.739 501.426C413.594 501.426 411.697 500.957 410.05 500.02C408.402 499.082 407.109 497.754 406.172 496.036C405.234 494.303 404.766 492.243 404.766 489.857V468.273H407.365V489.75C407.365 492.477 408.189 494.686 409.837 496.376C411.499 498.053 413.643 498.891 416.271 498.891C417.976 498.891 419.545 498.507 420.98 497.74C422.415 496.973 423.565 495.879 424.432 494.459C425.298 493.024 425.732 491.334 425.732 489.388ZM434.073 459.835V457.364H464.648V459.835H450.692V501H448.029V459.835H434.073ZM489.95 489.388V468.273H492.55V501H489.95V495.695H489.737C488.97 497.385 487.727 498.763 486.009 499.828C484.304 500.893 482.287 501.426 479.957 501.426C477.813 501.426 475.916 500.957 474.268 500.02C472.621 499.082 471.328 497.754 470.391 496.036C469.453 494.303 468.984 492.243 468.984 489.857V468.273H471.584V489.75C471.584 492.477 472.408 494.686 474.055 496.376C475.717 498.053 477.862 498.891 480.49 498.891C482.195 498.891 483.764 498.507 485.199 497.74C486.634 496.973 487.784 495.879 488.651 494.459C489.517 493.024 489.95 491.334 489.95 489.388ZM504.237 501V457.364H506.815V475.581H507.07C507.582 474.175 508.306 472.882 509.244 471.703C510.181 470.524 511.346 469.58 512.738 468.869C514.13 468.145 515.756 467.783 517.617 467.783C520.245 467.783 522.539 468.514 524.499 469.977C526.46 471.426 527.979 473.429 529.059 475.986C530.138 478.528 530.678 481.44 530.678 484.722C530.678 488.031 530.138 490.964 529.059 493.521C527.979 496.064 526.467 498.06 524.521 499.509C522.575 500.957 520.281 501.682 517.638 501.682C515.778 501.682 514.151 501.327 512.759 500.616C511.367 499.892 510.202 498.94 509.265 497.761C508.327 496.568 507.596 495.268 507.07 493.862H506.772V501H504.237ZM506.793 484.7C506.793 487.484 507.212 489.977 508.05 492.179C508.903 494.366 510.124 496.099 511.715 497.378C513.306 498.642 515.21 499.274 517.425 499.274C519.67 499.274 521.587 498.635 523.178 497.357C524.769 496.064 525.984 494.317 526.822 492.115C527.674 489.913 528.1 487.442 528.1 484.7C528.1 481.959 527.674 479.494 526.822 477.307C525.984 475.119 524.769 473.393 523.178 472.129C521.587 470.851 519.67 470.212 517.425 470.212C515.21 470.212 513.306 470.844 511.715 472.108C510.124 473.358 508.903 475.077 508.05 477.264C507.212 479.437 506.793 481.916 506.793 484.7ZM552.411 501.682C549.457 501.682 546.886 500.95 544.698 499.487C542.511 498.024 540.82 496.021 539.627 493.479C538.434 490.936 537.837 488.038 537.837 484.786C537.837 481.518 538.434 478.607 539.627 476.05C540.835 473.493 542.489 471.476 544.592 469.999C546.694 468.521 549.094 467.783 551.793 467.783C553.626 467.783 555.359 468.152 556.992 468.891C558.64 469.615 560.089 470.666 561.339 472.044C562.603 473.422 563.59 475.084 564.3 477.03C565.025 478.976 565.387 481.163 565.387 483.592V485.212H539.478V482.847H562.788C562.788 480.474 562.305 478.337 561.339 476.433C560.373 474.53 559.059 473.017 557.397 471.895C555.735 470.773 553.867 470.212 551.793 470.212C549.62 470.212 547.681 470.822 545.977 472.044C544.286 473.251 542.944 474.885 541.95 476.945C540.969 479.004 540.458 481.305 540.415 483.848V484.913C540.415 487.641 540.891 490.091 541.843 492.264C542.809 494.423 544.187 496.135 545.977 497.399C547.766 498.649 549.911 499.274 552.411 499.274C554.201 499.274 555.728 498.976 556.992 498.379C558.271 497.768 559.315 497.03 560.124 496.163C560.934 495.297 561.545 494.459 561.957 493.649L564.322 494.608C563.825 495.702 563.05 496.795 561.999 497.889C560.962 498.969 559.641 499.871 558.036 500.595C556.445 501.32 554.57 501.682 552.411 501.682ZM582.006 482.591C582.006 487.449 581.41 492.172 580.217 496.76C579.038 501.334 577.333 505.702 575.103 509.864H572.674C573.725 507.932 574.663 505.865 575.487 503.663C576.31 501.476 577.006 499.21 577.575 496.866C578.157 494.523 578.597 492.151 578.896 489.75C579.208 487.349 579.364 484.963 579.364 482.591C579.364 479.423 579.094 476.234 578.555 473.024C578.015 469.814 577.248 466.703 576.254 463.692C575.259 460.68 574.066 457.889 572.674 455.318H575.103C577.333 459.509 579.038 463.898 580.217 468.486C581.41 473.06 582.006 477.761 582.006 482.591Z" fill="black"/>
</svg>
