<svg width="900" height="600" viewBox="0 0 900 600" fill="none" xmlns="http://www.w3.org/2000/svg">
<rect width="900" height="600" fill="white" fill-opacity="0.7"/>
<path d="M224.28 179.38H240V182.14H224.28V179.38ZM251.16 169.96H254.04V224.32H251.16V169.96ZM217.8 192.88L219.42 190.84C221.22 191.8 223.06 192.92 224.94 194.2C226.82 195.44 228.58 196.7 230.22 197.98C231.9 199.22 233.24 200.38 234.24 201.46L232.5 203.74C231.5 202.7 230.18 201.52 228.54 200.2C226.94 198.88 225.2 197.58 223.32 196.3C221.44 195.02 219.6 193.88 217.8 192.88ZM226.62 169.9L229.56 170.5C228.52 174.34 227.24 178 225.72 181.48C224.2 184.92 222.5 188.1 220.62 191.02C218.78 193.94 216.74 196.52 214.5 198.76C214.34 198.56 214.1 198.36 213.78 198.16C213.46 197.92 213.14 197.68 212.82 197.44C212.5 197.2 212.22 197.02 211.98 196.9C214.22 194.78 216.26 192.32 218.1 189.52C219.98 186.72 221.62 183.66 223.02 180.34C224.46 176.98 225.66 173.5 226.62 169.9ZM243.48 183.94C244.84 186.42 246.46 188.84 248.34 191.2C250.26 193.56 252.34 195.8 254.58 197.92C256.86 200.04 259.2 201.96 261.6 203.68C264.04 205.36 266.48 206.74 268.92 207.82C268.68 208.02 268.42 208.26 268.14 208.54C267.9 208.78 267.66 209.06 267.42 209.38C267.22 209.66 267.04 209.92 266.88 210.16C264.44 208.96 262 207.46 259.56 205.66C257.12 203.82 254.76 201.8 252.48 199.6C250.2 197.36 248.08 195 246.12 192.52C244.2 190.04 242.54 187.52 241.14 184.96L243.48 183.94ZM239.1 179.38H239.64L240.24 179.26L242.1 179.92C240.9 187.72 239.02 194.5 236.46 200.26C233.9 206.02 230.82 210.86 227.22 214.78C223.66 218.7 219.74 221.86 215.46 224.26C215.3 224.02 215.08 223.76 214.8 223.48C214.52 223.2 214.24 222.92 213.96 222.64C213.68 222.4 213.42 222.22 213.18 222.1C217.46 219.82 221.34 216.8 224.82 213.04C228.34 209.28 231.32 204.68 233.76 199.24C236.24 193.8 238.02 187.42 239.1 180.1V179.38ZM306.66 173.56H324.96V176.32H309.48V224.5H306.66V173.56ZM274.44 177.1H302.94V179.8H274.44V177.1ZM272.76 193.6H303.78V196.36H272.76V193.6ZM287.1 170.02H289.98V178.66H287.1V170.02ZM278.34 182.14L280.86 181.6C281.54 183.16 282.16 184.9 282.72 186.82C283.32 188.74 283.7 190.38 283.86 191.74L281.16 192.4C281.04 191 280.7 189.34 280.14 187.42C279.62 185.5 279.02 183.74 278.34 182.14ZM296.22 181.06L299.1 181.84C298.46 183.64 297.76 185.54 297 187.54C296.24 189.54 295.5 191.26 294.78 192.7L292.38 191.92C292.82 190.96 293.28 189.84 293.76 188.56C294.24 187.28 294.7 185.98 295.14 184.66C295.58 183.3 295.94 182.1 296.22 181.06ZM278.22 217.96H298.68V220.72H278.22V217.96ZM277.14 202.36H300.06V224.14H297.24V205H279.9V224.5H277.14V202.36ZM324.18 173.56H324.78L325.26 173.44L327.36 174.82C326.08 177.62 324.64 180.66 323.04 183.94C321.44 187.18 319.86 190.22 318.3 193.06C320.58 194.98 322.32 196.82 323.52 198.58C324.76 200.3 325.62 201.94 326.1 203.5C326.58 205.06 326.82 206.58 326.82 208.06C326.82 209.66 326.6 211.12 326.16 212.44C325.76 213.72 325.06 214.7 324.06 215.38C323.06 215.94 321.8 216.32 320.28 216.52C319.48 216.6 318.58 216.64 317.58 216.64C316.62 216.64 315.68 216.62 314.76 216.58C314.72 216.14 314.62 215.66 314.46 215.14C314.3 214.58 314.08 214.08 313.8 213.64C314.84 213.76 315.84 213.84 316.8 213.88C317.76 213.88 318.58 213.86 319.26 213.82C319.82 213.74 320.32 213.64 320.76 213.52C321.24 213.4 321.68 213.24 322.08 213.04C322.8 212.56 323.3 211.86 323.58 210.94C323.86 210.02 324 208.98 324 207.82C323.96 205.82 323.32 203.64 322.08 201.28C320.84 198.92 318.52 196.34 315.12 193.54C316 191.94 316.86 190.28 317.7 188.56C318.54 186.84 319.36 185.14 320.16 183.46C320.96 181.78 321.7 180.16 322.38 178.6C323.06 177.04 323.66 175.64 324.18 174.4V173.56ZM372.24 191.8C372.24 195.96 371.98 199.62 371.46 202.78C370.98 205.9 370.12 208.64 368.88 211C367.68 213.32 366 215.38 363.84 217.18C361.68 218.98 358.94 220.64 355.62 222.16L353.04 219.7C355.64 218.62 357.94 217.42 359.94 216.1C361.98 214.78 363.68 213.12 365.04 211.12C366.4 209.12 367.42 206.6 368.1 203.56C368.82 200.52 369.18 196.76 369.18 192.28V178.48C369.18 177.32 369.14 176.32 369.06 175.48C368.98 174.6 368.94 174.1 368.94 173.98H372.48C372.48 174.1 372.44 174.6 372.36 175.48C372.28 176.32 372.24 177.32 372.24 178.48V191.8ZM350.64 174.28C350.64 174.36 350.6 174.76 350.52 175.48C350.44 176.2 350.4 177.02 350.4 177.94V200.26C350.4 200.9 350.42 201.6 350.46 202.36C350.5 203.08 350.54 203.72 350.58 204.28C350.62 204.8 350.64 205.1 350.64 205.18H347.16C347.16 205.1 347.18 204.8 347.22 204.28C347.26 203.76 347.3 203.14 347.34 202.42C347.38 201.66 347.4 200.94 347.4 200.26V178C347.4 177.48 347.38 176.86 347.34 176.14C347.3 175.42 347.24 174.8 347.16 174.28H350.64ZM334.38 186.4C334.46 186.4 334.8 186.44 335.4 186.52C336.04 186.56 336.8 186.6 337.68 186.64C338.56 186.68 339.36 186.7 340.08 186.7H380.1C381.26 186.7 382.3 186.66 383.22 186.58C384.18 186.5 384.74 186.44 384.9 186.4V189.82C384.78 189.82 384.24 189.8 383.28 189.76C382.32 189.68 381.26 189.64 380.1 189.64H340.08C339.32 189.64 338.5 189.66 337.62 189.7C336.78 189.74 336.04 189.78 335.4 189.82C334.8 189.82 334.46 189.82 334.38 189.82V186.4ZM396 199.3C401.08 197.9 405.88 196.16 410.4 194.08C414.96 192 418.88 189.94 422.16 187.9C424.32 186.54 426.34 185.12 428.22 183.64C430.14 182.16 431.94 180.62 433.62 179.02C435.34 177.38 436.92 175.7 438.36 173.98L440.88 176.32C439.24 178.08 437.5 179.78 435.66 181.42C433.86 183.06 431.92 184.66 429.84 186.22C427.76 187.74 425.56 189.24 423.24 190.72C421.08 192.08 418.62 193.46 415.86 194.86C413.14 196.22 410.22 197.54 407.1 198.82C404.02 200.06 400.86 201.2 397.62 202.24L396 199.3ZM421.38 189.52L424.56 188.26V215.86C424.56 216.5 424.58 217.2 424.62 217.96C424.66 218.68 424.7 219.34 424.74 219.94C424.78 220.54 424.82 221.02 424.86 221.38H421.14C421.18 221.02 421.22 220.54 421.26 219.94C421.3 219.34 421.32 218.68 421.32 217.96C421.36 217.2 421.38 216.5 421.38 215.86V189.52ZM471.06 214.96C471.06 214.52 471.06 213.48 471.06 211.84C471.06 210.2 471.06 208.2 471.06 205.84C471.06 203.44 471.06 200.92 471.06 198.28C471.06 195.64 471.06 193.08 471.06 190.6C471.06 188.08 471.06 185.88 471.06 184C471.06 182.08 471.06 180.7 471.06 179.86C471.06 179.1 471.02 178.18 470.94 177.1C470.9 175.98 470.8 175 470.64 174.16H474.48C474.4 174.96 474.32 175.94 474.24 177.1C474.16 178.22 474.12 179.14 474.12 179.86C474.12 181.66 474.12 183.74 474.12 186.1C474.12 188.42 474.12 190.84 474.12 193.36C474.12 195.88 474.12 198.36 474.12 200.8C474.16 203.2 474.18 205.42 474.18 207.46C474.18 209.46 474.18 211.14 474.18 212.5C474.18 213.82 474.18 214.64 474.18 214.96C474.18 215.64 474.18 216.36 474.18 217.12C474.22 217.88 474.26 218.64 474.3 219.4C474.34 220.12 474.4 220.76 474.48 221.32H470.76C470.88 220.48 470.96 219.48 471 218.32C471.04 217.16 471.06 216.04 471.06 214.96ZM473.52 190.06C475.48 190.62 477.62 191.32 479.94 192.16C482.3 192.96 484.68 193.84 487.08 194.8C489.52 195.72 491.86 196.66 494.1 197.62C496.34 198.58 498.34 199.5 500.1 200.38L498.78 203.56C497.06 202.64 495.08 201.68 492.84 200.68C490.64 199.68 488.36 198.72 486 197.8C483.64 196.84 481.38 196 479.22 195.28C477.06 194.52 475.16 193.88 473.52 193.36V190.06ZM537.66 180.34C539.18 180.62 541 180.84 543.12 181C545.24 181.12 547.44 181.18 549.72 181.18C552.04 181.14 554.24 181.06 556.32 180.94C558.44 180.78 560.2 180.58 561.6 180.34V183.52C560.16 183.68 558.38 183.82 556.26 183.94C554.18 184.02 551.98 184.06 549.66 184.06C547.38 184.06 545.18 184.02 543.06 183.94C540.94 183.82 539.14 183.68 537.66 183.52V180.34ZM538.5 204.1C538.22 205.22 538 206.26 537.84 207.22C537.68 208.14 537.6 209.02 537.6 209.86C537.6 210.58 537.74 211.3 538.02 212.02C538.3 212.7 538.82 213.34 539.58 213.94C540.38 214.54 541.5 215.02 542.94 215.38C544.42 215.74 546.34 215.92 548.7 215.92C551.42 215.92 553.98 215.8 556.38 215.56C558.82 215.28 561.18 214.88 563.46 214.36L563.52 217.6C561.72 218 559.56 218.32 557.04 218.56C554.56 218.8 551.84 218.92 548.88 218.92C543.92 218.92 540.32 218.16 538.08 216.64C535.88 215.12 534.78 213.04 534.78 210.4C534.78 209.52 534.86 208.56 535.02 207.52C535.18 206.44 535.4 205.2 535.68 203.8L538.5 204.1ZM524.94 175.36C524.82 175.64 524.7 175.98 524.58 176.38C524.5 176.74 524.4 177.12 524.28 177.52C524.2 177.88 524.12 178.24 524.04 178.6C523.8 179.88 523.52 181.3 523.2 182.86C522.92 184.38 522.64 185.98 522.36 187.66C522.12 189.3 521.9 190.96 521.7 192.64C521.5 194.32 521.34 195.98 521.22 197.62C521.1 199.22 521.04 200.74 521.04 202.18C521.04 204.18 521.08 206.02 521.16 207.7C521.28 209.38 521.48 211.22 521.76 213.22C522.12 212.18 522.52 211.04 522.96 209.8C523.44 208.56 523.9 207.32 524.34 206.08C524.82 204.84 525.24 203.78 525.6 202.9L527.4 204.28C526.92 205.52 526.38 206.96 525.78 208.6C525.18 210.24 524.64 211.82 524.16 213.34C523.68 214.86 523.36 216.06 523.2 216.94C523.12 217.38 523.04 217.84 522.96 218.32C522.88 218.8 522.86 219.22 522.9 219.58C522.94 219.86 522.98 220.18 523.02 220.54C523.06 220.9 523.1 221.2 523.14 221.44L520.38 221.68C519.78 219.48 519.26 216.76 518.82 213.52C518.42 210.24 518.22 206.58 518.22 202.54C518.22 200.34 518.32 198.1 518.52 195.82C518.76 193.54 519.04 191.32 519.36 189.16C519.68 186.96 520 184.94 520.32 183.1C520.64 181.22 520.88 179.64 521.04 178.36C521.16 177.72 521.24 177.14 521.28 176.62C521.36 176.06 521.4 175.54 521.4 175.06L524.94 175.36ZM609.3 169.9L612.3 170.5C610.66 173.18 608.48 175.9 605.76 178.66C603.04 181.38 599.72 183.82 595.8 185.98C595.68 185.74 595.5 185.5 595.26 185.26C595.02 185.02 594.76 184.8 594.48 184.6C594.24 184.36 594 184.16 593.76 184C597.52 182.08 600.7 179.84 603.3 177.28C605.94 174.68 607.94 172.22 609.3 169.9ZM607.02 175.12H622.02V177.7H605.16L607.02 175.12ZM621.12 175.12H621.66L622.26 175L624.06 175.96C622.86 179.08 621.28 181.9 619.32 184.42C617.4 186.9 615.18 189.08 612.66 190.96C610.14 192.84 607.46 194.44 604.62 195.76C601.82 197.08 598.96 198.18 596.04 199.06C595.92 198.7 595.7 198.28 595.38 197.8C595.06 197.28 594.76 196.9 594.48 196.66C597.24 195.94 599.98 194.96 602.7 193.72C605.42 192.48 607.98 191 610.38 189.28C612.78 187.56 614.9 185.58 616.74 183.34C618.62 181.06 620.08 178.52 621.12 175.72V175.12ZM601.08 181.96L603 180.34C604.24 181.06 605.5 181.88 606.78 182.8C608.1 183.72 609.3 184.66 610.38 185.62C611.5 186.54 612.4 187.4 613.08 188.2L611.16 190C610.48 189.2 609.58 188.32 608.46 187.36C607.34 186.4 606.12 185.44 604.8 184.48C603.52 183.52 602.28 182.68 601.08 181.96ZM612.66 192.04L615.72 192.58C613.84 195.7 611.24 198.8 607.92 201.88C604.64 204.96 600.6 207.7 595.8 210.1C595.68 209.86 595.5 209.62 595.26 209.38C595.02 209.1 594.78 208.84 594.54 208.6C594.3 208.36 594.06 208.18 593.82 208.06C596.9 206.62 599.66 205 602.1 203.2C604.54 201.4 606.64 199.54 608.4 197.62C610.2 195.7 611.62 193.84 612.66 192.04ZM609.84 198.04H625.08V200.62H607.98L609.84 198.04ZM624.36 198.04H624.96L625.56 197.86L627.42 198.76C626.1 202.52 624.32 205.82 622.08 208.66C619.84 211.5 617.26 213.94 614.34 215.98C611.42 218.02 608.28 219.72 604.92 221.08C601.6 222.48 598.18 223.58 594.66 224.38C594.54 224.02 594.32 223.58 594 223.06C593.72 222.58 593.42 222.18 593.1 221.86C596.5 221.22 599.8 220.28 603 219.04C606.24 217.76 609.26 216.16 612.06 214.24C614.86 212.32 617.32 210.06 619.44 207.46C621.56 204.86 623.2 201.9 624.36 198.58V198.04ZM602.22 205.84L604.26 204.1C605.7 204.86 607.16 205.76 608.64 206.8C610.12 207.84 611.5 208.9 612.78 209.98C614.06 211.02 615.1 212 615.9 212.92L613.8 214.78C613 213.9 611.98 212.92 610.74 211.84C609.5 210.76 608.14 209.7 606.66 208.66C605.18 207.58 603.7 206.64 602.22 205.84ZM583.74 174.52H586.56V224.26H583.74V174.52ZM573.24 186.88H594.84V189.64H573.24V186.88ZM583.86 187.84L585.84 188.68C585.24 190.76 584.48 192.94 583.56 195.22C582.64 197.46 581.64 199.68 580.56 201.88C579.48 204.04 578.36 206.06 577.2 207.94C576.04 209.82 574.88 211.42 573.72 212.74C573.56 212.38 573.3 211.96 572.94 211.48C572.58 210.96 572.26 210.56 571.98 210.28C573.1 209.08 574.22 207.62 575.34 205.9C576.5 204.14 577.62 202.26 578.7 200.26C579.78 198.22 580.76 196.14 581.64 194.02C582.52 191.86 583.26 189.8 583.86 187.84ZM592.38 170.92L594.54 173.2C592.82 173.88 590.8 174.54 588.48 175.18C586.16 175.78 583.74 176.32 581.22 176.8C578.74 177.28 576.34 177.7 574.02 178.06C573.94 177.74 573.8 177.36 573.6 176.92C573.44 176.48 573.26 176.1 573.06 175.78C575.34 175.38 577.68 174.94 580.08 174.46C582.52 173.98 584.82 173.44 586.98 172.84C589.14 172.24 590.94 171.6 592.38 170.92ZM586.38 194.2C586.78 194.56 587.38 195.14 588.18 195.94C588.98 196.74 589.84 197.62 590.76 198.58C591.72 199.5 592.58 200.38 593.34 201.22C594.14 202.02 594.7 202.62 595.02 203.02L593.16 205.3C592.8 204.78 592.26 204.06 591.54 203.14C590.82 202.22 590.02 201.26 589.14 200.26C588.3 199.26 587.5 198.32 586.74 197.44C585.98 196.56 585.36 195.9 584.88 195.46L586.38 194.2ZM634.56 209.32H661.5V211.84H634.56V209.32ZM632.76 180.22H662.7V182.74H632.76V180.22ZM646.44 174.1H649.2V218.86H646.44V174.1ZM632.88 219.46C635.32 219.22 638.1 218.94 641.22 218.62C644.38 218.3 647.72 217.94 651.24 217.54C654.8 217.1 658.36 216.68 661.92 216.28L661.98 218.68C658.58 219.08 655.16 219.5 651.72 219.94C648.28 220.38 644.98 220.78 641.82 221.14C638.7 221.54 635.9 221.88 633.42 222.16L632.88 219.46ZM637.2 197.2V202.6H658.86V197.2H637.2ZM637.2 189.64V194.92H658.86V189.64H637.2ZM634.68 187.36H661.44V204.94H634.68V187.36ZM659.76 170.68L661.44 173.02C659.2 173.5 656.54 173.96 653.46 174.4C650.42 174.8 647.24 175.14 643.92 175.42C640.6 175.66 637.44 175.86 634.44 176.02C634.4 175.66 634.3 175.26 634.14 174.82C633.98 174.38 633.82 174 633.66 173.68C635.9 173.56 638.22 173.4 640.62 173.2C643.02 173 645.4 172.78 647.76 172.54C650.16 172.3 652.38 172.02 654.42 171.7C656.5 171.38 658.28 171.04 659.76 170.68ZM661.98 184.24H684.18V187H661.98V184.24ZM683.16 184.24H685.92C685.92 184.24 685.92 184.36 685.92 184.6C685.92 184.8 685.92 185.04 685.92 185.32C685.92 185.56 685.92 185.76 685.92 185.92C685.72 192.36 685.52 197.78 685.32 202.18C685.16 206.54 684.94 210.1 684.66 212.86C684.42 215.58 684.12 217.68 683.76 219.16C683.44 220.64 683.02 221.7 682.5 222.34C682.02 222.98 681.48 223.42 680.88 223.66C680.32 223.94 679.62 224.1 678.78 224.14C678.02 224.18 676.98 224.18 675.66 224.14C674.34 224.14 672.96 224.1 671.52 224.02C671.48 223.62 671.38 223.14 671.22 222.58C671.1 222.06 670.92 221.6 670.68 221.2C672.24 221.32 673.68 221.4 675 221.44C676.36 221.48 677.32 221.5 677.88 221.5C678.4 221.5 678.82 221.44 679.14 221.32C679.46 221.2 679.76 220.96 680.04 220.6C680.44 220.12 680.78 219.16 681.06 217.72C681.38 216.28 681.66 214.2 681.9 211.48C682.14 208.72 682.36 205.18 682.56 200.86C682.76 196.5 682.96 191.2 683.16 184.96V184.24ZM670.14 170.56H673.02C672.98 175.08 672.9 179.52 672.78 183.88C672.7 188.24 672.42 192.42 671.94 196.42C671.5 200.38 670.76 204.12 669.72 207.64C668.68 211.12 667.22 214.3 665.34 217.18C663.5 220.06 661.12 222.56 658.2 224.68C658.04 224.48 657.82 224.24 657.54 223.96C657.26 223.72 656.98 223.48 656.7 223.24C656.42 223.04 656.14 222.86 655.86 222.7C658.74 220.74 661.08 218.38 662.88 215.62C664.68 212.86 666.08 209.8 667.08 206.44C668.08 203.04 668.78 199.42 669.18 195.58C669.62 191.7 669.88 187.66 669.96 183.46C670.08 179.22 670.14 174.92 670.14 170.56Z" fill="black"/>
<path d="M369.143 463.182C369.143 458.324 369.732 453.608 370.911 449.034C372.104 444.446 373.816 440.071 376.046 435.909H378.475C377.424 437.841 376.486 439.908 375.662 442.109C374.839 444.297 374.135 446.562 373.553 448.906C372.985 451.25 372.545 453.622 372.232 456.023C371.934 458.423 371.785 460.81 371.785 463.182C371.785 466.349 372.055 469.538 372.594 472.749C373.134 475.959 373.901 479.07 374.895 482.081C375.904 485.092 377.097 487.884 378.475 490.455H376.046C373.816 486.264 372.104 481.882 370.911 477.308C369.732 472.72 369.143 468.011 369.143 463.182ZM421.861 441.364V485H419.262L391.435 446.2H391.179V485H388.516V441.364H391.137L418.963 480.206H419.219V441.364H421.861ZM445.703 485.682C443.004 485.682 440.604 484.957 438.502 483.509C436.399 482.045 434.744 480.036 433.537 477.479C432.33 474.922 431.726 472.01 431.726 468.743C431.726 465.462 432.33 462.55 433.537 460.007C434.744 457.45 436.399 455.44 438.502 453.977C440.604 452.514 443.004 451.783 445.703 451.783C448.402 451.783 450.803 452.514 452.905 453.977C455.007 455.44 456.662 457.45 457.869 460.007C459.077 462.564 459.681 465.476 459.681 468.743C459.681 472.01 459.077 474.922 457.869 477.479C456.662 480.036 455.007 482.045 452.905 483.509C450.803 484.957 448.402 485.682 445.703 485.682ZM445.703 483.274C447.99 483.274 449.986 482.628 451.691 481.335C453.409 480.043 454.737 478.295 455.675 476.094C456.627 473.892 457.102 471.442 457.102 468.743C457.102 466.044 456.627 463.601 455.675 461.413C454.723 459.212 453.395 457.464 451.691 456.172C449.986 454.865 447.99 454.212 445.703 454.212C443.416 454.212 441.421 454.865 439.716 456.172C438.012 457.464 436.683 459.212 435.732 461.413C434.78 463.601 434.304 466.044 434.304 468.743C434.304 471.442 434.773 473.892 435.71 476.094C436.662 478.295 437.99 480.043 439.695 481.335C441.414 482.628 443.416 483.274 445.703 483.274ZM480.204 452.273V454.595H465.907V452.273H480.204ZM470.744 444.432H473.322V477.266C473.322 478.601 473.578 479.695 474.089 480.547C474.615 481.385 475.297 482.01 476.135 482.422C476.987 482.82 477.896 483.018 478.862 483.018C479.331 483.018 479.736 482.983 480.077 482.912C480.432 482.841 480.765 482.749 481.078 482.635L481.717 485C481.319 485.142 480.879 485.263 480.396 485.362C479.913 485.476 479.345 485.533 478.692 485.533C477.328 485.533 476.035 485.227 474.814 484.616C473.606 484.006 472.626 483.118 471.873 481.953C471.121 480.788 470.744 479.382 470.744 477.734V444.432ZM502.257 485.682C499.302 485.682 496.731 484.95 494.544 483.487C492.356 482.024 490.666 480.021 489.473 477.479C488.28 474.936 487.683 472.038 487.683 468.786C487.683 465.518 488.28 462.607 489.473 460.05C490.68 457.493 492.335 455.476 494.437 453.999C496.54 452.521 498.94 451.783 501.639 451.783C503.471 451.783 505.204 452.152 506.838 452.891C508.486 453.615 509.934 454.666 511.184 456.044C512.449 457.422 513.436 459.084 514.146 461.03C514.871 462.976 515.233 465.163 515.233 467.592V469.212H489.324V466.847H512.633C512.633 464.474 512.15 462.337 511.184 460.433C510.219 458.53 508.905 457.017 507.243 455.895C505.581 454.773 503.713 454.212 501.639 454.212C499.466 454.212 497.527 454.822 495.822 456.044C494.132 457.251 492.79 458.885 491.795 460.945C490.815 463.004 490.304 465.305 490.261 467.848V468.913C490.261 471.641 490.737 474.091 491.689 476.264C492.655 478.423 494.032 480.135 495.822 481.399C497.612 482.649 499.757 483.274 502.257 483.274C504.047 483.274 505.574 482.976 506.838 482.379C508.116 481.768 509.16 481.03 509.97 480.163C510.78 479.297 511.39 478.459 511.802 477.649L514.167 478.608C513.67 479.702 512.896 480.795 511.845 481.889C510.808 482.969 509.487 483.871 507.882 484.595C506.291 485.32 504.416 485.682 502.257 485.682ZM531.852 466.591C531.852 471.449 531.256 476.172 530.062 480.76C528.883 485.334 527.179 489.702 524.949 493.864H522.52C523.571 491.932 524.508 489.865 525.332 487.663C526.156 485.476 526.852 483.21 527.42 480.866C528.003 478.523 528.443 476.151 528.741 473.75C529.054 471.349 529.21 468.963 529.21 466.591C529.21 463.423 528.94 460.234 528.4 457.024C527.861 453.814 527.094 450.703 526.099 447.692C525.105 444.68 523.912 441.889 522.52 439.318H524.949C527.179 443.509 528.883 447.898 530.062 452.486C531.256 457.06 531.852 461.761 531.852 466.591Z" fill="black"/>
</svg>
