<svg width="1807" height="654" viewBox="0 0 1807 654" fill="none" xmlns="http://www.w3.org/2000/svg">
<path d="M322.91 327.527C322.441 327.059 322.207 326.18 322.207 324.891C322.207 323.25 322.441 322.43 322.91 322.43C323.965 322.43 325.371 322.312 327.129 322.078C328.887 321.727 330.527 321.258 332.051 320.672C333.574 320.086 334.453 319.5 334.688 318.914C335.156 317.273 335.449 315.164 335.566 312.586C335.801 310.008 335.918 306.902 335.918 303.27V235.066C335.918 231.434 335.801 228.328 335.566 225.75C335.449 223.055 335.156 220.945 334.688 219.422C334.453 218.719 333.574 218.133 332.051 217.664C330.527 217.078 328.887 216.609 327.129 216.258C325.371 215.906 323.965 215.73 322.91 215.73C322.441 215.73 322.207 214.969 322.207 213.445C322.207 212.039 322.441 211.102 322.91 210.633C323.965 210.633 325.723 210.75 328.184 210.984C330.762 211.102 333.516 211.277 336.445 211.512C339.375 211.629 341.895 211.688 344.004 211.688C347.754 211.688 351.504 211.57 355.254 211.336C359.004 210.984 362.051 210.75 364.395 210.633C364.629 211.102 364.688 212.098 364.57 213.621C364.57 215.027 364.395 215.73 364.043 215.73C363.34 215.73 362.109 215.965 360.352 216.434C358.594 216.785 356.953 217.254 355.43 217.84C353.906 218.309 353.027 218.836 352.793 219.422C351.738 223.406 351.211 228.855 351.211 235.77V264.422L352.441 265.477H353.672C357.422 265.477 360.82 263.777 363.867 260.379C370.781 252.762 376.699 245.965 381.621 239.988C386.66 234.012 390.82 228.914 394.102 224.695C396.914 221.297 398.32 219.07 398.32 218.016C398.32 216.023 394.98 215.027 388.301 215.027C387.832 215.027 387.598 214.5 387.598 213.445C387.598 212.859 387.598 212.391 387.598 212.039C387.715 211.57 387.832 211.102 387.949 210.633C391.348 210.867 394.746 211.102 398.145 211.336C401.543 211.57 404.414 211.688 406.758 211.688C408.75 211.688 410.918 211.629 413.262 211.512C415.723 211.277 417.949 211.102 419.941 210.984C422.051 210.75 423.574 210.633 424.512 210.633C424.746 211.102 424.805 211.98 424.688 213.27C424.688 214.441 424.512 215.027 424.16 215.027C417.129 215.848 411.738 218.309 407.988 222.41L372.656 263.543C371.719 264.598 372.129 266.18 373.887 268.289L416.25 314.871C418.594 317.332 421.582 319.207 425.215 320.496C428.848 321.785 432.07 322.43 434.883 322.43C435.469 322.43 435.762 323.484 435.762 325.594C435.762 326.18 435.645 326.824 435.41 327.527C429.551 327.293 424.805 327.117 421.172 327C417.539 326.766 415.02 326.648 413.613 326.648C408.691 326.648 404.238 326.766 400.254 327C396.387 327.117 392.93 327.293 389.883 327.527C389.414 327.059 389.18 326.062 389.18 324.539C389.18 323.133 389.414 322.43 389.883 322.43C391.289 322.43 392.871 322.195 394.629 321.727C396.504 321.258 397.441 320.555 397.441 319.617C397.441 315.867 384.141 300.34 357.539 273.035C357.07 272.566 355.371 272.332 352.441 272.332C351.621 272.332 351.211 272.801 351.211 273.738V302.566C351.211 309.363 351.738 314.812 352.793 318.914C353.027 319.383 353.906 319.91 355.43 320.496C356.953 321.082 358.594 321.551 360.352 321.902C362.109 322.254 363.34 322.43 364.043 322.43C364.395 322.43 364.57 323.133 364.57 324.539C364.688 325.945 364.629 326.941 364.395 327.527C358.535 327.293 353.906 327.117 350.508 327C347.109 326.766 344.941 326.648 344.004 326.648L322.91 327.527ZM478.828 328.055C472.383 328.055 466.465 326.355 461.074 322.957C455.684 319.559 451.348 315.047 448.066 309.422C444.902 303.68 443.32 297.293 443.32 290.262C443.32 282.059 444.844 274.969 447.891 268.992C450.938 263.016 455.098 258.445 460.371 255.281C465.645 252 471.562 250.359 478.125 250.359C483.516 250.359 488.262 251.414 492.363 253.523C496.465 255.516 499.629 258.094 501.855 261.258C503.965 264.539 505.488 267.879 506.426 271.277C507.48 274.559 508.008 277.84 508.008 281.121C508.008 283.465 507.656 284.93 506.953 285.516C506.25 285.984 504.902 286.219 502.91 286.219H458.613C457.676 286.219 457.207 286.512 457.207 287.098C457.207 292.02 458.203 296.766 460.195 301.336C462.188 305.789 465.117 309.48 468.984 312.41C472.852 315.34 477.598 316.805 483.223 316.805C488.145 316.805 492.246 316.102 495.527 314.695C498.926 313.172 501.387 311.824 502.91 310.652L504.141 309.773C504.844 309.773 505.195 310.535 505.195 312.059C505.195 312.879 504.844 313.934 504.141 315.223C501.797 318.504 498.34 321.492 493.77 324.188C489.199 326.766 484.219 328.055 478.828 328.055ZM458.613 278.836H492.891C493.477 278.836 493.77 278.25 493.77 277.078C493.77 274.5 493.066 271.688 491.66 268.641C490.371 265.477 488.379 262.723 485.684 260.379C482.988 258.035 479.59 256.863 475.488 256.863C471.738 256.863 468.516 258.152 465.82 260.73C463.125 263.191 461.074 266.062 459.668 269.344C458.262 272.508 457.559 275.262 457.559 277.605C457.559 278.426 457.91 278.836 458.613 278.836ZM554.414 328.055C547.969 328.055 542.051 326.355 536.66 322.957C531.27 319.559 526.934 315.047 523.652 309.422C520.488 303.68 518.906 297.293 518.906 290.262C518.906 282.059 520.43 274.969 523.477 268.992C526.523 263.016 530.684 258.445 535.957 255.281C541.23 252 547.148 250.359 553.711 250.359C559.102 250.359 563.848 251.414 567.949 253.523C572.051 255.516 575.215 258.094 577.441 261.258C579.551 264.539 581.074 267.879 582.012 271.277C583.066 274.559 583.594 277.84 583.594 281.121C583.594 283.465 583.242 284.93 582.539 285.516C581.836 285.984 580.488 286.219 578.496 286.219H534.199C533.262 286.219 532.793 286.512 532.793 287.098C532.793 292.02 533.789 296.766 535.781 301.336C537.773 305.789 540.703 309.48 544.57 312.41C548.438 315.34 553.184 316.805 558.809 316.805C563.73 316.805 567.832 316.102 571.113 314.695C574.512 313.172 576.973 311.824 578.496 310.652L579.727 309.773C580.43 309.773 580.781 310.535 580.781 312.059C580.781 312.879 580.43 313.934 579.727 315.223C577.383 318.504 573.926 321.492 569.355 324.188C564.785 326.766 559.805 328.055 554.414 328.055ZM534.199 278.836H568.477C569.062 278.836 569.355 278.25 569.355 277.078C569.355 274.5 568.652 271.688 567.246 268.641C565.957 265.477 563.965 262.723 561.27 260.379C558.574 258.035 555.176 256.863 551.074 256.863C547.324 256.863 544.102 258.152 541.406 260.73C538.711 263.191 536.66 266.062 535.254 269.344C533.848 272.508 533.145 275.262 533.145 277.605C533.145 278.426 533.496 278.836 534.199 278.836ZM591.152 327.527C590.684 327.059 590.449 326.062 590.449 324.539C590.449 323.133 590.684 322.43 591.152 322.43C592.09 322.43 593.379 322.254 595.02 321.902C596.66 321.551 598.184 321.082 599.59 320.496C600.996 319.91 601.758 319.383 601.875 318.914C602.344 317.273 602.637 315.398 602.754 313.289C602.988 311.18 603.105 308.953 603.105 306.609V230.496C603.105 226.512 602.754 222.762 602.051 219.246C601.582 217.371 598.594 216.434 593.086 216.434H591.504C590.801 216.434 590.449 215.789 590.449 214.5C590.449 212.625 590.801 211.688 591.504 211.688C597.48 211.102 602.52 210.164 606.621 208.875C610.723 207.469 613.535 206.355 615.059 205.535L615.938 205.008H616.289C616.758 205.008 617.227 205.359 617.695 206.062C618.164 206.648 618.457 207.234 618.574 207.82C617.285 211.688 616.641 216.785 616.641 223.113V284.637C618.984 284.168 620.449 283.641 621.035 283.055L629.121 276.199L635.449 270.926C637.441 269.285 639.141 267.762 640.547 266.355C642.07 264.949 642.832 263.66 642.832 262.488C642.832 260.965 641.543 260.145 638.965 260.027C636.621 259.91 635.273 259.676 634.922 259.324C633.984 256.98 634.043 255.633 635.098 255.281H648.984C653.086 255.281 656.426 255.164 659.004 254.93C661.582 254.695 664.688 254.52 668.32 254.402C669.023 254.52 669.316 255.398 669.199 257.039C669.082 258.562 668.73 259.324 668.145 259.324C667.207 259.324 665.859 259.5 664.102 259.852C662.461 260.203 660.879 260.613 659.355 261.082C657.832 261.434 656.719 261.844 656.016 262.312C654.727 263.016 652.5 264.539 649.336 266.883C646.289 269.227 643.008 271.922 639.492 274.969C635.977 277.898 632.812 280.77 630 283.582C639.023 293.191 646.055 300.926 651.094 306.785C656.25 312.645 659.59 316.277 661.113 317.684C663.105 319.324 665.625 320.613 668.672 321.551C671.719 322.371 673.887 322.781 675.176 322.781C675.645 322.781 675.879 323.719 675.879 325.594C675.879 326.766 675.82 327.41 675.703 327.527L656.543 326.648L638.262 327.527C637.793 327.059 637.559 326.121 637.559 324.715C637.559 323.426 637.793 322.781 638.262 322.781C639.434 322.781 640.781 322.547 642.305 322.078C643.828 321.609 644.59 321.082 644.59 320.496C644.59 320.262 644.531 320.086 644.414 319.969L618.75 292.195L616.641 292.723V303.27C616.641 307.137 616.758 310.418 616.992 313.113C617.344 315.691 617.695 317.625 618.047 318.914C618.281 319.383 619.102 319.91 620.508 320.496C621.914 321.082 623.438 321.551 625.078 321.902C626.719 322.254 627.891 322.43 628.594 322.43C628.945 322.43 629.18 323.133 629.297 324.539C629.414 325.945 629.355 326.941 629.121 327.527L610.312 326.648L591.152 327.527ZM681.504 327.527C681.035 327.059 680.801 326.062 680.801 324.539C680.801 323.133 681.035 322.43 681.504 322.43C682.441 322.43 683.73 322.254 685.371 321.902C687.012 321.551 688.535 321.082 689.941 320.496C691.348 319.91 692.109 319.383 692.227 318.914C692.695 317.273 692.988 315.398 693.105 313.289C693.34 311.18 693.457 308.953 693.457 306.609V273.387C693.457 268.934 692.637 265.77 690.996 263.895C689.824 262.371 688.418 261.434 686.777 261.082C685.137 260.613 683.73 260.379 682.559 260.379C681.387 260.262 680.801 260.086 680.801 259.852C680.801 257.039 681.152 255.574 681.855 255.457C688.066 254.52 692.812 253.758 696.094 253.172C699.375 252.469 702.305 251.824 704.883 251.238L706.992 250.711C707.461 250.594 707.754 251.062 707.871 252.117C707.988 253.172 707.988 253.934 707.871 254.402C707.637 256.746 707.402 258.973 707.168 261.082C707.051 263.191 706.992 265.184 706.992 267.059V303.27C706.992 306.668 707.109 309.656 707.344 312.234C707.578 314.812 707.93 317.039 708.398 318.914C708.633 319.383 709.453 319.91 710.859 320.496C712.266 321.082 713.789 321.551 715.43 321.902C717.07 322.254 718.242 322.43 718.945 322.43C719.297 322.43 719.531 323.133 719.648 324.539C719.766 325.945 719.707 326.941 719.473 327.527L700.664 326.648L681.504 327.527ZM698.906 231.551C696.562 231.551 694.512 230.672 692.754 228.914C690.996 227.156 690.117 225.105 690.117 222.762C690.117 220.301 690.996 218.25 692.754 216.609C694.512 214.852 696.562 213.973 698.906 213.973C701.367 213.973 703.418 214.852 705.059 216.609C706.816 218.25 707.695 220.301 707.695 222.762C707.695 225.105 706.816 227.156 705.059 228.914C703.418 230.672 701.367 231.551 698.906 231.551ZM731.426 241.746C729.785 241.746 728.613 240.75 727.91 238.758C732.129 236.297 735.234 233.484 737.227 230.32C739.336 227.039 740.391 224.52 740.391 222.762C740.391 221.355 739.805 219.949 738.633 218.543C737.461 217.137 736.23 215.73 734.941 214.324C733.77 212.918 733.184 211.512 733.184 210.105C733.184 207.996 734.355 206.238 736.699 204.832C739.043 203.309 741.68 202.547 744.609 202.547C745.781 202.547 746.953 202.723 748.125 203.074C749.766 205.418 750.586 209.52 750.586 215.379C750.586 218.426 749.941 221.473 748.652 224.52C747.48 227.449 746.016 229.91 744.258 231.902C741.797 234.598 739.277 236.941 736.699 238.934C734.121 240.809 732.363 241.746 731.426 241.746ZM783.633 328.934C780 328.934 776.719 328.523 773.789 327.703C770.859 326.883 767.285 326.18 763.066 325.594C762.598 324.305 762.129 322.547 761.66 320.32C761.191 318.094 760.781 315.75 760.43 313.289C760.195 310.828 760.078 308.836 760.078 307.312C761.016 306.609 761.719 306.258 762.188 306.258C763.945 306.258 764.883 306.609 765 307.312C765.469 309.656 766.641 312 768.516 314.344C770.391 316.688 772.676 318.68 775.371 320.32C778.066 321.844 780.82 322.605 783.633 322.605C787.383 322.605 790.43 321.609 792.773 319.617C795.234 317.508 796.465 314.52 796.465 310.652C796.465 306.551 794.883 303.152 791.719 300.457C789.258 298.465 787.148 297.059 785.391 296.238C783.75 295.301 782.109 294.48 780.469 293.777C778.945 292.957 777.012 291.844 774.668 290.438C765.527 285.164 760.957 278.895 760.957 271.629C760.957 267.41 762.129 263.719 764.473 260.555C766.816 257.273 769.922 254.754 773.789 252.996C777.773 251.121 781.992 250.184 786.445 250.184C787.734 250.184 789.199 250.301 790.84 250.535C792.48 250.652 794.297 250.828 796.289 251.062C798.281 251.414 799.922 251.707 801.211 251.941C802.5 252.176 803.555 252.352 804.375 252.469C805.664 257.859 806.367 263.836 806.484 270.398C806.484 270.984 805.723 271.277 804.199 271.277C802.559 271.277 801.68 270.867 801.562 270.047C800.977 266.766 799.277 263.66 796.465 260.73C793.77 257.801 790.664 256.336 787.148 256.336C778.711 256.336 774.492 259.793 774.492 266.707C774.492 268.465 774.668 270.047 775.02 271.453C775.488 272.742 776.484 273.973 778.008 275.145C781.641 277.957 785.918 280.77 790.84 283.582C795.879 286.395 800.039 289.031 803.32 291.492C808.242 295.242 810.703 299.637 810.703 304.676C810.703 309.246 809.473 313.406 807.012 317.156C804.551 320.789 801.27 323.66 797.168 325.77C793.066 327.879 788.555 328.934 783.633 328.934ZM919.688 328.055C911.953 328.055 904.688 326.531 897.891 323.484C891.211 320.438 885.293 316.277 880.137 311.004C875.098 305.73 871.113 299.637 868.184 292.723C865.371 285.691 863.965 278.25 863.965 270.398C863.965 262.078 865.43 254.285 868.359 247.02C871.289 239.637 875.391 233.191 880.664 227.684C885.938 222.059 892.031 217.664 898.945 214.5C905.977 211.336 913.535 209.754 921.621 209.754C928.535 209.754 935.566 210.105 942.715 210.809C949.863 211.512 957.07 212.625 964.336 214.148L963.984 239.461C963.984 241.219 962.754 242.098 960.293 242.098C959.121 242.098 958.359 241.805 958.008 241.219C957.656 239.695 957.188 238.172 956.602 236.648C956.133 235.008 955.078 232.898 953.438 230.32C950.625 226.219 946.582 222.996 941.309 220.652C936.152 218.309 929.766 217.137 922.148 217.137C916.406 217.137 911.016 218.543 905.977 221.355C900.938 224.051 896.484 227.742 892.617 232.43C888.867 237.117 885.938 242.449 883.828 248.426C881.719 254.285 880.664 260.379 880.664 266.707C880.664 276.434 882.305 285.164 885.586 292.898C888.867 300.867 894.023 307.488 901.055 312.762C908.203 317.918 916.641 320.496 926.367 320.496C937.969 320.496 946.934 317.098 953.262 310.301C955.137 308.309 956.602 305.965 957.656 303.27C958.711 300.574 959.531 298.23 960.117 296.238C960.703 294.246 961.289 293.25 961.875 293.25C962.578 293.25 963.398 293.367 964.336 293.602C965.391 293.719 966.211 293.953 966.797 294.305L967.676 294.832C967.676 295.535 967.441 297.176 966.973 299.754C966.504 302.332 965.918 305.203 965.215 308.367C964.512 311.414 963.809 314.109 963.105 316.453C962.52 318.797 962.051 320.086 961.699 320.32C953.027 325.477 939.023 328.055 919.688 328.055ZM995.801 311.355C984.785 299.871 979.277 285.867 979.277 269.344C979.277 261.141 980.742 253.465 983.672 246.316C986.602 239.051 990.586 232.723 995.625 227.332C1000.78 221.824 1006.76 217.547 1013.55 214.5C1020.35 211.336 1027.62 209.754 1035.35 209.754C1043.09 209.754 1050.35 211.336 1057.15 214.5C1063.95 217.547 1069.92 221.824 1075.08 227.332C1080.23 232.723 1084.28 239.051 1087.21 246.316C1090.14 253.465 1091.6 261.141 1091.6 269.344C1091.6 285.867 1086.09 299.871 1075.08 311.355C1067.58 319.324 1059.08 324.598 1049.59 327.176C1040.1 329.871 1030.61 329.871 1021.11 327.176C1011.74 324.598 1003.3 319.324 995.801 311.355ZM1038.16 321.199C1045.66 321.199 1052.23 318.738 1057.85 313.816C1063.48 309.012 1067.58 303.035 1070.16 295.887C1072.85 288.621 1074.2 280.887 1074.2 272.684C1074.2 263.426 1072.68 254.578 1069.63 246.141C1066.58 237.82 1061.84 230.906 1055.39 225.398C1048.95 219.891 1041.39 217.137 1032.71 217.137C1025.33 217.137 1018.95 219.422 1013.55 223.992C1008.16 228.445 1004 234.363 1001.07 241.746C998.145 249.012 996.68 256.922 996.68 265.477C996.68 274.734 998.203 283.582 1001.25 292.02C1004.3 300.34 1009.04 307.312 1015.49 312.938C1021.93 318.445 1029.49 321.199 1038.16 321.199ZM1107.6 327.527C1107.13 327.059 1106.89 326.18 1106.89 324.891C1106.89 323.25 1107.13 322.43 1107.6 322.43C1108.65 322.43 1110.06 322.312 1111.82 322.078C1113.57 321.727 1115.21 321.258 1116.74 320.672C1118.26 320.086 1119.14 319.5 1119.38 318.914C1120.2 315.984 1120.61 310.711 1120.61 303.094V235.418C1120.61 232.02 1120.49 229.031 1120.25 226.453C1120.14 223.875 1119.84 221.824 1119.38 220.301C1119.14 219.598 1118.2 218.953 1116.56 218.367C1115.04 217.781 1113.34 217.312 1111.46 216.961C1109.71 216.609 1108.3 216.434 1107.25 216.434C1106.78 216.434 1106.54 215.73 1106.54 214.324C1106.54 212.801 1106.78 211.805 1107.25 211.336C1110.29 211.453 1113.52 211.57 1116.91 211.688C1120.43 211.688 1124.18 211.688 1128.16 211.688C1130.86 211.688 1134.49 211.629 1139.06 211.512C1143.63 211.395 1149.14 211.219 1155.59 210.984C1162.15 210.75 1167.83 210.574 1172.64 210.457C1177.56 210.34 1181.66 210.281 1184.94 210.281C1185.18 211.922 1185.53 213.914 1186 216.258C1186.46 218.484 1187.05 220.945 1187.75 223.641C1188.34 226.453 1188.81 228.738 1189.16 230.496C1189.63 232.254 1189.92 233.484 1190.04 234.188C1189.45 234.773 1188.4 235.066 1186.88 235.066C1185.35 235.066 1184.53 234.656 1184.41 233.836C1182.66 227.391 1180.2 223.289 1177.03 221.531C1173.87 219.656 1169.53 218.719 1164.02 218.719H1152.25C1142.05 218.719 1136.89 219.48 1136.78 221.004C1136.54 222.41 1136.31 224.344 1136.07 226.805C1135.96 229.266 1135.9 232.254 1135.9 235.77V264.422C1135.9 265.125 1138.36 265.477 1143.28 265.477H1152.6C1157.87 265.477 1161.68 265.301 1164.02 264.949C1166.37 264.48 1168.01 263.484 1168.95 261.961C1169.88 260.32 1170.76 257.742 1171.58 254.227L1171.93 252.645C1172.05 251.824 1172.93 251.414 1174.57 251.414C1175.98 251.414 1176.97 251.707 1177.56 252.293V286.395C1177.09 286.863 1176.15 287.098 1174.75 287.098C1173.22 287.098 1172.29 286.629 1171.93 285.691C1171.46 284.051 1171.05 282.645 1170.7 281.473C1170.35 280.301 1170.06 279.305 1169.82 278.484C1169.24 276.844 1168.77 275.906 1168.42 275.672C1168.18 275.438 1167.71 275.086 1167.01 274.617C1165.37 273.68 1159.16 273.211 1148.38 273.211C1140.06 273.211 1135.9 273.738 1135.9 274.793V302.566C1135.9 309.363 1136.43 314.812 1137.48 318.914C1137.71 319.383 1138.59 319.91 1140.12 320.496C1141.64 321.082 1143.28 321.551 1145.04 321.902C1146.8 322.254 1148.03 322.43 1148.73 322.43C1149.2 322.43 1149.43 323.309 1149.43 325.066C1149.43 325.77 1149.32 326.59 1149.08 327.527C1143.22 327.293 1138.59 327.117 1135.2 327C1131.8 326.766 1129.63 326.648 1128.69 326.648L1107.6 327.527ZM1204.45 327.527C1203.98 327.059 1203.75 326.18 1203.75 324.891C1203.75 323.25 1203.98 322.43 1204.45 322.43C1205.51 322.43 1206.91 322.312 1208.67 322.078C1210.43 321.727 1212.07 321.258 1213.59 320.672C1215.12 320.086 1216 319.5 1216.23 318.914C1217.05 315.984 1217.46 310.711 1217.46 303.094V235.418C1217.46 232.02 1217.34 229.031 1217.11 226.453C1216.99 223.875 1216.7 221.824 1216.23 220.301C1216 219.598 1215.06 218.953 1213.42 218.367C1211.89 217.781 1210.2 217.312 1208.32 216.961C1206.56 216.609 1205.16 216.434 1204.1 216.434C1203.63 216.434 1203.4 215.73 1203.4 214.324C1203.4 212.801 1203.63 211.805 1204.1 211.336C1207.15 211.453 1210.37 211.57 1213.77 211.688C1217.29 211.688 1221.04 211.688 1225.02 211.688C1227.71 211.688 1231.35 211.629 1235.92 211.512C1240.49 211.395 1246 211.219 1252.44 210.984C1259 210.75 1264.69 210.574 1269.49 210.457C1274.41 210.34 1278.52 210.281 1281.8 210.281C1282.03 211.922 1282.38 213.914 1282.85 216.258C1283.32 218.484 1283.91 220.945 1284.61 223.641C1285.2 226.453 1285.66 228.738 1286.02 230.496C1286.48 232.254 1286.78 233.484 1286.89 234.188C1286.31 234.773 1285.25 235.066 1283.73 235.066C1282.21 235.066 1281.39 234.656 1281.27 233.836C1279.51 227.391 1277.05 223.289 1273.89 221.531C1270.72 219.656 1266.39 218.719 1260.88 218.719H1249.1C1238.91 218.719 1233.75 219.48 1233.63 221.004C1233.4 222.41 1233.16 224.344 1232.93 226.805C1232.81 229.266 1232.75 232.254 1232.75 235.77V264.422C1232.75 265.125 1235.21 265.477 1240.14 265.477H1249.45C1254.73 265.477 1258.54 265.301 1260.88 264.949C1263.22 264.48 1264.86 263.484 1265.8 261.961C1266.74 260.32 1267.62 257.742 1268.44 254.227L1268.79 252.645C1268.91 251.824 1269.79 251.414 1271.43 251.414C1272.83 251.414 1273.83 251.707 1274.41 252.293V286.395C1273.95 286.863 1273.01 287.098 1271.6 287.098C1270.08 287.098 1269.14 286.629 1268.79 285.691C1268.32 284.051 1267.91 282.645 1267.56 281.473C1267.21 280.301 1266.91 279.305 1266.68 278.484C1266.09 276.844 1265.62 275.906 1265.27 275.672C1265.04 275.438 1264.57 275.086 1263.87 274.617C1262.23 273.68 1256.02 273.211 1245.23 273.211C1236.91 273.211 1232.75 273.738 1232.75 274.793V302.566C1232.75 309.363 1233.28 314.812 1234.34 318.914C1234.57 319.383 1235.45 319.91 1236.97 320.496C1238.5 321.082 1240.14 321.551 1241.89 321.902C1243.65 322.254 1244.88 322.43 1245.59 322.43C1246.05 322.43 1246.29 323.309 1246.29 325.066C1246.29 325.77 1246.17 326.59 1245.94 327.527C1240.08 327.293 1235.45 327.117 1232.05 327C1228.65 326.766 1226.48 326.648 1225.55 326.648L1204.45 327.527ZM1380.23 327.703C1377.3 327.703 1373.44 327.645 1368.63 327.527C1363.95 327.527 1358.38 327.469 1351.93 327.352C1345.49 327.234 1339.63 327.117 1334.36 327C1329.08 327 1324.39 327 1320.29 327L1299.02 327.527C1298.67 327.176 1298.5 326.238 1298.5 324.715C1298.5 323.191 1298.67 322.43 1299.02 322.43C1300.08 322.43 1301.48 322.254 1303.24 321.902C1305 321.434 1306.64 320.906 1308.16 320.32C1309.8 319.734 1310.8 319.09 1311.15 318.387C1311.97 317.098 1312.38 311.59 1312.38 301.863V235.418C1312.38 232.02 1312.27 229.031 1312.03 226.453C1311.91 223.875 1311.62 221.824 1311.15 220.301C1310.92 219.598 1309.98 218.953 1308.34 218.367C1306.82 217.781 1305.12 217.312 1303.24 216.961C1301.48 216.609 1300.08 216.434 1299.02 216.434C1298.55 216.434 1298.32 215.73 1298.32 214.324C1298.32 212.801 1298.55 211.805 1299.02 211.336C1302.07 211.453 1305.29 211.57 1308.69 211.688C1312.21 211.688 1315.96 211.688 1319.94 211.688C1322.64 211.688 1326.27 211.629 1330.84 211.512C1335.41 211.395 1340.92 211.219 1347.36 210.984C1353.93 210.75 1359.61 210.574 1364.41 210.457C1369.34 210.34 1373.44 210.281 1376.72 210.281C1376.95 211.922 1377.3 213.914 1377.77 216.258C1378.24 218.484 1378.83 220.945 1379.53 223.641C1380.12 226.453 1380.59 228.738 1380.94 230.496C1381.41 232.254 1381.7 233.484 1381.82 234.188C1381.23 234.773 1380.18 235.066 1378.65 235.066C1377.13 235.066 1376.31 234.656 1376.19 233.836C1374.43 227.391 1371.97 223.289 1368.81 221.531C1365.64 219.656 1361.31 218.719 1355.8 218.719H1344.02C1333.83 218.719 1328.67 219.48 1328.55 221.004C1328.32 222.41 1328.09 224.344 1327.85 226.805C1327.73 229.266 1327.68 232.254 1327.68 235.77V263.895C1327.68 264.598 1330.2 264.949 1335.23 264.949H1344.55C1348.54 264.949 1351.23 264.949 1352.64 264.949C1354.04 264.832 1355.04 264.656 1355.62 264.422C1356.33 264.188 1357.62 263.836 1359.49 263.367C1360.66 263.133 1361.54 261.785 1362.13 259.324C1362.83 256.746 1363.42 254.637 1363.89 252.996C1364 252.176 1364.88 251.766 1366.52 251.766C1367.93 251.766 1368.93 252.059 1369.51 252.645V285.867C1369.04 286.336 1368.11 286.57 1366.7 286.57C1365.18 286.57 1364.24 286.102 1363.89 285.164C1363.42 283.523 1363.01 282.117 1362.66 280.945C1362.3 279.773 1362.01 278.777 1361.78 277.957C1361.19 276.316 1360.72 275.379 1360.37 275.145C1360.14 274.91 1359.67 274.559 1358.96 274.09C1357.32 273.152 1351.11 272.684 1340.33 272.684C1331.89 272.684 1327.68 273.211 1327.68 274.266V301.512C1327.68 309.129 1328.2 314.461 1329.26 317.508C1329.61 318.68 1333.59 319.266 1341.21 319.266H1349.65C1360.43 319.266 1367.81 318.27 1371.8 316.277C1373.55 315.34 1375.49 313.289 1377.6 310.125C1379.82 306.844 1381.58 302.977 1382.87 298.523C1383.11 297.82 1383.93 297.469 1385.33 297.469C1387.56 297.469 1389.02 297.82 1389.73 298.523C1389.38 299.461 1388.79 300.926 1387.97 302.918C1387.27 304.793 1386.56 306.727 1385.86 308.719C1385.16 310.711 1384.57 312.41 1384.1 313.816C1383.4 315.926 1382.64 318.328 1381.82 321.023C1381 323.719 1380.47 325.945 1380.23 327.703ZM1480.61 327.703C1477.68 327.703 1473.81 327.645 1469 327.527C1464.32 327.527 1458.75 327.469 1452.3 327.352C1445.86 327.234 1440 327.117 1434.73 327C1429.45 327 1424.77 327 1420.66 327L1399.39 327.527C1399.04 327.176 1398.87 326.238 1398.87 324.715C1398.87 323.191 1399.04 322.43 1399.39 322.43C1400.45 322.43 1401.86 322.254 1403.61 321.902C1405.37 321.434 1407.01 320.906 1408.54 320.32C1410.18 319.734 1411.17 319.09 1411.52 318.387C1412.34 317.098 1412.75 311.59 1412.75 301.863V235.418C1412.75 232.02 1412.64 229.031 1412.4 226.453C1412.29 223.875 1411.99 221.824 1411.52 220.301C1411.29 219.598 1410.35 218.953 1408.71 218.367C1407.19 217.781 1405.49 217.312 1403.61 216.961C1401.86 216.609 1400.45 216.434 1399.39 216.434C1398.93 216.434 1398.69 215.73 1398.69 214.324C1398.69 212.801 1398.93 211.805 1399.39 211.336C1402.44 211.453 1405.66 211.57 1409.06 211.688C1412.58 211.688 1416.33 211.688 1420.31 211.688C1423.01 211.688 1426.64 211.629 1431.21 211.512C1435.78 211.395 1441.29 211.219 1447.73 210.984C1454.3 210.75 1459.98 210.574 1464.79 210.457C1469.71 210.34 1473.81 210.281 1477.09 210.281C1477.32 211.922 1477.68 213.914 1478.14 216.258C1478.61 218.484 1479.2 220.945 1479.9 223.641C1480.49 226.453 1480.96 228.738 1481.31 230.496C1481.78 232.254 1482.07 233.484 1482.19 234.188C1481.6 234.773 1480.55 235.066 1479.02 235.066C1477.5 235.066 1476.68 234.656 1476.56 233.836C1474.8 227.391 1472.34 223.289 1469.18 221.531C1466.02 219.656 1461.68 218.719 1456.17 218.719H1444.39C1434.2 218.719 1429.04 219.48 1428.93 221.004C1428.69 222.41 1428.46 224.344 1428.22 226.805C1428.11 229.266 1428.05 232.254 1428.05 235.77V263.895C1428.05 264.598 1430.57 264.949 1435.61 264.949H1444.92C1448.91 264.949 1451.6 264.949 1453.01 264.949C1454.41 264.832 1455.41 264.656 1456 264.422C1456.7 264.188 1457.99 263.836 1459.86 263.367C1461.04 263.133 1461.91 261.785 1462.5 259.324C1463.2 256.746 1463.79 254.637 1464.26 252.996C1464.38 252.176 1465.25 251.766 1466.89 251.766C1468.3 251.766 1469.3 252.059 1469.88 252.645V285.867C1469.41 286.336 1468.48 286.57 1467.07 286.57C1465.55 286.57 1464.61 286.102 1464.26 285.164C1463.79 283.523 1463.38 282.117 1463.03 280.945C1462.68 279.773 1462.38 278.777 1462.15 277.957C1461.56 276.316 1461.09 275.379 1460.74 275.145C1460.51 274.91 1460.04 274.559 1459.34 274.09C1457.7 273.152 1451.48 272.684 1440.7 272.684C1432.27 272.684 1428.05 273.211 1428.05 274.266V301.512C1428.05 309.129 1428.57 314.461 1429.63 317.508C1429.98 318.68 1433.96 319.266 1441.58 319.266H1450.02C1460.8 319.266 1468.18 318.27 1472.17 316.277C1473.93 315.34 1475.86 313.289 1477.97 310.125C1480.2 306.844 1481.95 302.977 1483.24 298.523C1483.48 297.82 1484.3 297.469 1485.7 297.469C1487.93 297.469 1489.39 297.82 1490.1 298.523C1489.75 299.461 1489.16 300.926 1488.34 302.918C1487.64 304.793 1486.93 306.727 1486.23 308.719C1485.53 310.711 1484.94 312.41 1484.47 313.816C1483.77 315.926 1483.01 318.328 1482.19 321.023C1481.37 323.719 1480.84 325.945 1480.61 327.703Z" fill="black"/>
<mask id="path-2-inside-1_8_38" fill="white">
<path d="M1630.89 48.9883C1629.94 54.9804 1629.45 61.115 1629.45 67.3584C1629.45 134.469 1686.09 188.973 1756.29 189.82L1757.95 189.83V482.539C1686.98 482.539 1629.45 537.372 1629.45 605.011H177.337C177.337 537.9 120.699 483.396 50.4932 482.549L48.832 482.539V170.236C119.375 170.236 176.64 116.064 177.329 48.9883H1630.89Z"/>
</mask>
<path d="M1630.89 48.9883L1640.76 50.5473L1642.59 38.9883H1630.89V48.9883ZM1629.45 67.3584L1619.45 67.3583V67.3584H1629.45ZM1756.29 189.82L1756.17 199.82L1756.2 199.82L1756.23 199.82L1756.29 189.82ZM1757.95 189.83H1767.95V179.889L1758.01 179.83L1757.95 189.83ZM1757.95 482.539V492.539L1767.95 492.539V482.539H1757.95ZM1629.45 605.011V615.011H1639.45V605.011L1629.45 605.011ZM177.337 605.011L167.337 605.011L167.337 615.011H177.337V605.011ZM50.4932 482.549L50.6139 472.55L50.5829 472.549L50.552 472.549L50.4932 482.549ZM48.832 482.539H38.832V492.48L48.7732 492.539L48.832 482.539ZM48.832 170.236V160.236H38.832V170.236H48.832ZM177.329 48.9883V38.9883H167.431L167.33 48.8855L177.329 48.9883ZM1630.89 48.9883L1621.01 47.4292C1619.98 53.9332 1619.45 60.589 1619.45 67.3583L1629.45 67.3584L1639.45 67.3585C1639.45 61.6409 1639.9 56.0276 1640.76 50.5473L1630.89 48.9883ZM1629.45 67.3584H1619.45C1619.45 140.391 1680.95 198.911 1756.17 199.82L1756.29 189.82L1756.41 179.821C1691.22 179.034 1639.45 128.547 1639.45 67.3584H1629.45ZM1756.29 189.82L1756.23 199.82L1757.89 199.83L1757.95 189.83L1758.01 179.83L1756.35 179.82L1756.29 189.82ZM1757.95 189.83H1747.95V482.539H1757.95H1767.95V189.83H1757.95ZM1757.95 482.539V472.539C1681.92 472.539 1619.45 531.401 1619.45 605.011L1629.45 605.011L1639.45 605.011C1639.45 543.342 1692.05 492.539 1757.95 492.539V482.539ZM1629.45 605.011V595.011H177.337V605.011V615.011H1629.45V605.011ZM177.337 605.011L187.337 605.011C187.337 531.978 125.838 473.458 50.6139 472.55L50.4932 482.549L50.3724 492.548C115.56 493.335 167.337 543.822 167.337 605.011L177.337 605.011ZM50.4932 482.549L50.552 472.549L48.8908 472.539L48.832 482.539L48.7732 492.539L50.4344 492.549L50.4932 482.549ZM48.832 482.539H58.832V170.236H48.832H38.832V482.539H48.832ZM48.832 170.236V180.236C124.412 180.236 186.579 122.084 187.329 49.091L177.329 48.9883L167.33 48.8855C166.701 110.043 114.338 160.236 48.832 160.236V170.236ZM177.329 48.9883V58.9883H1630.89V48.9883V38.9883H177.329V48.9883Z" fill="black" mask="url(#path-2-inside-1_8_38)"/>
<mask id="path-4-inside-2_8_38" fill="white">
<path d="M1672.66 0C1671.66 7.04844 1671.14 14.2644 1671.14 21.6084C1671.14 101.166 1731.96 165.661 1807 165.661L1807 165.66V509.947H1807C1731.96 509.948 1671.14 574.442 1671.14 654H135.865C135.865 575.064 75.9832 510.956 1.75684 509.959L0 509.947V142.612C74.5826 142.612 135.127 78.8947 135.856 0H1672.66Z"/>
</mask>
<path d="M1672.66 0L1674.64 0.280937L1674.96 -2H1672.66V0ZM1671.14 21.6084L1669.14 21.6084V21.6084L1671.14 21.6084ZM1807 165.661V167.661H1807.83L1808.41 167.075L1807 165.661ZM1807 165.66H1809V160.832L1805.59 164.246L1807 165.66ZM1807 509.947V511.947H1809V509.947H1807ZM1807 509.947V507.947V507.947V509.947ZM1671.14 654V656H1673.14V654H1671.14ZM135.865 654H133.865V656H135.865V654ZM1.75684 509.959L1.7837 507.959L1.77018 507.959L1.75684 509.959ZM0 509.947H-2V511.934L-0.0133404 511.947L0 509.947ZM0 142.612V140.612H-2V142.612H0ZM135.856 0V-2H133.875L133.857 -0.0184791L135.856 0ZM1672.66 0L1670.68 -0.280937C1669.66 6.86016 1669.14 14.1699 1669.14 21.6084L1671.14 21.6084L1673.14 21.6084C1673.14 14.3588 1673.65 7.23673 1674.64 0.280937L1672.66 0ZM1671.14 21.6084L1669.14 21.6084C1669.14 102.159 1730.75 167.661 1807 167.661V165.661V163.661C1733.18 163.661 1673.14 100.174 1673.14 21.6084L1671.14 21.6084ZM1807 165.661L1808.41 167.075L1808.42 167.074L1807 165.66L1805.59 164.246L1805.59 164.247L1807 165.661ZM1807 165.66H1805V509.947H1807H1809V165.66H1807ZM1807 509.947V507.947H1807V509.947V511.947H1807V509.947ZM1807 509.947V507.947C1730.75 507.948 1669.14 573.449 1669.14 654H1671.14H1673.14C1673.14 575.435 1733.18 511.948 1807 511.947V509.947ZM1671.14 654V652H135.865V654V656H1671.14V654ZM135.865 654H137.865C137.865 574.078 77.2092 508.973 1.7837 507.959L1.75684 509.959L1.72997 511.959C74.7573 512.94 133.865 576.049 133.865 654H135.865ZM1.75684 509.959L1.77018 507.959L0.0133404 507.947L0 509.947L-0.0133404 511.947L1.7435 511.959L1.75684 509.959ZM0 509.947H2V142.612H0H-2V509.947H0ZM0 142.612V144.612C75.7882 144.612 137.118 79.8991 137.856 0.0184791L135.856 0L133.857 -0.0184791C133.137 77.8904 73.377 140.612 0 140.612V142.612ZM135.856 0V2H1672.66V0V-2H135.856V0Z" fill="black" mask="url(#path-4-inside-2_8_38)"/>
<path d="M723.596 482.146C723.465 482.016 723.4 481.772 723.4 481.414C723.4 480.958 723.465 480.73 723.596 480.73C723.889 480.73 724.279 480.698 724.768 480.633C725.256 480.535 725.712 480.405 726.135 480.242C726.558 480.079 726.802 479.917 726.867 479.754C726.997 479.298 727.079 478.712 727.111 477.996C727.176 477.28 727.209 476.417 727.209 475.408V457.732C727.209 454.9 727.062 453.224 726.77 452.703C726.542 452.215 724.784 451.971 721.496 451.971C720.259 451.971 719.299 452.085 718.615 452.312C717.932 452.508 717.411 452.915 717.053 453.533C716.695 454.152 716.353 455.079 716.027 456.316C715.962 456.479 715.799 456.561 715.539 456.561C714.986 456.561 714.595 456.447 714.367 456.219L715.295 449.236C716.011 449.399 716.646 449.529 717.199 449.627C717.753 449.725 718.241 449.773 718.664 449.773C721.008 449.773 723.075 449.806 724.865 449.871C726.656 449.936 728.153 449.969 729.357 449.969C731.864 449.969 734.012 449.936 735.803 449.871C737.626 449.806 739.058 449.773 740.1 449.773C740.523 449.773 741.011 449.725 741.564 449.627C742.118 449.529 742.753 449.399 743.469 449.236L744.396 456.219C744.169 456.447 743.778 456.561 743.225 456.561C742.964 456.561 742.801 456.479 742.736 456.316C742.443 455.079 742.102 454.152 741.711 453.533C741.353 452.915 740.832 452.508 740.148 452.312C739.465 452.085 738.505 451.971 737.268 451.971C733.85 451.971 732.059 452.215 731.896 452.703C731.604 453.712 731.457 455.34 731.457 457.586V475.213C731.457 477.101 731.604 478.615 731.896 479.754C731.962 479.884 732.206 480.031 732.629 480.193C733.052 480.356 733.508 480.486 733.996 480.584C734.484 480.682 734.826 480.73 735.021 480.73C735.152 480.73 735.217 480.975 735.217 481.463C735.217 481.658 735.184 481.886 735.119 482.146C733.492 482.081 732.206 482.033 731.262 482C730.318 481.935 729.715 481.902 729.455 481.902L723.596 482.146ZM746.74 482.146C746.61 482.016 746.545 481.74 746.545 481.316C746.545 480.926 746.61 480.73 746.74 480.73C747.001 480.73 747.359 480.682 747.814 480.584C748.27 480.486 748.693 480.356 749.084 480.193C749.475 480.031 749.686 479.884 749.719 479.754C749.947 478.875 750.061 477.752 750.061 476.385V455.193C750.061 454.087 749.963 453.045 749.768 452.068C749.637 451.548 748.807 451.287 747.277 451.287H746.838C746.643 451.287 746.545 451.108 746.545 450.75C746.545 450.229 746.643 449.969 746.838 449.969C748.498 449.806 749.898 449.546 751.037 449.188C752.176 448.797 752.958 448.488 753.381 448.26L753.625 448.113H753.723C753.853 448.113 753.983 448.211 754.113 448.406C754.243 448.569 754.325 448.732 754.357 448.895C753.999 449.969 753.82 451.385 753.82 453.143V463.836C753.82 463.966 753.853 464.031 753.918 464.031C753.951 464.031 753.999 463.999 754.064 463.934C754.553 463.413 755.171 462.908 755.92 462.42C756.701 461.899 757.531 461.476 758.41 461.15C759.289 460.792 760.119 460.613 760.9 460.613C763.081 460.613 764.644 461.395 765.588 462.957C766.532 464.52 767.004 466.928 767.004 470.184V475.457C767.004 476.368 767.036 477.182 767.102 477.898C767.167 478.615 767.264 479.233 767.395 479.754C767.46 479.884 767.688 480.031 768.078 480.193C768.469 480.356 768.892 480.486 769.348 480.584C769.803 480.682 770.129 480.73 770.324 480.73C770.422 480.73 770.487 480.926 770.52 481.316C770.552 481.707 770.536 481.984 770.471 482.146L765.246 481.902L760.119 482.146C759.989 482.016 759.924 481.74 759.924 481.316C759.924 480.926 759.989 480.73 760.119 480.73C760.38 480.73 760.721 480.682 761.145 480.584C761.568 480.486 761.958 480.356 762.316 480.193C762.674 480.031 762.87 479.884 762.902 479.754C763.033 479.298 763.114 478.777 763.146 478.191C763.212 477.605 763.244 476.987 763.244 476.336V471.16C763.244 469.142 763.065 467.596 762.707 466.521C762.349 465.415 761.796 464.65 761.047 464.227C760.298 463.803 759.338 463.592 758.166 463.592C757.515 463.592 756.848 463.787 756.164 464.178C755.513 464.536 754.96 464.959 754.504 465.447C754.048 465.936 753.82 466.375 753.82 466.766V475.408C753.82 476.352 753.853 477.182 753.918 477.898C753.983 478.615 754.081 479.233 754.211 479.754C754.276 479.884 754.504 480.031 754.895 480.193C755.285 480.356 755.708 480.486 756.164 480.584C756.62 480.682 756.945 480.73 757.141 480.73C757.238 480.73 757.303 480.926 757.336 481.316C757.368 481.707 757.352 481.984 757.287 482.146L752.062 481.902L746.74 482.146ZM773.303 482.146C773.173 482.016 773.107 481.74 773.107 481.316C773.107 480.926 773.173 480.73 773.303 480.73C773.563 480.73 773.921 480.682 774.377 480.584C774.833 480.486 775.256 480.356 775.646 480.193C776.037 480.031 776.249 479.884 776.281 479.754C776.411 479.298 776.493 478.777 776.525 478.191C776.59 477.605 776.623 476.987 776.623 476.336V467.107C776.623 465.87 776.395 464.992 775.939 464.471C775.614 464.048 775.223 463.787 774.768 463.689C774.312 463.559 773.921 463.494 773.596 463.494C773.27 463.462 773.107 463.413 773.107 463.348C773.107 462.566 773.205 462.16 773.4 462.127C775.126 461.867 776.444 461.655 777.355 461.492C778.267 461.297 779.081 461.118 779.797 460.955L780.383 460.809C780.513 460.776 780.594 460.906 780.627 461.199C780.66 461.492 780.66 461.704 780.627 461.834C780.562 462.485 780.497 463.104 780.432 463.689C780.399 464.275 780.383 464.829 780.383 465.35V475.408C780.383 476.352 780.415 477.182 780.48 477.898C780.546 478.615 780.643 479.233 780.773 479.754C780.839 479.884 781.066 480.031 781.457 480.193C781.848 480.356 782.271 480.486 782.727 480.584C783.182 480.682 783.508 480.73 783.703 480.73C783.801 480.73 783.866 480.926 783.898 481.316C783.931 481.707 783.915 481.984 783.85 482.146L778.625 481.902L773.303 482.146ZM778.137 455.486C777.486 455.486 776.916 455.242 776.428 454.754C775.939 454.266 775.695 453.696 775.695 453.045C775.695 452.361 775.939 451.792 776.428 451.336C776.916 450.848 777.486 450.604 778.137 450.604C778.82 450.604 779.39 450.848 779.846 451.336C780.334 451.792 780.578 452.361 780.578 453.045C780.578 453.696 780.334 454.266 779.846 454.754C779.39 455.242 778.82 455.486 778.137 455.486ZM793.859 482.537C792.85 482.537 791.939 482.423 791.125 482.195C790.311 481.967 789.318 481.772 788.146 481.609C788.016 481.251 787.886 480.763 787.756 480.145C787.626 479.526 787.512 478.875 787.414 478.191C787.349 477.508 787.316 476.954 787.316 476.531C787.577 476.336 787.772 476.238 787.902 476.238C788.391 476.238 788.651 476.336 788.684 476.531C788.814 477.182 789.139 477.833 789.66 478.484C790.181 479.135 790.816 479.689 791.564 480.145C792.313 480.568 793.078 480.779 793.859 480.779C794.901 480.779 795.747 480.503 796.398 479.949C797.082 479.363 797.424 478.533 797.424 477.459C797.424 476.32 796.984 475.376 796.105 474.627C795.422 474.074 794.836 473.683 794.348 473.455C793.892 473.195 793.436 472.967 792.98 472.771C792.557 472.544 792.02 472.234 791.369 471.844C788.83 470.379 787.561 468.637 787.561 466.619C787.561 465.447 787.886 464.422 788.537 463.543C789.188 462.632 790.051 461.932 791.125 461.443C792.232 460.923 793.404 460.662 794.641 460.662C794.999 460.662 795.406 460.695 795.861 460.76C796.317 460.792 796.822 460.841 797.375 460.906C797.928 461.004 798.384 461.085 798.742 461.15C799.1 461.215 799.393 461.264 799.621 461.297C799.979 462.794 800.174 464.454 800.207 466.277C800.207 466.44 799.995 466.521 799.572 466.521C799.117 466.521 798.872 466.408 798.84 466.18C798.677 465.268 798.205 464.406 797.424 463.592C796.675 462.778 795.812 462.371 794.836 462.371C792.492 462.371 791.32 463.331 791.32 465.252C791.32 465.74 791.369 466.18 791.467 466.57C791.597 466.928 791.874 467.27 792.297 467.596C793.306 468.377 794.494 469.158 795.861 469.939C797.261 470.721 798.417 471.453 799.328 472.137C800.695 473.178 801.379 474.399 801.379 475.799C801.379 477.068 801.037 478.224 800.354 479.266C799.67 480.275 798.758 481.072 797.619 481.658C796.48 482.244 795.227 482.537 793.859 482.537ZM815.783 482.146C815.653 482.016 815.588 481.74 815.588 481.316C815.588 480.926 815.653 480.73 815.783 480.73C816.044 480.73 816.402 480.682 816.857 480.584C817.313 480.486 817.736 480.356 818.127 480.193C818.518 480.031 818.729 479.884 818.762 479.754C818.892 479.298 818.973 478.777 819.006 478.191C819.071 477.605 819.104 476.987 819.104 476.336V467.107C819.104 465.87 818.876 464.992 818.42 464.471C818.094 464.048 817.704 463.787 817.248 463.689C816.792 463.559 816.402 463.494 816.076 463.494C815.751 463.462 815.588 463.413 815.588 463.348C815.588 462.566 815.686 462.16 815.881 462.127C817.606 461.867 818.924 461.655 819.836 461.492C820.747 461.297 821.561 461.118 822.277 460.955L822.863 460.809C822.993 460.776 823.075 460.906 823.107 461.199C823.14 461.492 823.14 461.704 823.107 461.834C823.042 462.485 822.977 463.104 822.912 463.689C822.88 464.275 822.863 464.829 822.863 465.35V475.408C822.863 476.352 822.896 477.182 822.961 477.898C823.026 478.615 823.124 479.233 823.254 479.754C823.319 479.884 823.547 480.031 823.938 480.193C824.328 480.356 824.751 480.486 825.207 480.584C825.663 480.682 825.988 480.73 826.184 480.73C826.281 480.73 826.346 480.926 826.379 481.316C826.411 481.707 826.395 481.984 826.33 482.146L821.105 481.902L815.783 482.146ZM820.617 455.486C819.966 455.486 819.396 455.242 818.908 454.754C818.42 454.266 818.176 453.696 818.176 453.045C818.176 452.361 818.42 451.792 818.908 451.336C819.396 450.848 819.966 450.604 820.617 450.604C821.301 450.604 821.87 450.848 822.326 451.336C822.814 451.792 823.059 452.361 823.059 453.045C823.059 453.696 822.814 454.266 822.326 454.754C821.87 455.242 821.301 455.486 820.617 455.486ZM836.34 482.537C835.331 482.537 834.419 482.423 833.605 482.195C832.792 481.967 831.799 481.772 830.627 481.609C830.497 481.251 830.367 480.763 830.236 480.145C830.106 479.526 829.992 478.875 829.895 478.191C829.829 477.508 829.797 476.954 829.797 476.531C830.057 476.336 830.253 476.238 830.383 476.238C830.871 476.238 831.132 476.336 831.164 476.531C831.294 477.182 831.62 477.833 832.141 478.484C832.661 479.135 833.296 479.689 834.045 480.145C834.794 480.568 835.559 480.779 836.34 480.779C837.382 480.779 838.228 480.503 838.879 479.949C839.562 479.363 839.904 478.533 839.904 477.459C839.904 476.32 839.465 475.376 838.586 474.627C837.902 474.074 837.316 473.683 836.828 473.455C836.372 473.195 835.917 472.967 835.461 472.771C835.038 472.544 834.501 472.234 833.85 471.844C831.311 470.379 830.041 468.637 830.041 466.619C830.041 465.447 830.367 464.422 831.018 463.543C831.669 462.632 832.531 461.932 833.605 461.443C834.712 460.923 835.884 460.662 837.121 460.662C837.479 460.662 837.886 460.695 838.342 460.76C838.798 460.792 839.302 460.841 839.855 460.906C840.409 461.004 840.865 461.085 841.223 461.15C841.581 461.215 841.874 461.264 842.102 461.297C842.46 462.794 842.655 464.454 842.688 466.277C842.688 466.44 842.476 466.521 842.053 466.521C841.597 466.521 841.353 466.408 841.32 466.18C841.158 465.268 840.686 464.406 839.904 463.592C839.156 462.778 838.293 462.371 837.316 462.371C834.973 462.371 833.801 463.331 833.801 465.252C833.801 465.74 833.85 466.18 833.947 466.57C834.077 466.928 834.354 467.27 834.777 467.596C835.786 468.377 836.975 469.158 838.342 469.939C839.742 470.721 840.897 471.453 841.809 472.137C843.176 473.178 843.859 474.399 843.859 475.799C843.859 477.068 843.518 478.224 842.834 479.266C842.15 480.275 841.239 481.072 840.1 481.658C838.96 482.244 837.707 482.537 836.34 482.537ZM858.703 482.146C858.573 482.016 858.508 481.772 858.508 481.414C858.508 480.958 858.573 480.73 858.703 480.73C858.996 480.73 859.387 480.698 859.875 480.633C860.363 480.535 860.819 480.405 861.242 480.242C861.665 480.079 861.91 479.917 861.975 479.754C862.105 479.298 862.186 478.712 862.219 477.996C862.284 477.28 862.316 476.417 862.316 475.408V456.463C862.316 455.454 862.284 454.591 862.219 453.875C862.186 453.126 862.105 452.54 861.975 452.117C861.91 451.922 861.665 451.759 861.242 451.629C860.819 451.466 860.363 451.336 859.875 451.238C859.387 451.141 858.996 451.092 858.703 451.092C858.573 451.092 858.508 450.88 858.508 450.457C858.508 450.066 858.573 449.806 858.703 449.676C858.996 449.676 859.484 449.708 860.168 449.773C860.884 449.806 861.649 449.855 862.463 449.92C863.277 449.952 863.977 449.969 864.562 449.969C865.604 449.969 866.646 449.936 867.688 449.871C868.729 449.773 869.576 449.708 870.227 449.676C870.292 449.806 870.308 450.083 870.275 450.506C870.275 450.896 870.227 451.092 870.129 451.092C869.934 451.092 869.592 451.157 869.104 451.287C868.615 451.385 868.16 451.515 867.736 451.678C867.313 451.808 867.069 451.954 867.004 452.117C866.711 453.224 866.564 454.738 866.564 456.658V464.617L866.906 464.91H867.248C868.29 464.91 869.234 464.438 870.08 463.494C872.001 461.378 873.645 459.49 875.012 457.83C876.411 456.17 877.567 454.754 878.479 453.582C879.26 452.638 879.65 452.02 879.65 451.727C879.65 451.173 878.723 450.896 876.867 450.896C876.737 450.896 876.672 450.75 876.672 450.457C876.672 450.294 876.672 450.164 876.672 450.066C876.704 449.936 876.737 449.806 876.77 449.676C877.714 449.741 878.658 449.806 879.602 449.871C880.546 449.936 881.343 449.969 881.994 449.969C882.548 449.969 883.15 449.952 883.801 449.92C884.484 449.855 885.103 449.806 885.656 449.773C886.242 449.708 886.665 449.676 886.926 449.676C886.991 449.806 887.007 450.05 886.975 450.408C886.975 450.734 886.926 450.896 886.828 450.896C884.875 451.124 883.378 451.808 882.336 452.947L872.521 464.373C872.261 464.666 872.375 465.105 872.863 465.691L884.631 478.631C885.282 479.314 886.112 479.835 887.121 480.193C888.13 480.551 889.025 480.73 889.807 480.73C889.969 480.73 890.051 481.023 890.051 481.609C890.051 481.772 890.018 481.951 889.953 482.146C888.326 482.081 887.007 482.033 885.998 482C884.989 481.935 884.289 481.902 883.898 481.902C882.531 481.902 881.294 481.935 880.188 482C879.113 482.033 878.153 482.081 877.307 482.146C877.176 482.016 877.111 481.74 877.111 481.316C877.111 480.926 877.176 480.73 877.307 480.73C877.697 480.73 878.137 480.665 878.625 480.535C879.146 480.405 879.406 480.21 879.406 479.949C879.406 478.908 875.712 474.594 868.322 467.01C868.192 466.88 867.72 466.814 866.906 466.814C866.678 466.814 866.564 466.945 866.564 467.205V475.213C866.564 477.101 866.711 478.615 867.004 479.754C867.069 479.884 867.313 480.031 867.736 480.193C868.16 480.356 868.615 480.486 869.104 480.584C869.592 480.682 869.934 480.73 870.129 480.73C870.227 480.73 870.275 480.926 870.275 481.316C870.308 481.707 870.292 481.984 870.227 482.146C868.599 482.081 867.313 482.033 866.369 482C865.425 481.935 864.823 481.902 864.562 481.902L858.703 482.146ZM902.014 482.293C900.223 482.293 898.579 481.821 897.082 480.877C895.585 479.933 894.38 478.68 893.469 477.117C892.59 475.522 892.15 473.748 892.15 471.795C892.15 469.516 892.574 467.547 893.42 465.887C894.266 464.227 895.422 462.957 896.887 462.078C898.352 461.167 899.995 460.711 901.818 460.711C903.316 460.711 904.634 461.004 905.773 461.59C906.913 462.143 907.792 462.859 908.41 463.738C908.996 464.65 909.419 465.577 909.68 466.521C909.973 467.433 910.119 468.344 910.119 469.256C910.119 469.907 910.021 470.314 909.826 470.477C909.631 470.607 909.257 470.672 908.703 470.672H896.398C896.138 470.672 896.008 470.753 896.008 470.916C896.008 472.283 896.285 473.602 896.838 474.871C897.391 476.108 898.205 477.133 899.279 477.947C900.354 478.761 901.672 479.168 903.234 479.168C904.602 479.168 905.741 478.973 906.652 478.582C907.596 478.159 908.28 477.785 908.703 477.459L909.045 477.215C909.24 477.215 909.338 477.426 909.338 477.85C909.338 478.077 909.24 478.37 909.045 478.729C908.394 479.64 907.434 480.47 906.164 481.219C904.895 481.935 903.511 482.293 902.014 482.293ZM896.398 468.621H905.92C906.083 468.621 906.164 468.458 906.164 468.133C906.164 467.417 905.969 466.635 905.578 465.789C905.22 464.91 904.667 464.145 903.918 463.494C903.169 462.843 902.225 462.518 901.086 462.518C900.044 462.518 899.149 462.876 898.4 463.592C897.652 464.275 897.082 465.073 896.691 465.984C896.301 466.863 896.105 467.628 896.105 468.279C896.105 468.507 896.203 468.621 896.398 468.621ZM923.01 482.293C921.219 482.293 919.576 481.821 918.078 480.877C916.581 479.933 915.376 478.68 914.465 477.117C913.586 475.522 913.146 473.748 913.146 471.795C913.146 469.516 913.57 467.547 914.416 465.887C915.262 464.227 916.418 462.957 917.883 462.078C919.348 461.167 920.992 460.711 922.814 460.711C924.312 460.711 925.63 461.004 926.77 461.59C927.909 462.143 928.788 462.859 929.406 463.738C929.992 464.65 930.415 465.577 930.676 466.521C930.969 467.433 931.115 468.344 931.115 469.256C931.115 469.907 931.018 470.314 930.822 470.477C930.627 470.607 930.253 470.672 929.699 470.672H917.395C917.134 470.672 917.004 470.753 917.004 470.916C917.004 472.283 917.281 473.602 917.834 474.871C918.387 476.108 919.201 477.133 920.275 477.947C921.35 478.761 922.668 479.168 924.23 479.168C925.598 479.168 926.737 478.973 927.648 478.582C928.592 478.159 929.276 477.785 929.699 477.459L930.041 477.215C930.236 477.215 930.334 477.426 930.334 477.85C930.334 478.077 930.236 478.37 930.041 478.729C929.39 479.64 928.43 480.47 927.16 481.219C925.891 481.935 924.507 482.293 923.01 482.293ZM917.395 468.621H926.916C927.079 468.621 927.16 468.458 927.16 468.133C927.16 467.417 926.965 466.635 926.574 465.789C926.216 464.91 925.663 464.145 924.914 463.494C924.165 462.843 923.221 462.518 922.082 462.518C921.04 462.518 920.145 462.876 919.396 463.592C918.648 464.275 918.078 465.073 917.688 465.984C917.297 466.863 917.102 467.628 917.102 468.279C917.102 468.507 917.199 468.621 917.395 468.621ZM933.215 482.146C933.085 482.016 933.02 481.74 933.02 481.316C933.02 480.926 933.085 480.73 933.215 480.73C933.475 480.73 933.833 480.682 934.289 480.584C934.745 480.486 935.168 480.356 935.559 480.193C935.949 480.031 936.161 479.884 936.193 479.754C936.324 479.298 936.405 478.777 936.438 478.191C936.503 477.605 936.535 476.987 936.535 476.336V455.193C936.535 454.087 936.438 453.045 936.242 452.068C936.112 451.548 935.282 451.287 933.752 451.287H933.312C933.117 451.287 933.02 451.108 933.02 450.75C933.02 450.229 933.117 449.969 933.312 449.969C934.973 449.806 936.372 449.546 937.512 449.188C938.651 448.797 939.432 448.488 939.855 448.26L940.1 448.113H940.197C940.327 448.113 940.458 448.211 940.588 448.406C940.718 448.569 940.799 448.732 940.832 448.895C940.474 449.969 940.295 451.385 940.295 453.143V470.232C940.946 470.102 941.353 469.956 941.516 469.793L943.762 467.889L945.52 466.424C946.073 465.968 946.545 465.545 946.936 465.154C947.359 464.764 947.57 464.406 947.57 464.08C947.57 463.657 947.212 463.429 946.496 463.396C945.845 463.364 945.471 463.299 945.373 463.201C945.113 462.55 945.129 462.176 945.422 462.078H949.279C950.419 462.078 951.346 462.046 952.062 461.98C952.779 461.915 953.641 461.867 954.65 461.834C954.846 461.867 954.927 462.111 954.895 462.566C954.862 462.99 954.764 463.201 954.602 463.201C954.341 463.201 953.967 463.25 953.479 463.348C953.023 463.445 952.583 463.559 952.16 463.689C951.737 463.787 951.428 463.901 951.232 464.031C950.874 464.227 950.256 464.65 949.377 465.301C948.531 465.952 947.619 466.701 946.643 467.547C945.666 468.361 944.787 469.158 944.006 469.939C946.512 472.609 948.465 474.757 949.865 476.385C951.298 478.012 952.225 479.021 952.648 479.412C953.202 479.868 953.902 480.226 954.748 480.486C955.594 480.714 956.197 480.828 956.555 480.828C956.685 480.828 956.75 481.089 956.75 481.609C956.75 481.935 956.734 482.114 956.701 482.146L951.379 481.902L946.301 482.146C946.171 482.016 946.105 481.756 946.105 481.365C946.105 481.007 946.171 480.828 946.301 480.828C946.626 480.828 947.001 480.763 947.424 480.633C947.847 480.503 948.059 480.356 948.059 480.193C948.059 480.128 948.042 480.079 948.01 480.047L940.881 472.332L940.295 472.479V475.408C940.295 476.482 940.327 477.394 940.393 478.143C940.49 478.859 940.588 479.396 940.686 479.754C940.751 479.884 940.979 480.031 941.369 480.193C941.76 480.356 942.183 480.486 942.639 480.584C943.094 480.682 943.42 480.73 943.615 480.73C943.713 480.73 943.778 480.926 943.811 481.316C943.843 481.707 943.827 481.984 943.762 482.146L938.537 481.902L933.215 482.146ZM958.312 482.146C958.182 482.016 958.117 481.74 958.117 481.316C958.117 480.926 958.182 480.73 958.312 480.73C958.573 480.73 958.931 480.682 959.387 480.584C959.842 480.486 960.266 480.356 960.656 480.193C961.047 480.031 961.258 479.884 961.291 479.754C961.421 479.298 961.503 478.777 961.535 478.191C961.6 477.605 961.633 476.987 961.633 476.336V467.107C961.633 465.87 961.405 464.992 960.949 464.471C960.624 464.048 960.233 463.787 959.777 463.689C959.322 463.559 958.931 463.494 958.605 463.494C958.28 463.462 958.117 463.413 958.117 463.348C958.117 462.566 958.215 462.16 958.41 462.127C960.135 461.867 961.454 461.655 962.365 461.492C963.277 461.297 964.09 461.118 964.807 460.955L965.393 460.809C965.523 460.776 965.604 460.906 965.637 461.199C965.669 461.492 965.669 461.704 965.637 461.834C965.572 462.485 965.507 463.104 965.441 463.689C965.409 464.275 965.393 464.829 965.393 465.35V475.408C965.393 476.352 965.425 477.182 965.49 477.898C965.555 478.615 965.653 479.233 965.783 479.754C965.848 479.884 966.076 480.031 966.467 480.193C966.857 480.356 967.281 480.486 967.736 480.584C968.192 480.682 968.518 480.73 968.713 480.73C968.811 480.73 968.876 480.926 968.908 481.316C968.941 481.707 968.924 481.984 968.859 482.146L963.635 481.902L958.312 482.146ZM963.146 455.486C962.495 455.486 961.926 455.242 961.438 454.754C960.949 454.266 960.705 453.696 960.705 453.045C960.705 452.361 960.949 451.792 961.438 451.336C961.926 450.848 962.495 450.604 963.146 450.604C963.83 450.604 964.4 450.848 964.855 451.336C965.344 451.792 965.588 452.361 965.588 453.045C965.588 453.696 965.344 454.266 964.855 454.754C964.4 455.242 963.83 455.486 963.146 455.486ZM972.18 458.318C971.724 458.318 971.398 458.042 971.203 457.488C972.375 456.805 973.238 456.023 973.791 455.145C974.377 454.233 974.67 453.533 974.67 453.045C974.67 452.654 974.507 452.264 974.182 451.873C973.856 451.482 973.514 451.092 973.156 450.701C972.831 450.311 972.668 449.92 972.668 449.529C972.668 448.943 972.993 448.455 973.645 448.064C974.296 447.641 975.028 447.43 975.842 447.43C976.167 447.43 976.493 447.479 976.818 447.576C977.274 448.227 977.502 449.367 977.502 450.994C977.502 451.84 977.323 452.687 976.965 453.533C976.639 454.347 976.232 455.031 975.744 455.584C975.061 456.333 974.361 456.984 973.645 457.537C972.928 458.058 972.44 458.318 972.18 458.318ZM986.682 482.537C985.673 482.537 984.761 482.423 983.947 482.195C983.133 481.967 982.141 481.772 980.969 481.609C980.839 481.251 980.708 480.763 980.578 480.145C980.448 479.526 980.334 478.875 980.236 478.191C980.171 477.508 980.139 476.954 980.139 476.531C980.399 476.336 980.594 476.238 980.725 476.238C981.213 476.238 981.473 476.336 981.506 476.531C981.636 477.182 981.962 477.833 982.482 478.484C983.003 479.135 983.638 479.689 984.387 480.145C985.135 480.568 985.9 480.779 986.682 480.779C987.723 480.779 988.57 480.503 989.221 479.949C989.904 479.363 990.246 478.533 990.246 477.459C990.246 476.32 989.807 475.376 988.928 474.627C988.244 474.074 987.658 473.683 987.17 473.455C986.714 473.195 986.258 472.967 985.803 472.771C985.38 472.544 984.842 472.234 984.191 471.844C981.652 470.379 980.383 468.637 980.383 466.619C980.383 465.447 980.708 464.422 981.359 463.543C982.01 462.632 982.873 461.932 983.947 461.443C985.054 460.923 986.226 460.662 987.463 460.662C987.821 460.662 988.228 460.695 988.684 460.76C989.139 460.792 989.644 460.841 990.197 460.906C990.751 461.004 991.206 461.085 991.564 461.15C991.923 461.215 992.215 461.264 992.443 461.297C992.801 462.794 992.997 464.454 993.029 466.277C993.029 466.44 992.818 466.521 992.395 466.521C991.939 466.521 991.695 466.408 991.662 466.18C991.499 465.268 991.027 464.406 990.246 463.592C989.497 462.778 988.635 462.371 987.658 462.371C985.314 462.371 984.143 463.331 984.143 465.252C984.143 465.74 984.191 466.18 984.289 466.57C984.419 466.928 984.696 467.27 985.119 467.596C986.128 468.377 987.316 469.158 988.684 469.939C990.083 470.721 991.239 471.453 992.15 472.137C993.518 473.178 994.201 474.399 994.201 475.799C994.201 477.068 993.859 478.224 993.176 479.266C992.492 480.275 991.581 481.072 990.441 481.658C989.302 482.244 988.049 482.537 986.682 482.537ZM1018.86 482.488C1018.08 482.488 1017.25 482.423 1016.37 482.293C1015.49 482.195 1014.76 482.081 1014.17 481.951C1012.97 481.723 1012.09 481.544 1011.54 481.414C1011.01 481.251 1010.53 481.137 1010.07 481.072C1009.65 479.054 1009.34 477.41 1009.14 476.141C1008.95 474.839 1008.85 473.895 1008.85 473.309C1008.85 473.113 1009.11 473.016 1009.63 473.016C1010.22 473.016 1010.62 473.162 1010.85 473.455C1011.99 478.143 1014.69 480.486 1018.96 480.486C1020.58 480.486 1021.97 479.998 1023.11 479.021C1024.25 478.045 1024.82 476.661 1024.82 474.871C1024.82 474.285 1024.69 473.569 1024.43 472.723C1024.2 471.876 1023.66 471.144 1022.81 470.525C1022.16 470.037 1021.63 469.679 1021.2 469.451C1020.78 469.191 1020.36 468.963 1019.93 468.768C1019.51 468.54 1018.97 468.23 1018.32 467.84L1016.37 466.668C1015.36 466.049 1014.35 465.35 1013.34 464.568C1012.33 463.755 1011.49 462.811 1010.8 461.736C1010.15 460.662 1009.83 459.441 1009.83 458.074C1009.83 456.349 1010.27 454.852 1011.14 453.582C1012.06 452.28 1013.23 451.271 1014.66 450.555C1016.12 449.839 1017.7 449.48 1019.4 449.48C1020.11 449.48 1020.78 449.529 1021.4 449.627C1022.05 449.692 1022.59 449.773 1023.01 449.871C1023.99 450.099 1024.67 450.278 1025.06 450.408C1025.48 450.538 1026.05 450.685 1026.77 450.848C1027.16 452.54 1027.36 454.868 1027.36 457.83C1027.36 458.058 1027.19 458.172 1026.87 458.172C1026.05 458.172 1025.63 458.009 1025.6 457.684C1025.43 456.707 1025.08 455.747 1024.52 454.803C1023.97 453.859 1023.22 453.077 1022.28 452.459C1021.33 451.808 1020.21 451.482 1018.91 451.482C1017.57 451.482 1016.53 451.743 1015.78 452.264C1015.03 452.752 1014.5 453.387 1014.17 454.168C1013.88 454.917 1013.73 455.714 1013.73 456.561C1013.73 457.374 1013.93 458.188 1014.32 459.002C1014.71 459.816 1015.28 460.499 1016.03 461.053C1017.04 461.801 1018.05 462.501 1019.05 463.152C1020.1 463.803 1021.17 464.471 1022.28 465.154C1023.32 465.805 1024.36 466.538 1025.4 467.352C1026.44 468.133 1027.31 469.028 1027.99 470.037C1028.71 471.046 1029.06 472.218 1029.06 473.553C1029.06 475.278 1028.59 476.824 1027.65 478.191C1026.7 479.526 1025.45 480.584 1023.89 481.365C1022.36 482.114 1020.68 482.488 1018.86 482.488ZM1032.58 482.146C1032.45 482.016 1032.38 481.74 1032.38 481.316C1032.38 480.926 1032.45 480.73 1032.58 480.73C1032.84 480.73 1033.2 480.682 1033.65 480.584C1034.11 480.486 1034.53 480.356 1034.92 480.193C1035.31 480.031 1035.53 479.884 1035.56 479.754C1035.69 479.298 1035.77 478.777 1035.8 478.191C1035.87 477.605 1035.9 476.987 1035.9 476.336V467.107C1035.9 465.87 1035.67 464.992 1035.22 464.471C1034.89 464.048 1034.5 463.787 1034.04 463.689C1033.59 463.559 1033.2 463.494 1032.87 463.494C1032.55 463.462 1032.38 463.413 1032.38 463.348C1032.38 462.566 1032.48 462.16 1032.68 462.127C1034.4 461.867 1035.72 461.655 1036.63 461.492C1037.54 461.297 1038.36 461.118 1039.07 460.955L1039.66 460.809C1039.79 460.776 1039.87 460.906 1039.9 461.199C1039.94 461.492 1039.94 461.704 1039.9 461.834C1039.84 462.485 1039.77 463.104 1039.71 463.689C1039.68 464.275 1039.66 464.829 1039.66 465.35V475.408C1039.66 476.352 1039.69 477.182 1039.76 477.898C1039.82 478.615 1039.92 479.233 1040.05 479.754C1040.12 479.884 1040.34 480.031 1040.73 480.193C1041.12 480.356 1041.55 480.486 1042 480.584C1042.46 480.682 1042.79 480.73 1042.98 480.73C1043.08 480.73 1043.14 480.926 1043.18 481.316C1043.21 481.707 1043.19 481.984 1043.13 482.146L1037.9 481.902L1032.58 482.146ZM1037.41 455.486C1036.76 455.486 1036.19 455.242 1035.71 454.754C1035.22 454.266 1034.97 453.696 1034.97 453.045C1034.97 452.361 1035.22 451.792 1035.71 451.336C1036.19 450.848 1036.76 450.604 1037.41 450.604C1038.1 450.604 1038.67 450.848 1039.12 451.336C1039.61 451.792 1039.86 452.361 1039.86 453.045C1039.86 453.696 1039.61 454.266 1039.12 454.754C1038.67 455.242 1038.1 455.486 1037.41 455.486ZM1054.21 482.342C1052.58 482.342 1051.22 481.805 1050.11 480.73C1049.04 479.656 1048.5 478.126 1048.5 476.141V463.738H1045.67C1045.5 463.738 1045.42 463.396 1045.42 462.713C1045.42 462.518 1045.44 462.404 1045.47 462.371C1046.45 461.915 1047.47 461.053 1048.55 459.783C1049.3 458.904 1049.85 458.139 1050.21 457.488C1050.6 456.837 1050.79 456.447 1050.79 456.316C1051.77 456.316 1052.26 456.398 1052.26 456.561V461.395L1056.12 461.443H1058.85C1059.11 461.443 1059.24 461.59 1059.24 461.883C1059.24 462.501 1059.08 463.12 1058.75 463.738H1052.26V475.701C1052.26 477.003 1052.58 478.045 1053.23 478.826C1053.92 479.607 1054.8 479.998 1055.87 479.998C1056.88 479.998 1057.89 479.689 1058.9 479.07C1059 479.005 1059.14 479.152 1059.34 479.51C1059.53 479.835 1059.61 480.014 1059.58 480.047C1059.09 480.568 1058.35 481.089 1057.34 481.609C1056.33 482.098 1055.29 482.342 1054.21 482.342ZM1071.59 482.293C1069.8 482.293 1068.16 481.821 1066.66 480.877C1065.16 479.933 1063.96 478.68 1063.05 477.117C1062.17 475.522 1061.73 473.748 1061.73 471.795C1061.73 469.516 1062.15 467.547 1063 465.887C1063.85 464.227 1065 462.957 1066.47 462.078C1067.93 461.167 1069.58 460.711 1071.4 460.711C1072.9 460.711 1074.21 461.004 1075.35 461.59C1076.49 462.143 1077.37 462.859 1077.99 463.738C1078.58 464.65 1079 465.577 1079.26 466.521C1079.55 467.433 1079.7 468.344 1079.7 469.256C1079.7 469.907 1079.6 470.314 1079.41 470.477C1079.21 470.607 1078.84 470.672 1078.28 470.672H1065.98C1065.72 470.672 1065.59 470.753 1065.59 470.916C1065.59 472.283 1065.86 473.602 1066.42 474.871C1066.97 476.108 1067.79 477.133 1068.86 477.947C1069.93 478.761 1071.25 479.168 1072.81 479.168C1074.18 479.168 1075.32 478.973 1076.23 478.582C1077.18 478.159 1077.86 477.785 1078.28 477.459L1078.62 477.215C1078.82 477.215 1078.92 477.426 1078.92 477.85C1078.92 478.077 1078.82 478.37 1078.62 478.729C1077.97 479.64 1077.01 480.47 1075.74 481.219C1074.47 481.935 1073.09 482.293 1071.59 482.293ZM1065.98 468.621H1075.5C1075.66 468.621 1075.74 468.458 1075.74 468.133C1075.74 467.417 1075.55 466.635 1075.16 465.789C1074.8 464.91 1074.25 464.145 1073.5 463.494C1072.75 462.843 1071.81 462.518 1070.67 462.518C1069.62 462.518 1068.73 462.876 1067.98 463.592C1067.23 464.275 1066.66 465.073 1066.27 465.984C1065.88 466.863 1065.69 467.628 1065.69 468.279C1065.69 468.507 1065.78 468.621 1065.98 468.621ZM1086.63 482.732C1085.85 482.732 1085.17 482.456 1084.58 481.902C1084.03 481.349 1083.75 480.682 1083.75 479.9C1083.75 479.119 1084.03 478.452 1084.58 477.898C1085.14 477.312 1085.82 477.02 1086.63 477.02C1087.48 477.02 1088.16 477.312 1088.68 477.898C1089.2 478.452 1089.46 479.119 1089.46 479.9C1089.46 480.682 1089.19 481.349 1088.63 481.902C1088.08 482.456 1087.41 482.732 1086.63 482.732Z" fill="black"/>
</svg>
