<svg width="2329" height="654" viewBox="0 0 2329 654" fill="none" xmlns="http://www.w3.org/2000/svg">
<path d="M582.22 381.527C581.751 381.059 581.517 380.18 581.517 378.891C581.517 377.25 581.751 376.43 582.22 376.43C583.275 376.43 584.681 376.312 586.439 376.078C588.197 375.727 589.837 375.258 591.361 374.672C592.884 374.086 593.763 373.5 593.997 372.914C594.466 371.273 594.759 369.164 594.876 366.586C595.111 364.008 595.228 360.902 595.228 357.27V289.066C595.228 285.434 595.111 282.328 594.876 279.75C594.759 277.055 594.466 274.945 593.997 273.422C593.763 272.719 592.884 272.133 591.361 271.664C589.837 271.078 588.197 270.609 586.439 270.258C584.681 269.906 583.275 269.73 582.22 269.73C581.751 269.73 581.517 268.969 581.517 267.445C581.517 266.039 581.751 265.102 582.22 264.633C583.275 264.633 585.033 264.75 587.494 264.984C590.072 265.102 592.826 265.277 595.755 265.512C598.685 265.629 601.204 265.688 603.314 265.688C607.064 265.688 610.814 265.57 614.564 265.336C618.314 264.984 621.361 264.75 623.704 264.633C623.939 265.102 623.997 266.098 623.88 267.621C623.88 269.027 623.704 269.73 623.353 269.73C622.65 269.73 621.419 269.965 619.661 270.434C617.904 270.785 616.263 271.254 614.74 271.84C613.216 272.309 612.337 272.836 612.103 273.422C611.048 277.406 610.521 282.855 610.521 289.77V318.422L611.751 319.477H612.982C616.732 319.477 620.13 317.777 623.177 314.379C630.091 306.762 636.009 299.965 640.931 293.988C645.97 288.012 650.13 282.914 653.411 278.695C656.224 275.297 657.63 273.07 657.63 272.016C657.63 270.023 654.29 269.027 647.611 269.027C647.142 269.027 646.908 268.5 646.908 267.445C646.908 266.859 646.908 266.391 646.908 266.039C647.025 265.57 647.142 265.102 647.259 264.633C650.658 264.867 654.056 265.102 657.454 265.336C660.853 265.57 663.724 265.688 666.068 265.688C668.06 265.688 670.228 265.629 672.572 265.512C675.033 265.277 677.259 265.102 679.251 264.984C681.361 264.75 682.884 264.633 683.822 264.633C684.056 265.102 684.115 265.98 683.997 267.27C683.997 268.441 683.822 269.027 683.47 269.027C676.439 269.848 671.048 272.309 667.298 276.41L631.966 317.543C631.029 318.598 631.439 320.18 633.197 322.289L675.56 368.871C677.904 371.332 680.892 373.207 684.525 374.496C688.158 375.785 691.38 376.43 694.193 376.43C694.779 376.43 695.072 377.484 695.072 379.594C695.072 380.18 694.954 380.824 694.72 381.527C688.861 381.293 684.115 381.117 680.482 381C676.849 380.766 674.329 380.648 672.923 380.648C668.001 380.648 663.548 380.766 659.564 381C655.697 381.117 652.24 381.293 649.193 381.527C648.724 381.059 648.49 380.062 648.49 378.539C648.49 377.133 648.724 376.43 649.193 376.43C650.599 376.43 652.181 376.195 653.939 375.727C655.814 375.258 656.751 374.555 656.751 373.617C656.751 369.867 643.451 354.34 616.849 327.035C616.38 326.566 614.681 326.332 611.751 326.332C610.931 326.332 610.521 326.801 610.521 327.738V356.566C610.521 363.363 611.048 368.812 612.103 372.914C612.337 373.383 613.216 373.91 614.74 374.496C616.263 375.082 617.904 375.551 619.661 375.902C621.419 376.254 622.65 376.43 623.353 376.43C623.704 376.43 623.88 377.133 623.88 378.539C623.997 379.945 623.939 380.941 623.704 381.527C617.845 381.293 613.216 381.117 609.818 381C606.419 380.766 604.251 380.648 603.314 380.648L582.22 381.527ZM738.138 382.055C731.693 382.055 725.775 380.355 720.384 376.957C714.994 373.559 710.658 369.047 707.376 363.422C704.212 357.68 702.63 351.293 702.63 344.262C702.63 336.059 704.154 328.969 707.201 322.992C710.247 317.016 714.408 312.445 719.681 309.281C724.954 306 730.872 304.359 737.435 304.359C742.826 304.359 747.572 305.414 751.673 307.523C755.775 309.516 758.939 312.094 761.165 315.258C763.275 318.539 764.798 321.879 765.736 325.277C766.79 328.559 767.318 331.84 767.318 335.121C767.318 337.465 766.966 338.93 766.263 339.516C765.56 339.984 764.212 340.219 762.22 340.219H717.923C716.986 340.219 716.517 340.512 716.517 341.098C716.517 346.02 717.513 350.766 719.505 355.336C721.497 359.789 724.427 363.48 728.294 366.41C732.161 369.34 736.908 370.805 742.533 370.805C747.454 370.805 751.556 370.102 754.837 368.695C758.236 367.172 760.697 365.824 762.22 364.652L763.451 363.773C764.154 363.773 764.505 364.535 764.505 366.059C764.505 366.879 764.154 367.934 763.451 369.223C761.107 372.504 757.65 375.492 753.079 378.188C748.509 380.766 743.529 382.055 738.138 382.055ZM717.923 332.836H752.201C752.786 332.836 753.079 332.25 753.079 331.078C753.079 328.5 752.376 325.688 750.97 322.641C749.681 319.477 747.689 316.723 744.994 314.379C742.298 312.035 738.9 310.863 734.798 310.863C731.048 310.863 727.826 312.152 725.13 314.73C722.435 317.191 720.384 320.062 718.978 323.344C717.572 326.508 716.869 329.262 716.869 331.605C716.869 332.426 717.22 332.836 717.923 332.836ZM813.724 382.055C807.279 382.055 801.361 380.355 795.97 376.957C790.579 373.559 786.244 369.047 782.962 363.422C779.798 357.68 778.216 351.293 778.216 344.262C778.216 336.059 779.74 328.969 782.786 322.992C785.833 317.016 789.994 312.445 795.267 309.281C800.54 306 806.458 304.359 813.021 304.359C818.411 304.359 823.158 305.414 827.259 307.523C831.361 309.516 834.525 312.094 836.751 315.258C838.861 318.539 840.384 321.879 841.322 325.277C842.376 328.559 842.904 331.84 842.904 335.121C842.904 337.465 842.552 338.93 841.849 339.516C841.146 339.984 839.798 340.219 837.806 340.219H793.509C792.572 340.219 792.103 340.512 792.103 341.098C792.103 346.02 793.099 350.766 795.091 355.336C797.083 359.789 800.013 363.48 803.88 366.41C807.747 369.34 812.494 370.805 818.119 370.805C823.04 370.805 827.142 370.102 830.423 368.695C833.822 367.172 836.283 365.824 837.806 364.652L839.036 363.773C839.74 363.773 840.091 364.535 840.091 366.059C840.091 366.879 839.74 367.934 839.036 369.223C836.693 372.504 833.236 375.492 828.665 378.188C824.095 380.766 819.115 382.055 813.724 382.055ZM793.509 332.836H827.786C828.372 332.836 828.665 332.25 828.665 331.078C828.665 328.5 827.962 325.688 826.556 322.641C825.267 319.477 823.275 316.723 820.579 314.379C817.884 312.035 814.486 310.863 810.384 310.863C806.634 310.863 803.411 312.152 800.716 314.73C798.021 317.191 795.97 320.062 794.564 323.344C793.158 326.508 792.454 329.262 792.454 331.605C792.454 332.426 792.806 332.836 793.509 332.836ZM850.462 381.527C849.994 381.059 849.759 380.062 849.759 378.539C849.759 377.133 849.994 376.43 850.462 376.43C851.4 376.43 852.689 376.254 854.329 375.902C855.97 375.551 857.494 375.082 858.9 374.496C860.306 373.91 861.068 373.383 861.185 372.914C861.654 371.273 861.947 369.398 862.064 367.289C862.298 365.18 862.415 362.953 862.415 360.609V284.496C862.415 280.512 862.064 276.762 861.361 273.246C860.892 271.371 857.904 270.434 852.396 270.434H850.814C850.111 270.434 849.759 269.789 849.759 268.5C849.759 266.625 850.111 265.688 850.814 265.688C856.79 265.102 861.829 264.164 865.931 262.875C870.033 261.469 872.845 260.355 874.369 259.535L875.247 259.008H875.599C876.068 259.008 876.536 259.359 877.005 260.062C877.474 260.648 877.767 261.234 877.884 261.82C876.595 265.688 875.951 270.785 875.951 277.113V338.637C878.294 338.168 879.759 337.641 880.345 337.055L888.431 330.199L894.759 324.926C896.751 323.285 898.451 321.762 899.857 320.355C901.38 318.949 902.142 317.66 902.142 316.488C902.142 314.965 900.853 314.145 898.275 314.027C895.931 313.91 894.583 313.676 894.232 313.324C893.294 310.98 893.353 309.633 894.408 309.281H908.294C912.396 309.281 915.736 309.164 918.314 308.93C920.892 308.695 923.997 308.52 927.63 308.402C928.333 308.52 928.626 309.398 928.509 311.039C928.392 312.562 928.04 313.324 927.454 313.324C926.517 313.324 925.169 313.5 923.411 313.852C921.771 314.203 920.189 314.613 918.665 315.082C917.142 315.434 916.029 315.844 915.326 316.312C914.036 317.016 911.81 318.539 908.646 320.883C905.599 323.227 902.318 325.922 898.802 328.969C895.286 331.898 892.122 334.77 889.31 337.582C898.333 347.191 905.365 354.926 910.404 360.785C915.56 366.645 918.9 370.277 920.423 371.684C922.415 373.324 924.935 374.613 927.982 375.551C931.029 376.371 933.197 376.781 934.486 376.781C934.954 376.781 935.189 377.719 935.189 379.594C935.189 380.766 935.13 381.41 935.013 381.527L915.853 380.648L897.572 381.527C897.103 381.059 896.869 380.121 896.869 378.715C896.869 377.426 897.103 376.781 897.572 376.781C898.744 376.781 900.091 376.547 901.615 376.078C903.138 375.609 903.9 375.082 903.9 374.496C903.9 374.262 903.841 374.086 903.724 373.969L878.06 346.195L875.951 346.723V357.27C875.951 361.137 876.068 364.418 876.302 367.113C876.654 369.691 877.005 371.625 877.357 372.914C877.591 373.383 878.411 373.91 879.818 374.496C881.224 375.082 882.747 375.551 884.388 375.902C886.029 376.254 887.201 376.43 887.904 376.43C888.255 376.43 888.49 377.133 888.607 378.539C888.724 379.945 888.665 380.941 888.431 381.527L869.622 380.648L850.462 381.527ZM940.814 381.527C940.345 381.059 940.111 380.062 940.111 378.539C940.111 377.133 940.345 376.43 940.814 376.43C941.751 376.43 943.04 376.254 944.681 375.902C946.322 375.551 947.845 375.082 949.251 374.496C950.658 373.91 951.419 373.383 951.536 372.914C952.005 371.273 952.298 369.398 952.415 367.289C952.65 365.18 952.767 362.953 952.767 360.609V327.387C952.767 322.934 951.947 319.77 950.306 317.895C949.134 316.371 947.728 315.434 946.087 315.082C944.447 314.613 943.04 314.379 941.869 314.379C940.697 314.262 940.111 314.086 940.111 313.852C940.111 311.039 940.462 309.574 941.165 309.457C947.376 308.52 952.122 307.758 955.404 307.172C958.685 306.469 961.615 305.824 964.193 305.238L966.302 304.711C966.771 304.594 967.064 305.062 967.181 306.117C967.298 307.172 967.298 307.934 967.181 308.402C966.947 310.746 966.712 312.973 966.478 315.082C966.361 317.191 966.302 319.184 966.302 321.059V357.27C966.302 360.668 966.419 363.656 966.654 366.234C966.888 368.812 967.24 371.039 967.708 372.914C967.943 373.383 968.763 373.91 970.169 374.496C971.576 375.082 973.099 375.551 974.74 375.902C976.38 376.254 977.552 376.43 978.255 376.43C978.607 376.43 978.841 377.133 978.958 378.539C979.076 379.945 979.017 380.941 978.783 381.527L959.974 380.648L940.814 381.527ZM958.216 285.551C955.872 285.551 953.822 284.672 952.064 282.914C950.306 281.156 949.427 279.105 949.427 276.762C949.427 274.301 950.306 272.25 952.064 270.609C953.822 268.852 955.872 267.973 958.216 267.973C960.677 267.973 962.728 268.852 964.369 270.609C966.126 272.25 967.005 274.301 967.005 276.762C967.005 279.105 966.126 281.156 964.369 282.914C962.728 284.672 960.677 285.551 958.216 285.551ZM990.736 295.746C989.095 295.746 987.923 294.75 987.22 292.758C991.439 290.297 994.544 287.484 996.536 284.32C998.646 281.039 999.701 278.52 999.701 276.762C999.701 275.355 999.115 273.949 997.943 272.543C996.771 271.137 995.54 269.73 994.251 268.324C993.079 266.918 992.494 265.512 992.494 264.105C992.494 261.996 993.665 260.238 996.009 258.832C998.353 257.309 1000.99 256.547 1003.92 256.547C1005.09 256.547 1006.26 256.723 1007.43 257.074C1009.08 259.418 1009.9 263.52 1009.9 269.379C1009.9 272.426 1009.25 275.473 1007.96 278.52C1006.79 281.449 1005.33 283.91 1003.57 285.902C1001.11 288.598 998.587 290.941 996.009 292.934C993.431 294.809 991.673 295.746 990.736 295.746ZM1042.94 382.934C1039.31 382.934 1036.03 382.523 1033.1 381.703C1030.17 380.883 1026.6 380.18 1022.38 379.594C1021.91 378.305 1021.44 376.547 1020.97 374.32C1020.5 372.094 1020.09 369.75 1019.74 367.289C1019.51 364.828 1019.39 362.836 1019.39 361.312C1020.33 360.609 1021.03 360.258 1021.5 360.258C1023.26 360.258 1024.19 360.609 1024.31 361.312C1024.78 363.656 1025.95 366 1027.83 368.344C1029.7 370.688 1031.99 372.68 1034.68 374.32C1037.38 375.844 1040.13 376.605 1042.94 376.605C1046.69 376.605 1049.74 375.609 1052.08 373.617C1054.54 371.508 1055.77 368.52 1055.77 364.652C1055.77 360.551 1054.19 357.152 1051.03 354.457C1048.57 352.465 1046.46 351.059 1044.7 350.238C1043.06 349.301 1041.42 348.48 1039.78 347.777C1038.26 346.957 1036.32 345.844 1033.98 344.438C1024.84 339.164 1020.27 332.895 1020.27 325.629C1020.27 321.41 1021.44 317.719 1023.78 314.555C1026.13 311.273 1029.23 308.754 1033.1 306.996C1037.08 305.121 1041.3 304.184 1045.76 304.184C1047.04 304.184 1048.51 304.301 1050.15 304.535C1051.79 304.652 1053.61 304.828 1055.6 305.062C1057.59 305.414 1059.23 305.707 1060.52 305.941C1061.81 306.176 1062.86 306.352 1063.68 306.469C1064.97 311.859 1065.68 317.836 1065.79 324.398C1065.79 324.984 1065.03 325.277 1063.51 325.277C1061.87 325.277 1060.99 324.867 1060.87 324.047C1060.29 320.766 1058.59 317.66 1055.77 314.73C1053.08 311.801 1049.97 310.336 1046.46 310.336C1038.02 310.336 1033.8 313.793 1033.8 320.707C1033.8 322.465 1033.98 324.047 1034.33 325.453C1034.8 326.742 1035.79 327.973 1037.32 329.145C1040.95 331.957 1045.23 334.77 1050.15 337.582C1055.19 340.395 1059.35 343.031 1062.63 345.492C1067.55 349.242 1070.01 353.637 1070.01 358.676C1070.01 363.246 1068.78 367.406 1066.32 371.156C1063.86 374.789 1060.58 377.66 1056.48 379.77C1052.38 381.879 1047.86 382.934 1042.94 382.934ZM1179 382.055C1171.26 382.055 1164 380.531 1157.2 377.484C1150.52 374.438 1144.6 370.277 1139.45 365.004C1134.41 359.73 1130.42 353.637 1127.49 346.723C1124.68 339.691 1123.27 332.25 1123.27 324.398C1123.27 316.078 1124.74 308.285 1127.67 301.02C1130.6 293.637 1134.7 287.191 1139.97 281.684C1145.25 276.059 1151.34 271.664 1158.26 268.5C1165.29 265.336 1172.85 263.754 1180.93 263.754C1187.85 263.754 1194.88 264.105 1202.02 264.809C1209.17 265.512 1216.38 266.625 1223.65 268.148L1223.29 293.461C1223.29 295.219 1222.06 296.098 1219.6 296.098C1218.43 296.098 1217.67 295.805 1217.32 295.219C1216.97 293.695 1216.5 292.172 1215.91 290.648C1215.44 289.008 1214.39 286.898 1212.75 284.32C1209.93 280.219 1205.89 276.996 1200.62 274.652C1195.46 272.309 1189.08 271.137 1181.46 271.137C1175.72 271.137 1170.33 272.543 1165.29 275.355C1160.25 278.051 1155.79 281.742 1151.93 286.43C1148.18 291.117 1145.25 296.449 1143.14 302.426C1141.03 308.285 1139.97 314.379 1139.97 320.707C1139.97 330.434 1141.61 339.164 1144.9 346.898C1148.18 354.867 1153.33 361.488 1160.36 366.762C1167.51 371.918 1175.95 374.496 1185.68 374.496C1197.28 374.496 1206.24 371.098 1212.57 364.301C1214.45 362.309 1215.91 359.965 1216.97 357.27C1218.02 354.574 1218.84 352.23 1219.43 350.238C1220.01 348.246 1220.6 347.25 1221.18 347.25C1221.89 347.25 1222.71 347.367 1223.65 347.602C1224.7 347.719 1225.52 347.953 1226.11 348.305L1226.99 348.832C1226.99 349.535 1226.75 351.176 1226.28 353.754C1225.81 356.332 1225.23 359.203 1224.52 362.367C1223.82 365.414 1223.12 368.109 1222.42 370.453C1221.83 372.797 1221.36 374.086 1221.01 374.32C1212.34 379.477 1198.33 382.055 1179 382.055ZM1255.11 365.355C1244.1 353.871 1238.59 339.867 1238.59 323.344C1238.59 315.141 1240.05 307.465 1242.98 300.316C1245.91 293.051 1249.9 286.723 1254.93 281.332C1260.09 275.824 1266.07 271.547 1272.86 268.5C1279.66 265.336 1286.93 263.754 1294.66 263.754C1302.4 263.754 1309.66 265.336 1316.46 268.5C1323.26 271.547 1329.23 275.824 1334.39 281.332C1339.54 286.723 1343.59 293.051 1346.52 300.316C1349.45 307.465 1350.91 315.141 1350.91 323.344C1350.91 339.867 1345.4 353.871 1334.39 365.355C1326.89 373.324 1318.39 378.598 1308.9 381.176C1299.41 383.871 1289.92 383.871 1280.42 381.176C1271.05 378.598 1262.61 373.324 1255.11 365.355ZM1297.47 375.199C1304.97 375.199 1311.54 372.738 1317.16 367.816C1322.79 363.012 1326.89 357.035 1329.47 349.887C1332.16 342.621 1333.51 334.887 1333.51 326.684C1333.51 317.426 1331.99 308.578 1328.94 300.141C1325.89 291.82 1321.15 284.906 1314.7 279.398C1308.26 273.891 1300.7 271.137 1292.02 271.137C1284.64 271.137 1278.26 273.422 1272.86 277.992C1267.47 282.445 1263.31 288.363 1260.38 295.746C1257.45 303.012 1255.99 310.922 1255.99 319.477C1255.99 328.734 1257.51 337.582 1260.56 346.02C1263.61 354.34 1268.35 361.312 1274.8 366.938C1281.24 372.445 1288.8 375.199 1297.47 375.199ZM1366.91 381.527C1366.44 381.059 1366.2 380.18 1366.2 378.891C1366.2 377.25 1366.44 376.43 1366.91 376.43C1367.96 376.43 1369.37 376.312 1371.13 376.078C1372.88 375.727 1374.52 375.258 1376.05 374.672C1377.57 374.086 1378.45 373.5 1378.68 372.914C1379.51 369.984 1379.92 364.711 1379.92 357.094V289.418C1379.92 286.02 1379.8 283.031 1379.56 280.453C1379.45 277.875 1379.15 275.824 1378.68 274.301C1378.45 273.598 1377.51 272.953 1375.87 272.367C1374.35 271.781 1372.65 271.312 1370.77 270.961C1369.02 270.609 1367.61 270.434 1366.56 270.434C1366.09 270.434 1365.85 269.73 1365.85 268.324C1365.85 266.801 1366.09 265.805 1366.56 265.336C1369.6 265.453 1372.83 265.57 1376.22 265.688C1379.74 265.688 1383.49 265.688 1387.47 265.688C1390.17 265.688 1393.8 265.629 1398.37 265.512C1402.94 265.395 1408.45 265.219 1414.9 264.984C1421.46 264.75 1427.14 264.574 1431.95 264.457C1436.87 264.34 1440.97 264.281 1444.25 264.281C1444.49 265.922 1444.84 267.914 1445.31 270.258C1445.77 272.484 1446.36 274.945 1447.06 277.641C1447.65 280.453 1448.12 282.738 1448.47 284.496C1448.94 286.254 1449.23 287.484 1449.35 288.188C1448.76 288.773 1447.71 289.066 1446.18 289.066C1444.66 289.066 1443.84 288.656 1443.72 287.836C1441.97 281.391 1439.51 277.289 1436.34 275.531C1433.18 273.656 1428.84 272.719 1423.33 272.719H1411.56C1401.36 272.719 1396.2 273.48 1396.09 275.004C1395.85 276.41 1395.62 278.344 1395.38 280.805C1395.27 283.266 1395.21 286.254 1395.21 289.77V318.422C1395.21 319.125 1397.67 319.477 1402.59 319.477H1411.91C1417.18 319.477 1420.99 319.301 1423.33 318.949C1425.68 318.48 1427.32 317.484 1428.26 315.961C1429.19 314.32 1430.07 311.742 1430.89 308.227L1431.24 306.645C1431.36 305.824 1432.24 305.414 1433.88 305.414C1435.29 305.414 1436.28 305.707 1436.87 306.293V340.395C1436.4 340.863 1435.46 341.098 1434.06 341.098C1432.53 341.098 1431.6 340.629 1431.24 339.691C1430.77 338.051 1430.36 336.645 1430.01 335.473C1429.66 334.301 1429.37 333.305 1429.13 332.484C1428.55 330.844 1428.08 329.906 1427.73 329.672C1427.49 329.438 1427.02 329.086 1426.32 328.617C1424.68 327.68 1418.47 327.211 1407.69 327.211C1399.37 327.211 1395.21 327.738 1395.21 328.793V356.566C1395.21 363.363 1395.74 368.812 1396.79 372.914C1397.02 373.383 1397.9 373.91 1399.43 374.496C1400.95 375.082 1402.59 375.551 1404.35 375.902C1406.11 376.254 1407.34 376.43 1408.04 376.43C1408.51 376.43 1408.74 377.309 1408.74 379.066C1408.74 379.77 1408.63 380.59 1408.39 381.527C1402.53 381.293 1397.9 381.117 1394.51 381C1391.11 380.766 1388.94 380.648 1388 380.648L1366.91 381.527ZM1463.76 381.527C1463.29 381.059 1463.06 380.18 1463.06 378.891C1463.06 377.25 1463.29 376.43 1463.76 376.43C1464.82 376.43 1466.22 376.312 1467.98 376.078C1469.74 375.727 1471.38 375.258 1472.9 374.672C1474.43 374.086 1475.31 373.5 1475.54 372.914C1476.36 369.984 1476.77 364.711 1476.77 357.094V289.418C1476.77 286.02 1476.65 283.031 1476.42 280.453C1476.3 277.875 1476.01 275.824 1475.54 274.301C1475.31 273.598 1474.37 272.953 1472.73 272.367C1471.2 271.781 1469.51 271.312 1467.63 270.961C1465.87 270.609 1464.47 270.434 1463.41 270.434C1462.94 270.434 1462.71 269.73 1462.71 268.324C1462.71 266.801 1462.94 265.805 1463.41 265.336C1466.46 265.453 1469.68 265.57 1473.08 265.688C1476.6 265.688 1480.35 265.688 1484.33 265.688C1487.02 265.688 1490.66 265.629 1495.23 265.512C1499.8 265.395 1505.31 265.219 1511.75 264.984C1518.31 264.75 1524 264.574 1528.8 264.457C1533.72 264.34 1537.83 264.281 1541.11 264.281C1541.34 265.922 1541.69 267.914 1542.16 270.258C1542.63 272.484 1543.22 274.945 1543.92 277.641C1544.51 280.453 1544.97 282.738 1545.33 284.496C1545.79 286.254 1546.09 287.484 1546.2 288.188C1545.62 288.773 1544.56 289.066 1543.04 289.066C1541.52 289.066 1540.7 288.656 1540.58 287.836C1538.82 281.391 1536.36 277.289 1533.2 275.531C1530.03 273.656 1525.7 272.719 1520.19 272.719H1508.41C1498.22 272.719 1493.06 273.48 1492.94 275.004C1492.71 276.41 1492.47 278.344 1492.24 280.805C1492.12 283.266 1492.06 286.254 1492.06 289.77V318.422C1492.06 319.125 1494.52 319.477 1499.45 319.477H1508.76C1514.04 319.477 1517.85 319.301 1520.19 318.949C1522.53 318.48 1524.17 317.484 1525.11 315.961C1526.05 314.32 1526.93 311.742 1527.75 308.227L1528.1 306.645C1528.22 305.824 1529.1 305.414 1530.74 305.414C1532.14 305.414 1533.14 305.707 1533.72 306.293V340.395C1533.26 340.863 1532.32 341.098 1530.91 341.098C1529.39 341.098 1528.45 340.629 1528.1 339.691C1527.63 338.051 1527.22 336.645 1526.87 335.473C1526.52 334.301 1526.22 333.305 1525.99 332.484C1525.4 330.844 1524.93 329.906 1524.58 329.672C1524.35 329.438 1523.88 329.086 1523.18 328.617C1521.54 327.68 1515.33 327.211 1504.54 327.211C1496.22 327.211 1492.06 327.738 1492.06 328.793V356.566C1492.06 363.363 1492.59 368.812 1493.65 372.914C1493.88 373.383 1494.76 373.91 1496.28 374.496C1497.81 375.082 1499.45 375.551 1501.2 375.902C1502.96 376.254 1504.19 376.43 1504.9 376.43C1505.36 376.43 1505.6 377.309 1505.6 379.066C1505.6 379.77 1505.48 380.59 1505.25 381.527C1499.39 381.293 1494.76 381.117 1491.36 381C1487.96 380.766 1485.79 380.648 1484.86 380.648L1463.76 381.527ZM1639.54 381.703C1636.61 381.703 1632.75 381.645 1627.94 381.527C1623.26 381.527 1617.69 381.469 1611.24 381.352C1604.8 381.234 1598.94 381.117 1593.67 381C1588.39 381 1583.7 381 1579.6 381L1558.33 381.527C1557.98 381.176 1557.81 380.238 1557.81 378.715C1557.81 377.191 1557.98 376.43 1558.33 376.43C1559.39 376.43 1560.79 376.254 1562.55 375.902C1564.31 375.434 1565.95 374.906 1567.47 374.32C1569.11 373.734 1570.11 373.09 1570.46 372.387C1571.28 371.098 1571.69 365.59 1571.69 355.863V289.418C1571.69 286.02 1571.58 283.031 1571.34 280.453C1571.22 277.875 1570.93 275.824 1570.46 274.301C1570.23 273.598 1569.29 272.953 1567.65 272.367C1566.13 271.781 1564.43 271.312 1562.55 270.961C1560.79 270.609 1559.39 270.434 1558.33 270.434C1557.86 270.434 1557.63 269.73 1557.63 268.324C1557.63 266.801 1557.86 265.805 1558.33 265.336C1561.38 265.453 1564.6 265.57 1568 265.688C1571.52 265.688 1575.27 265.688 1579.25 265.688C1581.95 265.688 1585.58 265.629 1590.15 265.512C1594.72 265.395 1600.23 265.219 1606.67 264.984C1613.24 264.75 1618.92 264.574 1623.72 264.457C1628.65 264.34 1632.75 264.281 1636.03 264.281C1636.26 265.922 1636.61 267.914 1637.08 270.258C1637.55 272.484 1638.14 274.945 1638.84 277.641C1639.43 280.453 1639.9 282.738 1640.25 284.496C1640.72 286.254 1641.01 287.484 1641.13 288.188C1640.54 288.773 1639.49 289.066 1637.96 289.066C1636.44 289.066 1635.62 288.656 1635.5 287.836C1633.74 281.391 1631.28 277.289 1628.12 275.531C1624.95 273.656 1620.62 272.719 1615.11 272.719H1603.33C1593.14 272.719 1587.98 273.48 1587.86 275.004C1587.63 276.41 1587.4 278.344 1587.16 280.805C1587.04 283.266 1586.99 286.254 1586.99 289.77V317.895C1586.99 318.598 1589.51 318.949 1594.54 318.949H1603.86C1607.85 318.949 1610.54 318.949 1611.95 318.949C1613.35 318.832 1614.35 318.656 1614.93 318.422C1615.64 318.188 1616.93 317.836 1618.8 317.367C1619.97 317.133 1620.85 315.785 1621.44 313.324C1622.14 310.746 1622.73 308.637 1623.2 306.996C1623.31 306.176 1624.19 305.766 1625.83 305.766C1627.24 305.766 1628.24 306.059 1628.82 306.645V339.867C1628.35 340.336 1627.42 340.57 1626.01 340.57C1624.49 340.57 1623.55 340.102 1623.2 339.164C1622.73 337.523 1622.32 336.117 1621.97 334.945C1621.61 333.773 1621.32 332.777 1621.09 331.957C1620.5 330.316 1620.03 329.379 1619.68 329.145C1619.45 328.91 1618.98 328.559 1618.27 328.09C1616.63 327.152 1610.42 326.684 1599.64 326.684C1591.2 326.684 1586.99 327.211 1586.99 328.266V355.512C1586.99 363.129 1587.51 368.461 1588.57 371.508C1588.92 372.68 1592.9 373.266 1600.52 373.266H1608.96C1619.74 373.266 1627.12 372.27 1631.11 370.277C1632.86 369.34 1634.8 367.289 1636.91 364.125C1639.13 360.844 1640.89 356.977 1642.18 352.523C1642.42 351.82 1643.24 351.469 1644.64 351.469C1646.87 351.469 1648.33 351.82 1649.04 352.523C1648.68 353.461 1648.1 354.926 1647.28 356.918C1646.58 358.793 1645.87 360.727 1645.17 362.719C1644.47 364.711 1643.88 366.41 1643.41 367.816C1642.71 369.926 1641.95 372.328 1641.13 375.023C1640.31 377.719 1639.78 379.945 1639.54 381.703ZM1739.92 381.703C1736.99 381.703 1733.12 381.645 1728.31 381.527C1723.63 381.527 1718.06 381.469 1711.61 381.352C1705.17 381.234 1699.31 381.117 1694.04 381C1688.76 381 1684.08 381 1679.97 381L1658.7 381.527C1658.35 381.176 1658.18 380.238 1658.18 378.715C1658.18 377.191 1658.35 376.43 1658.7 376.43C1659.76 376.43 1661.17 376.254 1662.92 375.902C1664.68 375.434 1666.32 374.906 1667.85 374.32C1669.49 373.734 1670.48 373.09 1670.83 372.387C1671.65 371.098 1672.06 365.59 1672.06 355.863V289.418C1672.06 286.02 1671.95 283.031 1671.71 280.453C1671.6 277.875 1671.3 275.824 1670.83 274.301C1670.6 273.598 1669.66 272.953 1668.02 272.367C1666.5 271.781 1664.8 271.312 1662.92 270.961C1661.17 270.609 1659.76 270.434 1658.7 270.434C1658.24 270.434 1658 269.73 1658 268.324C1658 266.801 1658.24 265.805 1658.7 265.336C1661.75 265.453 1664.97 265.57 1668.37 265.688C1671.89 265.688 1675.64 265.688 1679.62 265.688C1682.32 265.688 1685.95 265.629 1690.52 265.512C1695.09 265.395 1700.6 265.219 1707.04 264.984C1713.61 264.75 1719.29 264.574 1724.1 264.457C1729.02 264.34 1733.12 264.281 1736.4 264.281C1736.63 265.922 1736.99 267.914 1737.45 270.258C1737.92 272.484 1738.51 274.945 1739.21 277.641C1739.8 280.453 1740.27 282.738 1740.62 284.496C1741.09 286.254 1741.38 287.484 1741.5 288.188C1740.91 288.773 1739.86 289.066 1738.33 289.066C1736.81 289.066 1735.99 288.656 1735.87 287.836C1734.11 281.391 1731.65 277.289 1728.49 275.531C1725.33 273.656 1720.99 272.719 1715.48 272.719H1703.7C1693.51 272.719 1688.35 273.48 1688.24 275.004C1688 276.41 1687.77 278.344 1687.53 280.805C1687.42 283.266 1687.36 286.254 1687.36 289.77V317.895C1687.36 318.598 1689.88 318.949 1694.92 318.949H1704.23C1708.22 318.949 1710.91 318.949 1712.32 318.949C1713.72 318.832 1714.72 318.656 1715.31 318.422C1716.01 318.188 1717.3 317.836 1719.17 317.367C1720.35 317.133 1721.22 315.785 1721.81 313.324C1722.51 310.746 1723.1 308.637 1723.57 306.996C1723.68 306.176 1724.56 305.766 1726.2 305.766C1727.61 305.766 1728.61 306.059 1729.19 306.645V339.867C1728.72 340.336 1727.79 340.57 1726.38 340.57C1724.86 340.57 1723.92 340.102 1723.57 339.164C1723.1 337.523 1722.69 336.117 1722.34 334.945C1721.99 333.773 1721.69 332.777 1721.46 331.957C1720.87 330.316 1720.4 329.379 1720.05 329.145C1719.82 328.91 1719.35 328.559 1718.65 328.09C1717.01 327.152 1710.79 326.684 1700.01 326.684C1691.58 326.684 1687.36 327.211 1687.36 328.266V355.512C1687.36 363.129 1687.88 368.461 1688.94 371.508C1689.29 372.68 1693.27 373.266 1700.89 373.266H1709.33C1720.11 373.266 1727.49 372.27 1731.48 370.277C1733.24 369.34 1735.17 367.289 1737.28 364.125C1739.51 360.844 1741.26 356.977 1742.55 352.523C1742.79 351.82 1743.61 351.469 1745.01 351.469C1747.24 351.469 1748.7 351.82 1749.41 352.523C1749.06 353.461 1748.47 354.926 1747.65 356.918C1746.95 358.793 1746.24 360.727 1745.54 362.719C1744.84 364.711 1744.25 366.41 1743.78 367.816C1743.08 369.926 1742.32 372.328 1741.5 375.023C1740.68 377.719 1740.15 379.945 1739.92 381.703Z" fill="white"/>
<mask id="path-2-inside-1_8_38" fill="white">
<path d="M2102.01 48.9883C2100.79 54.9804 2100.16 61.1149 2100.16 67.3584C2100.16 134.998 2174.31 189.83 2265.78 189.83V482.539C2174.31 482.539 2100.16 537.372 2100.16 605.011H228.566C228.566 537.9 155.566 483.396 65.0791 482.549L62.9385 482.539V170.236C153.859 170.236 227.667 116.064 228.556 48.9883H2102.01Z"/>
</mask>
<path d="M2102.01 48.9883L2111.81 50.9818L2114.25 38.9883H2102.01V48.9883ZM2100.16 67.3584L2090.16 67.3583V67.3584H2100.16ZM2265.78 189.83H2275.78V179.83H2265.78V189.83ZM2265.78 482.539V492.539H2275.78V482.539H2265.78ZM2100.16 605.011V615.011H2110.16V605.011L2100.16 605.011ZM228.566 605.011L218.566 605.011L218.566 615.011H228.566V605.011ZM65.0791 482.549L65.1728 472.549L65.1487 472.549L65.1247 472.549L65.0791 482.549ZM62.9385 482.539H52.9385V492.494L62.8929 492.539L62.9385 482.539ZM62.9385 170.236V160.236H52.9385V170.236H62.9385ZM228.556 48.9883V38.9883H218.687L218.557 48.8559L228.556 48.9883ZM2102.01 48.9883L2092.21 46.9948C2090.86 53.6331 2090.16 60.4353 2090.16 67.3583L2100.16 67.3584L2110.16 67.3585C2110.16 61.7946 2110.72 56.3278 2111.81 50.9818L2102.01 48.9883ZM2100.16 67.3584H2090.16C2090.16 105.093 2110.86 138.441 2142.72 162C2174.58 185.559 2218.13 199.83 2265.78 199.83V189.83V179.83C2221.97 179.83 2182.7 166.685 2154.61 145.918C2126.53 125.151 2110.16 97.2633 2110.16 67.3584H2100.16ZM2265.78 189.83H2255.78V482.539H2265.78H2275.78V189.83H2265.78ZM2265.78 482.539V472.539C2218.13 472.539 2174.58 486.81 2142.72 510.37C2110.86 533.928 2090.16 567.276 2090.16 605.011L2100.16 605.011L2110.16 605.011C2110.16 575.106 2126.53 547.219 2154.61 526.451C2182.7 505.685 2221.97 492.539 2265.78 492.539V482.539ZM2100.16 605.011V595.011H228.566V605.011V615.011H2100.16V605.011ZM228.566 605.011L238.566 605.011C238.566 567.573 218.182 534.448 186.746 510.925C155.312 487.402 112.322 472.991 65.1728 472.549L65.0791 482.549L64.9854 492.548C108.323 492.954 147.076 506.219 174.764 526.938C202.451 547.656 218.566 575.338 218.566 605.011L228.566 605.011ZM65.0791 482.549L65.1247 472.549L62.9841 472.539L62.9385 482.539L62.8929 492.539L65.0335 492.549L65.0791 482.549ZM62.9385 482.539H72.9385V170.236H62.9385H52.9385V482.539H62.9385ZM62.9385 170.236V180.236C110.31 180.236 153.612 166.137 185.419 142.832C217.221 119.532 238.059 86.5355 238.555 49.1207L228.556 48.9883L218.557 48.8559C218.164 78.5166 201.654 106.144 173.599 126.699C145.55 147.25 106.488 160.236 62.9385 160.236V170.236ZM228.556 48.9883V58.9883H2102.01V48.9883V38.9883H228.556V48.9883Z" fill="white" mask="url(#path-2-inside-1_8_38)"/>
<mask id="path-4-inside-2_8_38" fill="white">
<path d="M2155.85 0C2154.56 7.0485 2153.89 14.2643 2153.89 21.6084C2153.89 100.545 2231.07 164.652 2326.74 165.649L2329 165.661V509.947C2232.29 509.948 2153.89 574.442 2153.89 654H175.113C175.113 575.063 97.9326 510.956 2.26367 509.959L0 509.947V142.612C96.1277 142.612 174.162 78.8947 175.102 0H2155.85Z"/>
</mask>
<path d="M2155.85 0L2157.81 0.359757L2158.24 -2H2155.85V0ZM2153.89 21.6084L2151.89 21.6084V21.6084L2153.89 21.6084ZM2326.74 165.649L2326.71 167.649L2326.73 167.649L2326.74 165.649ZM2329 165.661H2331V163.671L2329.01 163.661L2329 165.661ZM2329 509.947V511.947H2331V509.947H2329ZM2153.89 654V656H2155.89V654H2153.89ZM175.113 654H173.113V656H175.113V654ZM2.26367 509.959L2.28451 507.959L2.27403 507.959L2.26367 509.959ZM0 509.947H-2V511.937L-0.0103536 511.947L0 509.947ZM0 142.612V140.612H-2V142.612H0ZM175.102 0V-2H173.125L173.102 -0.0238169L175.102 0ZM2155.85 0L2153.88 -0.359757C2152.57 6.80604 2151.89 14.1422 2151.89 21.6084L2153.89 21.6084L2155.89 21.6084C2155.89 14.3864 2156.55 7.29096 2157.81 0.359757L2155.85 0ZM2153.89 21.6084L2151.89 21.6084C2151.89 101.984 2230.33 166.645 2326.71 167.649L2326.74 165.649L2326.76 163.65C2231.81 162.66 2155.89 99.1048 2155.89 21.6084L2153.89 21.6084ZM2326.74 165.649L2326.73 167.649L2328.99 167.661L2329 165.661L2329.01 163.661L2326.75 163.649L2326.74 165.649ZM2329 165.661H2327V509.947H2329H2331V165.661H2329ZM2329 509.947V507.947C2231.57 507.948 2151.89 572.99 2151.89 654H2153.89H2155.89C2155.89 575.894 2233.01 511.948 2329 511.947V509.947ZM2153.89 654V652H175.113V654V656H2153.89V654ZM175.113 654H177.113C177.113 573.624 98.6713 508.964 2.28451 507.959L2.26367 509.959L2.24283 511.959C97.1939 512.948 173.113 576.503 173.113 654H175.113ZM2.26367 509.959L2.27403 507.959L0.0103536 507.947L0 509.947L-0.0103536 511.947L2.25332 511.959L2.26367 509.959ZM0 509.947H2V142.612H0H-2V509.947H0ZM0 142.612V144.612C96.8479 144.612 176.145 80.3541 177.101 0.0238169L175.102 0L173.102 -0.0238169C172.179 77.4353 95.4075 140.612 0 140.612V142.612ZM175.102 0V2H2155.85V0V-2H175.102V0Z" fill="white" mask="url(#path-4-inside-2_8_38)"/>
<path d="M984.947 522.146C984.817 522.016 984.752 521.772 984.752 521.414C984.752 520.958 984.817 520.73 984.947 520.73C985.24 520.73 985.631 520.698 986.119 520.633C986.607 520.535 987.063 520.405 987.486 520.242C987.91 520.079 988.154 519.917 988.219 519.754C988.349 519.298 988.43 518.712 988.463 517.996C988.528 517.28 988.561 516.417 988.561 515.408V497.732C988.561 494.9 988.414 493.224 988.121 492.703C987.893 492.215 986.135 491.971 982.848 491.971C981.611 491.971 980.65 492.085 979.967 492.312C979.283 492.508 978.762 492.915 978.404 493.533C978.046 494.152 977.704 495.079 977.379 496.316C977.314 496.479 977.151 496.561 976.891 496.561C976.337 496.561 975.947 496.447 975.719 496.219L976.646 489.236C977.363 489.399 977.997 489.529 978.551 489.627C979.104 489.725 979.592 489.773 980.016 489.773C982.359 489.773 984.426 489.806 986.217 489.871C988.007 489.936 989.505 489.969 990.709 489.969C993.215 489.969 995.364 489.936 997.154 489.871C998.977 489.806 1000.41 489.773 1001.45 489.773C1001.87 489.773 1002.36 489.725 1002.92 489.627C1003.47 489.529 1004.1 489.399 1004.82 489.236L1005.75 496.219C1005.52 496.447 1005.13 496.561 1004.58 496.561C1004.32 496.561 1004.15 496.479 1004.09 496.316C1003.79 495.079 1003.45 494.152 1003.06 493.533C1002.7 492.915 1002.18 492.508 1001.5 492.312C1000.82 492.085 999.856 491.971 998.619 491.971C995.201 491.971 993.411 492.215 993.248 492.703C992.955 493.712 992.809 495.34 992.809 497.586V515.213C992.809 517.101 992.955 518.615 993.248 519.754C993.313 519.884 993.557 520.031 993.98 520.193C994.404 520.356 994.859 520.486 995.348 520.584C995.836 520.682 996.178 520.73 996.373 520.73C996.503 520.73 996.568 520.975 996.568 521.463C996.568 521.658 996.536 521.886 996.471 522.146C994.843 522.081 993.557 522.033 992.613 522C991.669 521.935 991.067 521.902 990.807 521.902L984.947 522.146ZM1008.09 522.146C1007.96 522.016 1007.9 521.74 1007.9 521.316C1007.9 520.926 1007.96 520.73 1008.09 520.73C1008.35 520.73 1008.71 520.682 1009.17 520.584C1009.62 520.486 1010.04 520.356 1010.44 520.193C1010.83 520.031 1011.04 519.884 1011.07 519.754C1011.3 518.875 1011.41 517.752 1011.41 516.385V495.193C1011.41 494.087 1011.31 493.045 1011.12 492.068C1010.99 491.548 1010.16 491.287 1008.63 491.287H1008.19C1007.99 491.287 1007.9 491.108 1007.9 490.75C1007.9 490.229 1007.99 489.969 1008.19 489.969C1009.85 489.806 1011.25 489.546 1012.39 489.188C1013.53 488.797 1014.31 488.488 1014.73 488.26L1014.98 488.113H1015.07C1015.2 488.113 1015.33 488.211 1015.46 488.406C1015.6 488.569 1015.68 488.732 1015.71 488.895C1015.35 489.969 1015.17 491.385 1015.17 493.143V503.836C1015.17 503.966 1015.2 504.031 1015.27 504.031C1015.3 504.031 1015.35 503.999 1015.42 503.934C1015.9 503.413 1016.52 502.908 1017.27 502.42C1018.05 501.899 1018.88 501.476 1019.76 501.15C1020.64 500.792 1021.47 500.613 1022.25 500.613C1024.43 500.613 1026 501.395 1026.94 502.957C1027.88 504.52 1028.36 506.928 1028.36 510.184V515.457C1028.36 516.368 1028.39 517.182 1028.45 517.898C1028.52 518.615 1028.62 519.233 1028.75 519.754C1028.81 519.884 1029.04 520.031 1029.43 520.193C1029.82 520.356 1030.24 520.486 1030.7 520.584C1031.15 520.682 1031.48 520.73 1031.68 520.73C1031.77 520.73 1031.84 520.926 1031.87 521.316C1031.9 521.707 1031.89 521.984 1031.82 522.146L1026.6 521.902L1021.47 522.146C1021.34 522.016 1021.28 521.74 1021.28 521.316C1021.28 520.926 1021.34 520.73 1021.47 520.73C1021.73 520.73 1022.07 520.682 1022.5 520.584C1022.92 520.486 1023.31 520.356 1023.67 520.193C1024.03 520.031 1024.22 519.884 1024.25 519.754C1024.38 519.298 1024.47 518.777 1024.5 518.191C1024.56 517.605 1024.6 516.987 1024.6 516.336V511.16C1024.6 509.142 1024.42 507.596 1024.06 506.521C1023.7 505.415 1023.15 504.65 1022.4 504.227C1021.65 503.803 1020.69 503.592 1019.52 503.592C1018.87 503.592 1018.2 503.787 1017.52 504.178C1016.86 504.536 1016.31 504.959 1015.86 505.447C1015.4 505.936 1015.17 506.375 1015.17 506.766V515.408C1015.17 516.352 1015.2 517.182 1015.27 517.898C1015.33 518.615 1015.43 519.233 1015.56 519.754C1015.63 519.884 1015.86 520.031 1016.25 520.193C1016.64 520.356 1017.06 520.486 1017.52 520.584C1017.97 520.682 1018.3 520.73 1018.49 520.73C1018.59 520.73 1018.65 520.926 1018.69 521.316C1018.72 521.707 1018.7 521.984 1018.64 522.146L1013.41 521.902L1008.09 522.146ZM1034.65 522.146C1034.52 522.016 1034.46 521.74 1034.46 521.316C1034.46 520.926 1034.52 520.73 1034.65 520.73C1034.91 520.73 1035.27 520.682 1035.73 520.584C1036.18 520.486 1036.61 520.356 1037 520.193C1037.39 520.031 1037.6 519.884 1037.63 519.754C1037.76 519.298 1037.84 518.777 1037.88 518.191C1037.94 517.605 1037.97 516.987 1037.97 516.336V507.107C1037.97 505.87 1037.75 504.992 1037.29 504.471C1036.97 504.048 1036.57 503.787 1036.12 503.689C1035.66 503.559 1035.27 503.494 1034.95 503.494C1034.62 503.462 1034.46 503.413 1034.46 503.348C1034.46 502.566 1034.56 502.16 1034.75 502.127C1036.48 501.867 1037.8 501.655 1038.71 501.492C1039.62 501.297 1040.43 501.118 1041.15 500.955L1041.73 500.809C1041.86 500.776 1041.95 500.906 1041.98 501.199C1042.01 501.492 1042.01 501.704 1041.98 501.834C1041.91 502.485 1041.85 503.104 1041.78 503.689C1041.75 504.275 1041.73 504.829 1041.73 505.35V515.408C1041.73 516.352 1041.77 517.182 1041.83 517.898C1041.9 518.615 1041.99 519.233 1042.12 519.754C1042.19 519.884 1042.42 520.031 1042.81 520.193C1043.2 520.356 1043.62 520.486 1044.08 520.584C1044.53 520.682 1044.86 520.73 1045.05 520.73C1045.15 520.73 1045.22 520.926 1045.25 521.316C1045.28 521.707 1045.27 521.984 1045.2 522.146L1039.98 521.902L1034.65 522.146ZM1039.49 495.486C1038.84 495.486 1038.27 495.242 1037.78 494.754C1037.29 494.266 1037.05 493.696 1037.05 493.045C1037.05 492.361 1037.29 491.792 1037.78 491.336C1038.27 490.848 1038.84 490.604 1039.49 490.604C1040.17 490.604 1040.74 490.848 1041.2 491.336C1041.69 491.792 1041.93 492.361 1041.93 493.045C1041.93 493.696 1041.69 494.266 1041.2 494.754C1040.74 495.242 1040.17 495.486 1039.49 495.486ZM1055.21 522.537C1054.2 522.537 1053.29 522.423 1052.48 522.195C1051.66 521.967 1050.67 521.772 1049.5 521.609C1049.37 521.251 1049.24 520.763 1049.11 520.145C1048.98 519.526 1048.86 518.875 1048.77 518.191C1048.7 517.508 1048.67 516.954 1048.67 516.531C1048.93 516.336 1049.12 516.238 1049.25 516.238C1049.74 516.238 1050 516.336 1050.04 516.531C1050.17 517.182 1050.49 517.833 1051.01 518.484C1051.53 519.135 1052.17 519.689 1052.92 520.145C1053.66 520.568 1054.43 520.779 1055.21 520.779C1056.25 520.779 1057.1 520.503 1057.75 519.949C1058.43 519.363 1058.78 518.533 1058.78 517.459C1058.78 516.32 1058.34 515.376 1057.46 514.627C1056.77 514.074 1056.19 513.683 1055.7 513.455C1055.24 513.195 1054.79 512.967 1054.33 512.771C1053.91 512.544 1053.37 512.234 1052.72 511.844C1050.18 510.379 1048.91 508.637 1048.91 506.619C1048.91 505.447 1049.24 504.422 1049.89 503.543C1050.54 502.632 1051.4 501.932 1052.48 501.443C1053.58 500.923 1054.76 500.662 1055.99 500.662C1056.35 500.662 1056.76 500.695 1057.21 500.76C1057.67 500.792 1058.17 500.841 1058.73 500.906C1059.28 501.004 1059.74 501.085 1060.09 501.15C1060.45 501.215 1060.74 501.264 1060.97 501.297C1061.33 502.794 1061.53 504.454 1061.56 506.277C1061.56 506.44 1061.35 506.521 1060.92 506.521C1060.47 506.521 1060.22 506.408 1060.19 506.18C1060.03 505.268 1059.56 504.406 1058.78 503.592C1058.03 502.778 1057.16 502.371 1056.19 502.371C1053.84 502.371 1052.67 503.331 1052.67 505.252C1052.67 505.74 1052.72 506.18 1052.82 506.57C1052.95 506.928 1053.23 507.27 1053.65 507.596C1054.66 508.377 1055.85 509.158 1057.21 509.939C1058.61 510.721 1059.77 511.453 1060.68 512.137C1062.05 513.178 1062.73 514.399 1062.73 515.799C1062.73 517.068 1062.39 518.224 1061.71 519.266C1061.02 520.275 1060.11 521.072 1058.97 521.658C1057.83 522.244 1056.58 522.537 1055.21 522.537ZM1077.13 522.146C1077 522.016 1076.94 521.74 1076.94 521.316C1076.94 520.926 1077 520.73 1077.13 520.73C1077.4 520.73 1077.75 520.682 1078.21 520.584C1078.66 520.486 1079.09 520.356 1079.48 520.193C1079.87 520.031 1080.08 519.884 1080.11 519.754C1080.24 519.298 1080.32 518.777 1080.36 518.191C1080.42 517.605 1080.46 516.987 1080.46 516.336V507.107C1080.46 505.87 1080.23 504.992 1079.77 504.471C1079.45 504.048 1079.06 503.787 1078.6 503.689C1078.14 503.559 1077.75 503.494 1077.43 503.494C1077.1 503.462 1076.94 503.413 1076.94 503.348C1076.94 502.566 1077.04 502.16 1077.23 502.127C1078.96 501.867 1080.28 501.655 1081.19 501.492C1082.1 501.297 1082.91 501.118 1083.63 500.955L1084.21 500.809C1084.35 500.776 1084.43 500.906 1084.46 501.199C1084.49 501.492 1084.49 501.704 1084.46 501.834C1084.39 502.485 1084.33 503.104 1084.26 503.689C1084.23 504.275 1084.21 504.829 1084.21 505.35V515.408C1084.21 516.352 1084.25 517.182 1084.31 517.898C1084.38 518.615 1084.48 519.233 1084.61 519.754C1084.67 519.884 1084.9 520.031 1085.29 520.193C1085.68 520.356 1086.1 520.486 1086.56 520.584C1087.01 520.682 1087.34 520.73 1087.54 520.73C1087.63 520.73 1087.7 520.926 1087.73 521.316C1087.76 521.707 1087.75 521.984 1087.68 522.146L1082.46 521.902L1077.13 522.146ZM1081.97 495.486C1081.32 495.486 1080.75 495.242 1080.26 494.754C1079.77 494.266 1079.53 493.696 1079.53 493.045C1079.53 492.361 1079.77 491.792 1080.26 491.336C1080.75 490.848 1081.32 490.604 1081.97 490.604C1082.65 490.604 1083.22 490.848 1083.68 491.336C1084.17 491.792 1084.41 492.361 1084.41 493.045C1084.41 493.696 1084.17 494.266 1083.68 494.754C1083.22 495.242 1082.65 495.486 1081.97 495.486ZM1097.69 522.537C1096.68 522.537 1095.77 522.423 1094.96 522.195C1094.14 521.967 1093.15 521.772 1091.98 521.609C1091.85 521.251 1091.72 520.763 1091.59 520.145C1091.46 519.526 1091.34 518.875 1091.25 518.191C1091.18 517.508 1091.15 516.954 1091.15 516.531C1091.41 516.336 1091.6 516.238 1091.73 516.238C1092.22 516.238 1092.48 516.336 1092.52 516.531C1092.65 517.182 1092.97 517.833 1093.49 518.484C1094.01 519.135 1094.65 519.689 1095.4 520.145C1096.15 520.568 1096.91 520.779 1097.69 520.779C1098.73 520.779 1099.58 520.503 1100.23 519.949C1100.91 519.363 1101.26 518.533 1101.26 517.459C1101.26 516.32 1100.82 515.376 1099.94 514.627C1099.25 514.074 1098.67 513.683 1098.18 513.455C1097.72 513.195 1097.27 512.967 1096.81 512.771C1096.39 512.544 1095.85 512.234 1095.2 511.844C1092.66 510.379 1091.39 508.637 1091.39 506.619C1091.39 505.447 1091.72 504.422 1092.37 503.543C1093.02 502.632 1093.88 501.932 1094.96 501.443C1096.06 500.923 1097.24 500.662 1098.47 500.662C1098.83 500.662 1099.24 500.695 1099.69 500.76C1100.15 500.792 1100.65 500.841 1101.21 500.906C1101.76 501.004 1102.22 501.085 1102.57 501.15C1102.93 501.215 1103.23 501.264 1103.45 501.297C1103.81 502.794 1104.01 504.454 1104.04 506.277C1104.04 506.44 1103.83 506.521 1103.4 506.521C1102.95 506.521 1102.7 506.408 1102.67 506.18C1102.51 505.268 1102.04 504.406 1101.26 503.592C1100.51 502.778 1099.64 502.371 1098.67 502.371C1096.32 502.371 1095.15 503.331 1095.15 505.252C1095.15 505.74 1095.2 506.18 1095.3 506.57C1095.43 506.928 1095.71 507.27 1096.13 507.596C1097.14 508.377 1098.33 509.158 1099.69 509.939C1101.09 510.721 1102.25 511.453 1103.16 512.137C1104.53 513.178 1105.21 514.399 1105.21 515.799C1105.21 517.068 1104.87 518.224 1104.19 519.266C1103.5 520.275 1102.59 521.072 1101.45 521.658C1100.31 522.244 1099.06 522.537 1097.69 522.537ZM1120.05 522.146C1119.92 522.016 1119.86 521.772 1119.86 521.414C1119.86 520.958 1119.92 520.73 1120.05 520.73C1120.35 520.73 1120.74 520.698 1121.23 520.633C1121.71 520.535 1122.17 520.405 1122.59 520.242C1123.02 520.079 1123.26 519.917 1123.33 519.754C1123.46 519.298 1123.54 518.712 1123.57 517.996C1123.64 517.28 1123.67 516.417 1123.67 515.408V496.463C1123.67 495.454 1123.64 494.591 1123.57 493.875C1123.54 493.126 1123.46 492.54 1123.33 492.117C1123.26 491.922 1123.02 491.759 1122.59 491.629C1122.17 491.466 1121.71 491.336 1121.23 491.238C1120.74 491.141 1120.35 491.092 1120.05 491.092C1119.92 491.092 1119.86 490.88 1119.86 490.457C1119.86 490.066 1119.92 489.806 1120.05 489.676C1120.35 489.676 1120.84 489.708 1121.52 489.773C1122.24 489.806 1123 489.855 1123.81 489.92C1124.63 489.952 1125.33 489.969 1125.91 489.969C1126.96 489.969 1128 489.936 1129.04 489.871C1130.08 489.773 1130.93 489.708 1131.58 489.676C1131.64 489.806 1131.66 490.083 1131.63 490.506C1131.63 490.896 1131.58 491.092 1131.48 491.092C1131.29 491.092 1130.94 491.157 1130.46 491.287C1129.97 491.385 1129.51 491.515 1129.09 491.678C1128.66 491.808 1128.42 491.954 1128.36 492.117C1128.06 493.224 1127.92 494.738 1127.92 496.658V504.617L1128.26 504.91H1128.6C1129.64 504.91 1130.59 504.438 1131.43 503.494C1133.35 501.378 1135 499.49 1136.36 497.83C1137.76 496.17 1138.92 494.754 1139.83 493.582C1140.61 492.638 1141 492.02 1141 491.727C1141 491.173 1140.07 490.896 1138.22 490.896C1138.09 490.896 1138.02 490.75 1138.02 490.457C1138.02 490.294 1138.02 490.164 1138.02 490.066C1138.06 489.936 1138.09 489.806 1138.12 489.676C1139.07 489.741 1140.01 489.806 1140.95 489.871C1141.9 489.936 1142.69 489.969 1143.35 489.969C1143.9 489.969 1144.5 489.952 1145.15 489.92C1145.84 489.855 1146.45 489.806 1147.01 489.773C1147.59 489.708 1148.02 489.676 1148.28 489.676C1148.34 489.806 1148.36 490.05 1148.33 490.408C1148.33 490.734 1148.28 490.896 1148.18 490.896C1146.23 491.124 1144.73 491.808 1143.69 492.947L1133.87 504.373C1133.61 504.666 1133.73 505.105 1134.21 505.691L1145.98 518.631C1146.63 519.314 1147.46 519.835 1148.47 520.193C1149.48 520.551 1150.38 520.73 1151.16 520.73C1151.32 520.73 1151.4 521.023 1151.4 521.609C1151.4 521.772 1151.37 521.951 1151.3 522.146C1149.68 522.081 1148.36 522.033 1147.35 522C1146.34 521.935 1145.64 521.902 1145.25 521.902C1143.88 521.902 1142.65 521.935 1141.54 522C1140.46 522.033 1139.5 522.081 1138.66 522.146C1138.53 522.016 1138.46 521.74 1138.46 521.316C1138.46 520.926 1138.53 520.73 1138.66 520.73C1139.05 520.73 1139.49 520.665 1139.98 520.535C1140.5 520.405 1140.76 520.21 1140.76 519.949C1140.76 518.908 1137.06 514.594 1129.67 507.01C1129.54 506.88 1129.07 506.814 1128.26 506.814C1128.03 506.814 1127.92 506.945 1127.92 507.205V515.213C1127.92 517.101 1128.06 518.615 1128.36 519.754C1128.42 519.884 1128.66 520.031 1129.09 520.193C1129.51 520.356 1129.97 520.486 1130.46 520.584C1130.94 520.682 1131.29 520.73 1131.48 520.73C1131.58 520.73 1131.63 520.926 1131.63 521.316C1131.66 521.707 1131.64 521.984 1131.58 522.146C1129.95 522.081 1128.66 522.033 1127.72 522C1126.78 521.935 1126.17 521.902 1125.91 521.902L1120.05 522.146ZM1163.37 522.293C1161.57 522.293 1159.93 521.821 1158.43 520.877C1156.94 519.933 1155.73 518.68 1154.82 517.117C1153.94 515.522 1153.5 513.748 1153.5 511.795C1153.5 509.516 1153.93 507.547 1154.77 505.887C1155.62 504.227 1156.77 502.957 1158.24 502.078C1159.7 501.167 1161.35 500.711 1163.17 500.711C1164.67 500.711 1165.99 501.004 1167.12 501.59C1168.26 502.143 1169.14 502.859 1169.76 503.738C1170.35 504.65 1170.77 505.577 1171.03 506.521C1171.32 507.433 1171.47 508.344 1171.47 509.256C1171.47 509.907 1171.37 510.314 1171.18 510.477C1170.98 510.607 1170.61 510.672 1170.05 510.672H1157.75C1157.49 510.672 1157.36 510.753 1157.36 510.916C1157.36 512.283 1157.64 513.602 1158.19 514.871C1158.74 516.108 1159.56 517.133 1160.63 517.947C1161.71 518.761 1163.02 519.168 1164.59 519.168C1165.95 519.168 1167.09 518.973 1168 518.582C1168.95 518.159 1169.63 517.785 1170.05 517.459L1170.4 517.215C1170.59 517.215 1170.69 517.426 1170.69 517.85C1170.69 518.077 1170.59 518.37 1170.4 518.729C1169.75 519.64 1168.79 520.47 1167.52 521.219C1166.25 521.935 1164.86 522.293 1163.37 522.293ZM1157.75 508.621H1167.27C1167.43 508.621 1167.52 508.458 1167.52 508.133C1167.52 507.417 1167.32 506.635 1166.93 505.789C1166.57 504.91 1166.02 504.145 1165.27 503.494C1164.52 502.843 1163.58 502.518 1162.44 502.518C1161.4 502.518 1160.5 502.876 1159.75 503.592C1159 504.275 1158.43 505.073 1158.04 505.984C1157.65 506.863 1157.46 507.628 1157.46 508.279C1157.46 508.507 1157.55 508.621 1157.75 508.621ZM1184.36 522.293C1182.57 522.293 1180.93 521.821 1179.43 520.877C1177.93 519.933 1176.73 518.68 1175.82 517.117C1174.94 515.522 1174.5 513.748 1174.5 511.795C1174.5 509.516 1174.92 507.547 1175.77 505.887C1176.61 504.227 1177.77 502.957 1179.23 502.078C1180.7 501.167 1182.34 500.711 1184.17 500.711C1185.66 500.711 1186.98 501.004 1188.12 501.59C1189.26 502.143 1190.14 502.859 1190.76 503.738C1191.34 504.65 1191.77 505.577 1192.03 506.521C1192.32 507.433 1192.47 508.344 1192.47 509.256C1192.47 509.907 1192.37 510.314 1192.17 510.477C1191.98 510.607 1191.6 510.672 1191.05 510.672H1178.75C1178.49 510.672 1178.36 510.753 1178.36 510.916C1178.36 512.283 1178.63 513.602 1179.19 514.871C1179.74 516.108 1180.55 517.133 1181.63 517.947C1182.7 518.761 1184.02 519.168 1185.58 519.168C1186.95 519.168 1188.09 518.973 1189 518.582C1189.94 518.159 1190.63 517.785 1191.05 517.459L1191.39 517.215C1191.59 517.215 1191.69 517.426 1191.69 517.85C1191.69 518.077 1191.59 518.37 1191.39 518.729C1190.74 519.64 1189.78 520.47 1188.51 521.219C1187.24 521.935 1185.86 522.293 1184.36 522.293ZM1178.75 508.621H1188.27C1188.43 508.621 1188.51 508.458 1188.51 508.133C1188.51 507.417 1188.32 506.635 1187.93 505.789C1187.57 504.91 1187.01 504.145 1186.27 503.494C1185.52 502.843 1184.57 502.518 1183.43 502.518C1182.39 502.518 1181.5 502.876 1180.75 503.592C1180 504.275 1179.43 505.073 1179.04 505.984C1178.65 506.863 1178.45 507.628 1178.45 508.279C1178.45 508.507 1178.55 508.621 1178.75 508.621ZM1194.57 522.146C1194.44 522.016 1194.37 521.74 1194.37 521.316C1194.37 520.926 1194.44 520.73 1194.57 520.73C1194.83 520.73 1195.18 520.682 1195.64 520.584C1196.1 520.486 1196.52 520.356 1196.91 520.193C1197.3 520.031 1197.51 519.884 1197.54 519.754C1197.68 519.298 1197.76 518.777 1197.79 518.191C1197.85 517.605 1197.89 516.987 1197.89 516.336V495.193C1197.89 494.087 1197.79 493.045 1197.59 492.068C1197.46 491.548 1196.63 491.287 1195.1 491.287H1194.66C1194.47 491.287 1194.37 491.108 1194.37 490.75C1194.37 490.229 1194.47 489.969 1194.66 489.969C1196.32 489.806 1197.72 489.546 1198.86 489.188C1200 488.797 1200.78 488.488 1201.21 488.26L1201.45 488.113H1201.55C1201.68 488.113 1201.81 488.211 1201.94 488.406C1202.07 488.569 1202.15 488.732 1202.18 488.895C1201.83 489.969 1201.65 491.385 1201.65 493.143V510.232C1202.3 510.102 1202.7 509.956 1202.87 509.793L1205.11 507.889L1206.87 506.424C1207.42 505.968 1207.9 505.545 1208.29 505.154C1208.71 504.764 1208.92 504.406 1208.92 504.08C1208.92 503.657 1208.56 503.429 1207.85 503.396C1207.2 503.364 1206.82 503.299 1206.72 503.201C1206.46 502.55 1206.48 502.176 1206.77 502.078H1210.63C1211.77 502.078 1212.7 502.046 1213.41 501.98C1214.13 501.915 1214.99 501.867 1216 501.834C1216.2 501.867 1216.28 502.111 1216.25 502.566C1216.21 502.99 1216.12 503.201 1215.95 503.201C1215.69 503.201 1215.32 503.25 1214.83 503.348C1214.37 503.445 1213.93 503.559 1213.51 503.689C1213.09 503.787 1212.78 503.901 1212.58 504.031C1212.23 504.227 1211.61 504.65 1210.73 505.301C1209.88 505.952 1208.97 506.701 1207.99 507.547C1207.02 508.361 1206.14 509.158 1205.36 509.939C1207.86 512.609 1209.82 514.757 1211.22 516.385C1212.65 518.012 1213.58 519.021 1214 519.412C1214.55 519.868 1215.25 520.226 1216.1 520.486C1216.95 520.714 1217.55 520.828 1217.91 520.828C1218.04 520.828 1218.1 521.089 1218.1 521.609C1218.1 521.935 1218.09 522.114 1218.05 522.146L1212.73 521.902L1207.65 522.146C1207.52 522.016 1207.46 521.756 1207.46 521.365C1207.46 521.007 1207.52 520.828 1207.65 520.828C1207.98 520.828 1208.35 520.763 1208.78 520.633C1209.2 520.503 1209.41 520.356 1209.41 520.193C1209.41 520.128 1209.39 520.079 1209.36 520.047L1202.23 512.332L1201.65 512.479V515.408C1201.65 516.482 1201.68 517.394 1201.74 518.143C1201.84 518.859 1201.94 519.396 1202.04 519.754C1202.1 519.884 1202.33 520.031 1202.72 520.193C1203.11 520.356 1203.53 520.486 1203.99 520.584C1204.45 520.682 1204.77 520.73 1204.97 520.73C1205.06 520.73 1205.13 520.926 1205.16 521.316C1205.19 521.707 1205.18 521.984 1205.11 522.146L1199.89 521.902L1194.57 522.146ZM1219.66 522.146C1219.53 522.016 1219.47 521.74 1219.47 521.316C1219.47 520.926 1219.53 520.73 1219.66 520.73C1219.92 520.73 1220.28 520.682 1220.74 520.584C1221.19 520.486 1221.62 520.356 1222.01 520.193C1222.4 520.031 1222.61 519.884 1222.64 519.754C1222.77 519.298 1222.85 518.777 1222.89 518.191C1222.95 517.605 1222.98 516.987 1222.98 516.336V507.107C1222.98 505.87 1222.76 504.992 1222.3 504.471C1221.98 504.048 1221.58 503.787 1221.13 503.689C1220.67 503.559 1220.28 503.494 1219.96 503.494C1219.63 503.462 1219.47 503.413 1219.47 503.348C1219.47 502.566 1219.57 502.16 1219.76 502.127C1221.49 501.867 1222.81 501.655 1223.72 501.492C1224.63 501.297 1225.44 501.118 1226.16 500.955L1226.74 500.809C1226.87 500.776 1226.96 500.906 1226.99 501.199C1227.02 501.492 1227.02 501.704 1226.99 501.834C1226.92 502.485 1226.86 503.104 1226.79 503.689C1226.76 504.275 1226.74 504.829 1226.74 505.35V515.408C1226.74 516.352 1226.78 517.182 1226.84 517.898C1226.91 518.615 1227 519.233 1227.13 519.754C1227.2 519.884 1227.43 520.031 1227.82 520.193C1228.21 520.356 1228.63 520.486 1229.09 520.584C1229.54 520.682 1229.87 520.73 1230.06 520.73C1230.16 520.73 1230.23 520.926 1230.26 521.316C1230.29 521.707 1230.28 521.984 1230.21 522.146L1224.99 521.902L1219.66 522.146ZM1224.5 495.486C1223.85 495.486 1223.28 495.242 1222.79 494.754C1222.3 494.266 1222.06 493.696 1222.06 493.045C1222.06 492.361 1222.3 491.792 1222.79 491.336C1223.28 490.848 1223.85 490.604 1224.5 490.604C1225.18 490.604 1225.75 490.848 1226.21 491.336C1226.7 491.792 1226.94 492.361 1226.94 493.045C1226.94 493.696 1226.7 494.266 1226.21 494.754C1225.75 495.242 1225.18 495.486 1224.5 495.486ZM1233.53 498.318C1233.08 498.318 1232.75 498.042 1232.55 497.488C1233.73 496.805 1234.59 496.023 1235.14 495.145C1235.73 494.233 1236.02 493.533 1236.02 493.045C1236.02 492.654 1235.86 492.264 1235.53 491.873C1235.21 491.482 1234.87 491.092 1234.51 490.701C1234.18 490.311 1234.02 489.92 1234.02 489.529C1234.02 488.943 1234.35 488.455 1235 488.064C1235.65 487.641 1236.38 487.43 1237.19 487.43C1237.52 487.43 1237.84 487.479 1238.17 487.576C1238.63 488.227 1238.85 489.367 1238.85 490.994C1238.85 491.84 1238.67 492.687 1238.32 493.533C1237.99 494.347 1237.58 495.031 1237.1 495.584C1236.41 496.333 1235.71 496.984 1235 497.537C1234.28 498.058 1233.79 498.318 1233.53 498.318ZM1248.03 522.537C1247.02 522.537 1246.11 522.423 1245.3 522.195C1244.49 521.967 1243.49 521.772 1242.32 521.609C1242.19 521.251 1242.06 520.763 1241.93 520.145C1241.8 519.526 1241.69 518.875 1241.59 518.191C1241.52 517.508 1241.49 516.954 1241.49 516.531C1241.75 516.336 1241.95 516.238 1242.08 516.238C1242.56 516.238 1242.82 516.336 1242.86 516.531C1242.99 517.182 1243.31 517.833 1243.83 518.484C1244.35 519.135 1244.99 519.689 1245.74 520.145C1246.49 520.568 1247.25 520.779 1248.03 520.779C1249.07 520.779 1249.92 520.503 1250.57 519.949C1251.26 519.363 1251.6 518.533 1251.6 517.459C1251.6 516.32 1251.16 515.376 1250.28 514.627C1249.6 514.074 1249.01 513.683 1248.52 513.455C1248.07 513.195 1247.61 512.967 1247.15 512.771C1246.73 512.544 1246.19 512.234 1245.54 511.844C1243 510.379 1241.73 508.637 1241.73 506.619C1241.73 505.447 1242.06 504.422 1242.71 503.543C1243.36 502.632 1244.22 501.932 1245.3 501.443C1246.41 500.923 1247.58 500.662 1248.81 500.662C1249.17 500.662 1249.58 500.695 1250.04 500.76C1250.49 500.792 1251 500.841 1251.55 500.906C1252.1 501.004 1252.56 501.085 1252.92 501.15C1253.27 501.215 1253.57 501.264 1253.79 501.297C1254.15 502.794 1254.35 504.454 1254.38 506.277C1254.38 506.44 1254.17 506.521 1253.75 506.521C1253.29 506.521 1253.05 506.408 1253.01 506.18C1252.85 505.268 1252.38 504.406 1251.6 503.592C1250.85 502.778 1249.99 502.371 1249.01 502.371C1246.67 502.371 1245.49 503.331 1245.49 505.252C1245.49 505.74 1245.54 506.18 1245.64 506.57C1245.77 506.928 1246.05 507.27 1246.47 507.596C1247.48 508.377 1248.67 509.158 1250.04 509.939C1251.43 510.721 1252.59 511.453 1253.5 512.137C1254.87 513.178 1255.55 514.399 1255.55 515.799C1255.55 517.068 1255.21 518.224 1254.53 519.266C1253.84 520.275 1252.93 521.072 1251.79 521.658C1250.65 522.244 1249.4 522.537 1248.03 522.537ZM1280.21 522.488C1279.43 522.488 1278.6 522.423 1277.72 522.293C1276.84 522.195 1276.11 522.081 1275.52 521.951C1274.32 521.723 1273.44 521.544 1272.89 521.414C1272.37 521.251 1271.88 521.137 1271.42 521.072C1271 519.054 1270.69 517.41 1270.49 516.141C1270.3 514.839 1270.2 513.895 1270.2 513.309C1270.2 513.113 1270.46 513.016 1270.98 513.016C1271.57 513.016 1271.98 513.162 1272.2 513.455C1273.34 518.143 1276.04 520.486 1280.31 520.486C1281.94 520.486 1283.32 519.998 1284.46 519.021C1285.6 518.045 1286.17 516.661 1286.17 514.871C1286.17 514.285 1286.04 513.569 1285.78 512.723C1285.55 511.876 1285.01 511.144 1284.17 510.525C1283.51 510.037 1282.98 509.679 1282.55 509.451C1282.13 509.191 1281.71 508.963 1281.29 508.768C1280.86 508.54 1280.32 508.23 1279.67 507.84L1277.72 506.668C1276.71 506.049 1275.7 505.35 1274.69 504.568C1273.68 503.755 1272.84 502.811 1272.15 501.736C1271.5 500.662 1271.18 499.441 1271.18 498.074C1271.18 496.349 1271.62 494.852 1272.5 493.582C1273.41 492.28 1274.58 491.271 1276.01 490.555C1277.48 489.839 1279.06 489.48 1280.75 489.48C1281.46 489.48 1282.13 489.529 1282.75 489.627C1283.4 489.692 1283.94 489.773 1284.36 489.871C1285.34 490.099 1286.02 490.278 1286.41 490.408C1286.84 490.538 1287.4 490.685 1288.12 490.848C1288.51 492.54 1288.71 494.868 1288.71 497.83C1288.71 498.058 1288.54 498.172 1288.22 498.172C1287.4 498.172 1286.98 498.009 1286.95 497.684C1286.79 496.707 1286.43 495.747 1285.88 494.803C1285.32 493.859 1284.57 493.077 1283.63 492.459C1282.68 491.808 1281.56 491.482 1280.26 491.482C1278.93 491.482 1277.88 491.743 1277.13 492.264C1276.39 492.752 1275.85 493.387 1275.52 494.168C1275.23 494.917 1275.08 495.714 1275.08 496.561C1275.08 497.374 1275.28 498.188 1275.67 499.002C1276.06 499.816 1276.63 500.499 1277.38 501.053C1278.39 501.801 1279.4 502.501 1280.41 503.152C1281.45 503.803 1282.52 504.471 1283.63 505.154C1284.67 505.805 1285.71 506.538 1286.75 507.352C1287.8 508.133 1288.66 509.028 1289.34 510.037C1290.06 511.046 1290.42 512.218 1290.42 513.553C1290.42 515.278 1289.94 516.824 1289 518.191C1288.06 519.526 1286.8 520.584 1285.24 521.365C1283.71 522.114 1282.03 522.488 1280.21 522.488ZM1293.93 522.146C1293.8 522.016 1293.74 521.74 1293.74 521.316C1293.74 520.926 1293.8 520.73 1293.93 520.73C1294.19 520.73 1294.55 520.682 1295.01 520.584C1295.46 520.486 1295.88 520.356 1296.28 520.193C1296.67 520.031 1296.88 519.884 1296.91 519.754C1297.04 519.298 1297.12 518.777 1297.15 518.191C1297.22 517.605 1297.25 516.987 1297.25 516.336V507.107C1297.25 505.87 1297.02 504.992 1296.57 504.471C1296.24 504.048 1295.85 503.787 1295.4 503.689C1294.94 503.559 1294.55 503.494 1294.22 503.494C1293.9 503.462 1293.74 503.413 1293.74 503.348C1293.74 502.566 1293.83 502.16 1294.03 502.127C1295.75 501.867 1297.07 501.655 1297.98 501.492C1298.9 501.297 1299.71 501.118 1300.43 500.955L1301.01 500.809C1301.14 500.776 1301.22 500.906 1301.26 501.199C1301.29 501.492 1301.29 501.704 1301.26 501.834C1301.19 502.485 1301.13 503.104 1301.06 503.689C1301.03 504.275 1301.01 504.829 1301.01 505.35V515.408C1301.01 516.352 1301.04 517.182 1301.11 517.898C1301.17 518.615 1301.27 519.233 1301.4 519.754C1301.47 519.884 1301.7 520.031 1302.09 520.193C1302.48 520.356 1302.9 520.486 1303.36 520.584C1303.81 520.682 1304.14 520.73 1304.33 520.73C1304.43 520.73 1304.49 520.926 1304.53 521.316C1304.56 521.707 1304.54 521.984 1304.48 522.146L1299.25 521.902L1293.93 522.146ZM1298.77 495.486C1298.11 495.486 1297.54 495.242 1297.06 494.754C1296.57 494.266 1296.32 493.696 1296.32 493.045C1296.32 492.361 1296.57 491.792 1297.06 491.336C1297.54 490.848 1298.11 490.604 1298.77 490.604C1299.45 490.604 1300.02 490.848 1300.47 491.336C1300.96 491.792 1301.21 492.361 1301.21 493.045C1301.21 493.696 1300.96 494.266 1300.47 494.754C1300.02 495.242 1299.45 495.486 1298.77 495.486ZM1315.56 522.342C1313.93 522.342 1312.57 521.805 1311.46 520.73C1310.39 519.656 1309.85 518.126 1309.85 516.141V503.738H1307.02C1306.85 503.738 1306.77 503.396 1306.77 502.713C1306.77 502.518 1306.79 502.404 1306.82 502.371C1307.8 501.915 1308.82 501.053 1309.9 499.783C1310.65 498.904 1311.2 498.139 1311.56 497.488C1311.95 496.837 1312.14 496.447 1312.14 496.316C1313.12 496.316 1313.61 496.398 1313.61 496.561V501.395L1317.47 501.443H1320.2C1320.46 501.443 1320.59 501.59 1320.59 501.883C1320.59 502.501 1320.43 503.12 1320.1 503.738H1313.61V515.701C1313.61 517.003 1313.93 518.045 1314.59 518.826C1315.27 519.607 1316.15 519.998 1317.22 519.998C1318.23 519.998 1319.24 519.689 1320.25 519.07C1320.35 519.005 1320.49 519.152 1320.69 519.51C1320.88 519.835 1320.97 520.014 1320.93 520.047C1320.45 520.568 1319.7 521.089 1318.69 521.609C1317.68 522.098 1316.64 522.342 1315.56 522.342ZM1332.95 522.293C1331.15 522.293 1329.51 521.821 1328.01 520.877C1326.52 519.933 1325.31 518.68 1324.4 517.117C1323.52 515.522 1323.08 513.748 1323.08 511.795C1323.08 509.516 1323.51 507.547 1324.35 505.887C1325.2 504.227 1326.35 502.957 1327.82 502.078C1329.28 501.167 1330.93 500.711 1332.75 500.711C1334.25 500.711 1335.57 501.004 1336.71 501.59C1337.84 502.143 1338.72 502.859 1339.34 503.738C1339.93 504.65 1340.35 505.577 1340.61 506.521C1340.9 507.433 1341.05 508.344 1341.05 509.256C1341.05 509.907 1340.95 510.314 1340.76 510.477C1340.56 510.607 1340.19 510.672 1339.63 510.672H1327.33C1327.07 510.672 1326.94 510.753 1326.94 510.916C1326.94 512.283 1327.22 513.602 1327.77 514.871C1328.32 516.108 1329.14 517.133 1330.21 517.947C1331.29 518.761 1332.6 519.168 1334.17 519.168C1335.53 519.168 1336.67 518.973 1337.58 518.582C1338.53 518.159 1339.21 517.785 1339.63 517.459L1339.98 517.215C1340.17 517.215 1340.27 517.426 1340.27 517.85C1340.27 518.077 1340.17 518.37 1339.98 518.729C1339.33 519.64 1338.37 520.47 1337.1 521.219C1335.83 521.935 1334.44 522.293 1332.95 522.293ZM1327.33 508.621H1336.85C1337.01 508.621 1337.1 508.458 1337.1 508.133C1337.1 507.417 1336.9 506.635 1336.51 505.789C1336.15 504.91 1335.6 504.145 1334.85 503.494C1334.1 502.843 1333.16 502.518 1332.02 502.518C1330.98 502.518 1330.08 502.876 1329.33 503.592C1328.58 504.275 1328.01 505.073 1327.62 505.984C1327.23 506.863 1327.04 507.628 1327.04 508.279C1327.04 508.507 1327.13 508.621 1327.33 508.621ZM1347.98 522.732C1347.2 522.732 1346.52 522.456 1345.93 521.902C1345.38 521.349 1345.1 520.682 1345.1 519.9C1345.1 519.119 1345.38 518.452 1345.93 517.898C1346.49 517.312 1347.17 517.02 1347.98 517.02C1348.83 517.02 1349.51 517.312 1350.04 517.898C1350.56 518.452 1350.82 519.119 1350.82 519.9C1350.82 520.682 1350.54 521.349 1349.99 521.902C1349.43 522.456 1348.77 522.732 1347.98 522.732Z" fill="white"/>
</svg>
